SplineFontDB: 3.2
FontName: telugu58
FullName: telugu58
FamilyName: telugu58
Weight: Regular
Copyright: Copyright 2022 The Noto Project Authors (https://github.com/notofonts/telugu)
Version: 2.003
ItalicAngle: 0
UnderlinePosition: -125
UnderlineWidth: 50
Ascent: 800
Descent: 200
InvalidEm: 0
sfntRevision: 0x000200c5
LayerCount: 2
Layer: 0 1 "Back" 1
Layer: 1 1 "Fore" 0
XUID: [1021 467 -1121320856 9400805]
StyleMap: 0x0040
FSType: 0
OS2Version: 4
OS2_WeightWidthSlopeOnly: 0
OS2_UseTypoMetrics: 1
CreationTime: 1554112134
ModificationTime: 1674294369
PfmFamily: 81
TTFWeight: 400
TTFWidth: 5
LineGap: 0
VLineGap: 0
Panose: 0 0 0 0 0 0 0 0 0 0
OS2TypoAscent: 869
OS2TypoAOffset: 0
OS2TypoDescent: -483
OS2TypoDOffset: 0
OS2TypoLinegap: 0
OS2WinAscent: 869
OS2WinAOffset: 0
OS2WinDescent: 483
OS2WinDOffset: 0
HheadAscent: 869
HheadAOffset: 0
HheadDescent: -483
HheadDOffset: 0
OS2SubXSize: 650
OS2SubYSize: 600
OS2SubXOff: 0
OS2SubYOff: 75
OS2SupXSize: 650
OS2SupYSize: 600
OS2SupXOff: 0
OS2SupYOff: 350
OS2StrikeYSize: 50
OS2StrikeYPos: 300
OS2CapHeight: 620
OS2XHeight: 500
OS2Vendor: 'GOOG'
OS2CodePages: 00000093.00000000
OS2UnicodeRanges: 80208003.00002042.00000000.00000000
Lookup: 6 8 0 "Contextual Chaining Substitution lookup 0" { "Contextual Chaining Substitution lookup 0 subtable"  } []
Lookup: 1 8 0 "Single Substitution lookup 1" { "Single Substitution lookup 1 subtable"  } []
Lookup: 1 8 0 "Single Substitution lookup 2" { "Single Substitution lookup 2 subtable"  } []
Lookup: 1 8 0 "Single Substitution lookup 3" { "Single Substitution lookup 3 subtable"  } []
Lookup: 1 8 0 "Single Substitution lookup 4" { "Single Substitution lookup 4 subtable"  } []
Lookup: 1 8 0 "Single Substitution lookup 5" { "Single Substitution lookup 5 subtable"  } []
Lookup: 1 8 0 "Single Substitution lookup 6" { "Single Substitution lookup 6 subtable"  } []
Lookup: 1 8 0 "Single Substitution lookup 7" { "Single Substitution lookup 7 subtable"  } []

StartChar: exclam.telu
Encoding: 33 33 3
Width: 298
Flags: W
LayerCount: 2
Fore
SplineSet
178 201 m 1,0,-1
 121 201 l 1,1,-1
 96 657 l 1,2,-1
 203 657 l 1,3,-1
 178 201 l 1,0,-1
86 57 m 0,4,5
 86 93 86 93 104.5 108.5 c 128,-1,6
 123 124 123 124 148 124 c 0,7,8
 174 124 174 124 192 108.5 c 128,-1,9
 210 93 210 93 210 57 c 0,10,11
 210 20 210 20 192 4 c 128,-1,12
 174 -12 174 -12 148 -12 c 0,13,14
 123 -12 123 -12 104.5 4 c 128,-1,15
 86 20 86 20 86 57 c 0,4,5
EndSplineSet
EndChar

StartChar: quotedbl.telu
Encoding: 34 34 4
Width: 456
Flags: W
LayerCount: 2
Fore
SplineSet
109 515 m 1,0,-1
 84 773 l 1,1,-1
 195 773 l 1,2,-1
 170 515 l 1,3,-1
 109 515 l 1,0,-1
286 515 m 1,4,-1
 261 773 l 1,5,-1
 371 773 l 1,6,-1
 346 515 l 1,7,-1
 286 515 l 1,4,-1
EndSplineSet
EndChar

StartChar: numbersign.telu
Encoding: 35 35 5
Width: 646
Flags: W
LayerCount: 2
Fore
SplineSet
113 0 m 1,0,-1
 151 182 l 1,1,-1
 25 182 l 1,2,-1
 25 248 l 1,3,-1
 164 248 l 1,4,-1
 197 408 l 1,5,-1
 62 408 l 1,6,-1
 62 474 l 1,7,-1
 211 474 l 1,8,-1
 248 651 l 1,9,-1
 320 651 l 1,10,-1
 282 474 l 1,11,-1
 426 474 l 1,12,-1
 464 651 l 1,13,-1
 533 651 l 1,14,-1
 495 474 l 1,15,-1
 620 474 l 1,16,-1
 620 408 l 1,17,-1
 481 408 l 1,18,-1
 447 248 l 1,19,-1
 586 248 l 1,20,-1
 586 182 l 1,21,-1
 433 182 l 1,22,-1
 395 0 l 1,23,-1
 324 0 l 1,24,-1
 363 182 l 1,25,-1
 221 182 l 1,26,-1
 183 0 l 1,27,-1
 113 0 l 1,0,-1
234 248 m 1,28,-1
 377 248 l 1,29,-1
 412 408 l 1,30,-1
 269 408 l 1,31,-1
 234 248 l 1,28,-1
EndSplineSet
EndChar

StartChar: percent.telu
Encoding: 37 37 6
Width: 831
Flags: W
LayerCount: 2
Fore
SplineSet
179 0 m 1,0,-1
 575 651 l 1,1,-1
 652 651 l 1,2,-1
 256 0 l 1,3,-1
 179 0 l 1,0,-1
195 276 m 0,4,5
 124 276 124 276 86.5 327 c 128,-1,6
 49 378 49 378 49 469 c 0,7,8
 49 561 49 561 84 611 c 128,-1,9
 119 661 119 661 195 661 c 0,10,11
 269 661 269 661 307 611 c 128,-1,12
 345 561 345 561 345 469 c 0,13,14
 345 378 345 378 308.5 327 c 128,-1,15
 272 276 272 276 195 276 c 0,4,5
195 339 m 0,16,17
 234 339 234 339 253 371.5 c 128,-1,18
 272 404 272 404 272 469 c 256,19,20
 272 534 272 534 253 566.5 c 128,-1,21
 234 599 234 599 195 599 c 0,22,23
 157 599 157 599 139.5 566.5 c 128,-1,24
 122 534 122 534 122 469 c 0,25,26
 122 405 122 405 139.5 372 c 128,-1,27
 157 339 157 339 195 339 c 0,16,17
632 -10 m 0,28,29
 561 -10 561 -10 523.5 41.5 c 128,-1,30
 486 93 486 93 486 183 c 0,31,32
 486 275 486 275 521 325 c 128,-1,33
 556 375 556 375 632 375 c 0,34,35
 705 375 705 375 743.5 325 c 128,-1,36
 782 275 782 275 782 183 c 0,37,38
 782 93 782 93 745.5 41.5 c 128,-1,39
 709 -10 709 -10 632 -10 c 0,28,29
632 53 m 0,40,41
 671 53 671 53 690 85.5 c 128,-1,42
 709 118 709 118 709 183 c 256,43,44
 709 248 709 248 690 280 c 128,-1,45
 671 312 671 312 632 312 c 0,46,47
 594 312 594 312 576.5 280 c 128,-1,48
 559 248 559 248 559 183 c 256,49,50
 559 118 559 118 576.5 85.5 c 128,-1,51
 594 53 594 53 632 53 c 0,40,41
EndSplineSet
EndChar

StartChar: quotesingle.telu
Encoding: 39 39 7
Width: 280
Flags: W
LayerCount: 2
Fore
SplineSet
109 515 m 1,0,-1
 84 773 l 1,1,-1
 195 773 l 1,2,-1
 170 515 l 1,3,-1
 109 515 l 1,0,-1
EndSplineSet
EndChar

StartChar: parenleft.telu
Encoding: 40 40 8
Width: 362
Flags: W
LayerCount: 2
Fore
SplineSet
50 211 m 0,0,1
 50 289 50 289 61.5 364.5 c 128,-1,2
 73 440 73 440 95.5 511.5 c 128,-1,3
 118 583 118 583 152.5 648.5 c 128,-1,4
 187 714 187 714 233 773 c 1,5,-1
 318 773 l 1,6,7
 257 684 257 684 217.5 592.5 c 128,-1,8
 178 501 178 501 158.5 406 c 128,-1,9
 139 311 139 311 139 210 c 0,10,11
 139 56 139 56 182 -84 c 128,-1,12
 225 -224 225 -224 319 -361 c 1,13,-1
 233 -361 l 1,14,15
 171 -282 171 -282 130.5 -190 c 128,-1,16
 90 -98 90 -98 70 3.5 c 128,-1,17
 50 105 50 105 50 211 c 0,0,1
EndSplineSet
EndChar

StartChar: parenright.telu
Encoding: 41 41 9
Width: 362
Flags: W
LayerCount: 2
Fore
SplineSet
312 201 m 0,0,1
 312 123 312 123 300.5 47.5 c 128,-1,2
 289 -28 289 -28 266 -99.5 c 128,-1,3
 243 -171 243 -171 208.5 -236.5 c 128,-1,4
 174 -302 174 -302 128 -361 c 1,5,-1
 44 -361 l 1,6,7
 106 -271 106 -271 145.5 -179.5 c 128,-1,8
 185 -88 185 -88 204 7 c 128,-1,9
 223 102 223 102 223 202 c 0,10,11
 223 357 223 357 180.5 495.5 c 128,-1,12
 138 634 138 634 43 773 c 1,13,-1
 128 773 l 1,14,15
 190 695 190 695 231 602.5 c 128,-1,16
 272 510 272 510 292 408.5 c 128,-1,17
 312 307 312 307 312 201 c 0,0,1
EndSplineSet
EndChar

StartChar: asterisk.telu
Encoding: 42 42 10
Width: 551
Flags: W
LayerCount: 2
Fore
SplineSet
336 773 m 1,0,-1
 316 581 l 1,1,-1
 509 635 l 1,2,-1
 522 543 l 1,3,-1
 339 528 l 1,4,-1
 458 370 l 1,5,-1
 372 323 l 1,6,-1
 287 498 l 1,7,-1
 209 323 l 1,8,-1
 121 370 l 1,9,-1
 238 528 l 1,10,-1
 56 543 l 1,11,-1
 70 635 l 1,12,-1
 260 581 l 1,13,-1
 239 773 l 1,14,-1
 336 773 l 1,0,-1
EndSplineSet
EndChar

StartChar: plus.telu
Encoding: 43 43 11
Width: 572
Flags: W
LayerCount: 2
Fore
SplineSet
249 291 m 1,0,-1
 50 291 l 1,1,-1
 50 362 l 1,2,-1
 249 362 l 1,3,-1
 249 569 l 1,4,-1
 321 569 l 1,5,-1
 321 362 l 1,6,-1
 520 362 l 1,7,-1
 520 291 l 1,8,-1
 321 291 l 1,9,-1
 321 84 l 1,10,-1
 249 84 l 1,11,-1
 249 291 l 1,0,-1
EndSplineSet
EndChar

StartChar: comma.telu
Encoding: 44 44 12
Width: 268
Flags: W
LayerCount: 2
Fore
SplineSet
185 116 m 1,0,-1
 192 105 l 1,1,2
 183 70 183 70 169 29 c 128,-1,3
 155 -12 155 -12 138.5 -52.5 c 128,-1,4
 122 -93 122 -93 106 -129 c 1,5,-1
 41 -129 l 1,6,7
 51 -91 51 -91 60.5 -47.5 c 128,-1,8
 70 -4 70 -4 78 38.5 c 128,-1,9
 86 81 86 81 91 116 c 1,10,-1
 185 116 l 1,0,-1
EndSplineSet
EndChar

StartChar: hyphen.telu
Encoding: 45 45 13
Width: 322
Flags: W
LayerCount: 2
Fore
SplineSet
40 214 m 1,0,-1
 40 292 l 1,1,-1
 282 292 l 1,2,-1
 282 214 l 1,3,-1
 40 214 l 1,0,-1
EndSplineSet
EndChar

StartChar: period.telu
Encoding: 46 46 14
Width: 268
Flags: W
LayerCount: 2
Fore
SplineSet
72 57 m 0,0,1
 72 93 72 93 90 108.5 c 128,-1,2
 108 124 108 124 133 124 c 0,3,4
 159 124 159 124 177.5 108.5 c 128,-1,5
 196 93 196 93 196 57 c 0,6,7
 196 20 196 20 177.5 4 c 128,-1,8
 159 -12 159 -12 133 -12 c 0,9,10
 108 -12 108 -12 90 4 c 128,-1,11
 72 20 72 20 72 57 c 0,0,1
EndSplineSet
EndChar

StartChar: slash.telu
Encoding: 47 47 15
Width: 436
Flags: W
LayerCount: 2
Fore
SplineSet
406 773 m 1,0,-1
 116 -361 l 1,1,-1
 29 -361 l 1,2,-1
 320 773 l 1,3,-1
 406 773 l 1,0,-1
EndSplineSet
EndChar

StartChar: zero.telu
Encoding: 48 48 16
Width: 572
Flags: W
LayerCount: 2
Fore
SplineSet
523 326 m 0,0,1
 523 247 523 247 509.5 184.5 c 128,-1,2
 496 122 496 122 467 78.5 c 128,-1,3
 438 35 438 35 393 12.5 c 128,-1,4
 348 -10 348 -10 285 -10 c 0,5,6
 205 -10 205 -10 152.5 30 c 128,-1,7
 100 70 100 70 74.5 145.5 c 128,-1,8
 49 221 49 221 49 326 c 0,9,10
 49 432 49 432 73 506.5 c 128,-1,11
 97 581 97 581 149.5 621 c 128,-1,12
 202 661 202 661 285 661 c 0,13,14
 365 661 365 661 418 621.5 c 128,-1,15
 471 582 471 582 497 507 c 128,-1,16
 523 432 523 432 523 326 c 0,0,1
135 326 m 256,17,18
 135 239 135 239 149.5 181 c 128,-1,19
 164 123 164 123 197 94 c 128,-1,20
 230 65 230 65 285 65 c 256,21,22
 340 65 340 65 373 93.5 c 128,-1,23
 406 122 406 122 421 180 c 128,-1,24
 436 238 436 238 436 326 c 0,25,26
 436 413 436 413 421 471 c 128,-1,27
 406 529 406 529 373 557.5 c 128,-1,28
 340 586 340 586 285 586 c 256,29,30
 230 586 230 586 197 557.5 c 128,-1,31
 164 529 164 529 149.5 471 c 128,-1,32
 135 413 135 413 135 326 c 256,17,18
EndSplineSet
EndChar

StartChar: one.telu
Encoding: 49 49 17
Width: 572
Flags: W
LayerCount: 2
Fore
SplineSet
356 0 m 1,0,-1
 272 0 l 1,1,-1
 272 440 l 2,2,3
 272 483 272 483 273 511 c 128,-1,4
 274 539 274 539 276 567 c 1,5,6
 260 551 260 551 245 537.5 c 128,-1,7
 230 524 230 524 210 508 c 2,8,-1
 134 446 l 1,9,-1
 88 505 l 1,10,-1
 281 655 l 1,11,-1
 356 655 l 1,12,-1
 356 0 l 1,0,-1
EndSplineSet
EndChar

StartChar: two.telu
Encoding: 50 50 18
Width: 572
Flags: W
LayerCount: 2
Fore
SplineSet
520 0 m 1,0,-1
 48 0 l 1,1,-1
 48 73 l 1,2,-1
 235 242 l 2,3,4
 291 293 291 293 328.5 330.5 c 128,-1,5
 366 368 366 368 384.5 403 c 128,-1,6
 403 438 403 438 403 479 c 0,7,8
 403 514 403 514 387.5 537.5 c 128,-1,9
 372 561 372 561 343 573.5 c 128,-1,10
 314 586 314 586 275 586 c 0,11,12
 223 586 223 586 183.5 568 c 128,-1,13
 144 550 144 550 103 518 c 1,14,-1
 56 577 l 1,15,16
 84 601 84 601 117.5 620 c 128,-1,17
 151 639 151 639 190.5 650 c 128,-1,18
 230 661 230 661 275 661 c 0,19,20
 342 661 342 661 390 640.5 c 128,-1,21
 438 620 438 620 464.5 581.5 c 128,-1,22
 491 543 491 543 491 490 c 0,23,24
 491 438 491 438 470.5 394 c 128,-1,25
 450 350 450 350 411.5 307.5 c 128,-1,26
 373 265 373 265 318 216 c 2,27,-1
 169 84 l 1,28,-1
 169 80 l 1,29,-1
 520 80 l 1,30,-1
 520 0 l 1,0,-1
EndSplineSet
EndChar

StartChar: three.telu
Encoding: 51 51 19
Width: 572
Flags: W
LayerCount: 2
Fore
SplineSet
493 500 m 0,0,1
 493 457 493 457 476 426 c 128,-1,2
 459 395 459 395 428.5 375 c 128,-1,3
 398 355 398 355 356 344 c 1,4,-1
 356 340 l 1,5,6
 436 328 436 328 475.5 288 c 128,-1,7
 515 248 515 248 515 186 c 0,8,9
 515 129 515 129 486 84.5 c 128,-1,10
 457 40 457 40 396.5 15 c 128,-1,11
 336 -10 336 -10 241 -10 c 0,12,13
 185 -10 185 -10 137 -1.5 c 128,-1,14
 89 7 89 7 45 29 c 1,15,-1
 45 111 l 1,16,17
 90 89 90 89 142 76.5 c 128,-1,18
 194 64 194 64 242 64 c 0,19,20
 340 64 340 64 382.5 97 c 128,-1,21
 425 130 425 130 425 188 c 0,22,23
 425 228 425 228 401 252 c 128,-1,24
 377 276 377 276 332 287.5 c 128,-1,25
 287 299 287 299 223 299 c 2,26,-1
 154 299 l 1,27,-1
 154 374 l 1,28,-1
 224 374 l 2,29,30
 283 374 283 374 323.5 388.5 c 128,-1,31
 364 403 364 403 384.5 430 c 128,-1,32
 405 457 405 457 405 492 c 0,33,34
 405 537 405 537 369.5 562 c 128,-1,35
 334 587 334 587 273 587 c 0,36,37
 215 587 215 587 174 570 c 128,-1,38
 133 553 133 553 93 527 c 1,39,-1
 49 587 l 1,40,41
 87 617 87 617 143.5 639 c 128,-1,42
 200 661 200 661 272 661 c 0,43,44
 384 661 384 661 438.5 615.5 c 128,-1,45
 493 570 493 570 493 500 c 0,0,1
EndSplineSet
EndChar

StartChar: four.telu
Encoding: 52 52 20
Width: 572
Flags: W
LayerCount: 2
Fore
SplineSet
552 146 m 1,0,-1
 446 146 l 1,1,-1
 446 0 l 1,2,-1
 363 0 l 1,3,-1
 363 146 l 1,4,-1
 21 146 l 1,5,-1
 21 220 l 1,6,-1
 357 655 l 1,7,-1
 446 655 l 1,8,-1
 446 220 l 1,9,-1
 552 220 l 1,10,-1
 552 146 l 1,0,-1
363 225 m 1,11,-1
 363 422 l 2,12,13
 363 453 363 453 363.5 477 c 128,-1,14
 364 501 364 501 365.5 521.5 c 128,-1,15
 367 542 367 542 368 561 c 1,16,-1
 364 561 l 1,17,18
 355 545 355 545 341 523.5 c 128,-1,19
 327 502 327 502 310 479 c 2,20,-1
 110 225 l 1,21,-1
 363 225 l 1,11,-1
EndSplineSet
EndChar

StartChar: five.telu
Encoding: 53 53 21
Width: 572
Flags: W
LayerCount: 2
Fore
SplineSet
272 402 m 0,0,1
 346 402 346 402 400.5 379.5 c 128,-1,2
 455 357 455 357 485 314 c 128,-1,3
 515 271 515 271 515 209 c 0,4,5
 515 141 515 141 483 92 c 128,-1,6
 451 43 451 43 391.5 16.5 c 128,-1,7
 332 -10 332 -10 248 -10 c 0,8,9
 193 -10 193 -10 144.5 0 c 128,-1,10
 96 10 96 10 63 29 c 1,11,-1
 63 112 l 1,12,13
 99 90 99 90 151.5 77.5 c 128,-1,14
 204 65 204 65 251 65 c 0,15,16
 304 65 304 65 343.5 79.5 c 128,-1,17
 383 94 383 94 405 124.5 c 128,-1,18
 427 155 427 155 427 201 c 0,19,20
 427 263 427 263 384.5 295.5 c 128,-1,21
 342 328 342 328 248 328 c 0,22,23
 219 328 219 328 182.5 323 c 128,-1,24
 146 318 146 318 124 313 c 1,25,-1
 80 341 l 1,26,-1
 107 651 l 1,27,-1
 465 651 l 1,28,-1
 465 571 l 1,29,-1
 179 571 l 1,30,-1
 164 392 l 1,31,32
 181 395 181 395 209 398.5 c 128,-1,33
 237 402 237 402 272 402 c 0,0,1
EndSplineSet
EndChar

StartChar: six.telu
Encoding: 54 54 22
Width: 572
Flags: W
LayerCount: 2
Fore
SplineSet
55 278 m 0,0,1
 55 348 55 348 68.5 416 c 128,-1,2
 82 484 82 484 117.5 539.5 c 128,-1,3
 153 595 153 595 217 628 c 128,-1,4
 281 661 281 661 382 661 c 0,5,6
 403 661 403 661 428.5 659 c 128,-1,7
 454 657 454 657 470 652 c 1,8,-1
 470 577 l 1,9,10
 452 583 452 583 429.5 586 c 128,-1,11
 407 589 407 589 384 589 c 0,12,13
 314 589 314 589 268 568.5 c 128,-1,14
 222 548 222 548 195.5 512 c 128,-1,15
 169 476 169 476 156.5 428.5 c 128,-1,16
 144 381 144 381 142 328 c 1,17,-1
 146 328 l 1,18,19
 160 350 160 350 182.5 369.5 c 128,-1,20
 205 389 205 389 238 401 c 128,-1,21
 271 413 271 413 317 413 c 0,22,23
 379 413 379 413 426 389.5 c 128,-1,24
 473 366 473 366 499 321 c 128,-1,25
 525 276 525 276 525 212 c 0,26,27
 525 143 525 143 497 93 c 128,-1,28
 469 43 469 43 418.5 16.5 c 128,-1,29
 368 -10 368 -10 298 -10 c 0,30,31
 247 -10 247 -10 203 7.5 c 128,-1,32
 159 25 159 25 125.5 60.5 c 128,-1,33
 92 96 92 96 73.5 150.5 c 128,-1,34
 55 205 55 205 55 278 c 0,0,1
297 64 m 0,35,36
 361 64 361 64 400.5 100 c 128,-1,37
 440 136 440 136 440 212 c 0,38,39
 440 273 440 273 405.5 308.5 c 128,-1,40
 371 344 371 344 300 344 c 0,41,42
 252 344 252 344 216.5 326.5 c 128,-1,43
 181 309 181 309 161.5 282 c 128,-1,44
 142 255 142 255 142 227 c 0,45,46
 142 198 142 198 151.5 169 c 128,-1,47
 161 140 161 140 180.5 116.5 c 128,-1,48
 200 93 200 93 229 78.5 c 128,-1,49
 258 64 258 64 297 64 c 0,35,36
EndSplineSet
EndChar

StartChar: seven.telu
Encoding: 55 55 23
Width: 572
Flags: W
LayerCount: 2
Fore
SplineSet
136 0 m 1,0,-1
 429 571 l 1,1,-1
 44 571 l 1,2,-1
 44 651 l 1,3,-1
 523 651 l 1,4,-1
 523 583 l 1,5,-1
 233 0 l 1,6,-1
 136 0 l 1,0,-1
EndSplineSet
EndChar

StartChar: eight.telu
Encoding: 56 56 24
Width: 572
Flags: W
LayerCount: 2
Fore
SplineSet
285 661 m 0,0,1
 348 661 348 661 396 643 c 128,-1,2
 444 625 444 625 471.5 590.5 c 128,-1,3
 499 556 499 556 499 506 c 0,4,5
 499 467 499 467 481.5 437 c 128,-1,6
 464 407 464 407 433 385.5 c 128,-1,7
 402 364 402 364 363 347 c 1,8,9
 408 329 408 329 444 304.5 c 128,-1,10
 480 280 480 280 501 247 c 128,-1,11
 522 214 522 214 522 169 c 0,12,13
 522 114 522 114 493 74 c 128,-1,14
 464 34 464 34 411.5 12 c 128,-1,15
 359 -10 359 -10 288 -10 c 0,16,17
 173 -10 173 -10 111 36.5 c 128,-1,18
 49 83 49 83 49 167 c 0,19,20
 49 211 49 211 68.5 244 c 128,-1,21
 88 277 88 277 122 301.5 c 128,-1,22
 156 326 156 326 197 342 c 1,23,24
 160 361 160 361 132 383.5 c 128,-1,25
 104 406 104 406 88 436 c 128,-1,26
 72 466 72 466 72 506 c 0,27,28
 72 556 72 556 100 590.5 c 128,-1,29
 128 625 128 625 176 643 c 128,-1,30
 224 661 224 661 285 661 c 0,0,1
133 167 m 0,31,32
 133 121 133 121 170.5 90.5 c 128,-1,33
 208 60 208 60 286 60 c 0,34,35
 360 60 360 60 399 90.5 c 128,-1,36
 438 121 438 121 438 170 c 0,37,38
 438 201 438 201 419 224.5 c 128,-1,39
 400 248 400 248 366.5 266.5 c 128,-1,40
 333 285 333 285 287 300 c 2,41,-1
 270 306 l 1,42,43
 226 289 226 289 195 269 c 128,-1,44
 164 249 164 249 148.5 224.5 c 128,-1,45
 133 200 133 200 133 167 c 0,31,32
284 590 m 0,46,47
 227 590 227 590 191.5 567 c 128,-1,48
 156 544 156 544 156 500 c 0,49,50
 156 469 156 469 174 447.5 c 128,-1,51
 192 426 192 426 222 410.5 c 128,-1,52
 252 395 252 395 289 381 c 1,53,54
 324 394 324 394 352.5 409.5 c 128,-1,55
 381 425 381 425 397.5 447 c 128,-1,56
 414 469 414 469 414 500 c 0,57,58
 414 544 414 544 378.5 567 c 128,-1,59
 343 590 343 590 284 590 c 0,46,47
EndSplineSet
EndChar

StartChar: nine.telu
Encoding: 57 57 25
Width: 572
Flags: W
LayerCount: 2
Fore
SplineSet
520 373 m 0,0,1
 520 317 520 317 511.5 261.5 c 128,-1,2
 503 206 503 206 482 157.5 c 128,-1,3
 461 109 461 109 424 71 c 128,-1,4
 387 33 387 33 330 11.5 c 128,-1,5
 273 -10 273 -10 192 -10 c 0,6,7
 172 -10 172 -10 145.5 -7.5 c 128,-1,8
 119 -5 119 -5 102 0 c 1,9,-1
 102 75 l 1,10,11
 120 69 120 69 144 65.5 c 128,-1,12
 168 62 168 62 190 62 c 0,13,14
 260 62 260 62 306 82.5 c 128,-1,15
 352 103 352 103 379 138.5 c 128,-1,16
 406 174 406 174 418.5 221 c 128,-1,17
 431 268 431 268 433 321 c 1,18,-1
 428 321 l 1,19,20
 410 296 410 296 386.5 277.5 c 128,-1,21
 363 259 363 259 331.5 248.5 c 128,-1,22
 300 238 300 238 256 238 c 0,23,24
 194 238 194 238 147.5 261.5 c 128,-1,25
 101 285 101 285 75.5 330 c 128,-1,26
 50 375 50 375 50 438 c 0,27,28
 50 507 50 507 78.5 557 c 128,-1,29
 107 607 107 607 158 634 c 128,-1,30
 209 661 209 661 278 661 c 0,31,32
 329 661 329 661 373 643.5 c 128,-1,33
 417 626 417 626 450 590 c 128,-1,34
 483 554 483 554 501.5 500 c 128,-1,35
 520 446 520 446 520 373 c 0,0,1
278 587 m 0,36,37
 215 587 215 587 175 550.5 c 128,-1,38
 135 514 135 514 135 439 c 0,39,40
 135 399 135 399 150 369.5 c 128,-1,41
 165 340 165 340 196 324 c 128,-1,42
 227 308 227 308 274 308 c 0,43,44
 323 308 323 308 358.5 325 c 128,-1,45
 394 342 394 342 413.5 369 c 128,-1,46
 433 396 433 396 433 424 c 0,47,48
 433 453 433 453 423.5 482 c 128,-1,49
 414 511 414 511 394.5 534.5 c 128,-1,50
 375 558 375 558 346 572.5 c 128,-1,51
 317 587 317 587 278 587 c 0,36,37
EndSplineSet
EndChar

StartChar: colon.telu
Encoding: 58 58 26
Width: 268
Flags: W
LayerCount: 2
Fore
SplineSet
72 57 m 0,0,1
 72 93 72 93 90 108.5 c 128,-1,2
 108 124 108 124 133 124 c 0,3,4
 159 124 159 124 177.5 108.5 c 128,-1,5
 196 93 196 93 196 57 c 0,6,7
 196 20 196 20 177.5 4 c 128,-1,8
 159 -12 159 -12 133 -12 c 0,9,10
 108 -12 108 -12 90 4 c 128,-1,11
 72 20 72 20 72 57 c 0,0,1
72 387 m 0,12,13
 72 425 72 425 90 440 c 128,-1,14
 108 455 108 455 133 455 c 0,15,16
 159 455 159 455 177.5 440 c 128,-1,17
 196 425 196 425 196 387 c 0,18,19
 196 351 196 351 177.5 335 c 128,-1,20
 159 319 159 319 133 319 c 0,21,22
 108 319 108 319 90 335 c 128,-1,23
 72 351 72 351 72 387 c 0,12,13
EndSplineSet
EndChar

StartChar: semicolon.telu
Encoding: 59 59 27
Width: 268
Flags: W
LayerCount: 2
Fore
SplineSet
176 116 m 1,0,-1
 183 105 l 1,1,2
 174 70 174 70 160 29 c 128,-1,3
 146 -12 146 -12 129.5 -52.5 c 128,-1,4
 113 -93 113 -93 97 -129 c 1,5,-1
 31 -129 l 1,6,7
 41 -91 41 -91 50.5 -47.5 c 128,-1,8
 60 -4 60 -4 68.5 38.5 c 128,-1,9
 77 81 77 81 82 116 c 1,10,-1
 176 116 l 1,0,-1
72 387 m 0,11,12
 72 425 72 425 90 440 c 128,-1,13
 108 455 108 455 133 455 c 0,14,15
 159 455 159 455 177.5 440 c 128,-1,16
 196 425 196 425 196 387 c 0,17,18
 196 351 196 351 177.5 335 c 128,-1,19
 159 319 159 319 133 319 c 0,20,21
 108 319 108 319 90 335 c 128,-1,22
 72 351 72 351 72 387 c 0,11,12
EndSplineSet
EndChar

StartChar: less.telu
Encoding: 60 60 28
Width: 572
Flags: W
LayerCount: 2
Fore
SplineSet
521 90 m 1,0,-1
 50 297 l 1,1,-1
 50 347 l 1,2,-1
 521 582 l 1,3,-1
 521 503 l 1,4,-1
 144 326 l 1,5,-1
 521 167 l 1,6,-1
 521 90 l 1,0,-1
EndSplineSet
EndChar

StartChar: equal.telu
Encoding: 61 61 29
Width: 572
Flags: W
LayerCount: 2
Fore
SplineSet
56 390 m 1,0,-1
 56 460 l 1,1,-1
 514 460 l 1,2,-1
 514 390 l 1,3,-1
 56 390 l 1,0,-1
56 190 m 1,4,-1
 56 262 l 1,5,-1
 514 262 l 1,6,-1
 514 190 l 1,7,-1
 56 190 l 1,4,-1
EndSplineSet
EndChar

StartChar: greater.telu
Encoding: 62 62 30
Width: 572
Flags: W
LayerCount: 2
Fore
SplineSet
50 167 m 1,0,-1
 427 325 l 1,1,-1
 50 503 l 1,2,-1
 50 582 l 1,3,-1
 521 347 l 1,4,-1
 521 297 l 1,5,-1
 50 90 l 1,6,-1
 50 167 l 1,0,-1
EndSplineSet
EndChar

StartChar: question.telu
Encoding: 63 63 31
Width: 471
Flags: W
LayerCount: 2
Fore
SplineSet
239 661 m 0,0,1
 330 661 330 661 383 615 c 128,-1,2
 436 569 436 569 436 492 c 0,3,4
 436 454 436 454 424 424 c 128,-1,5
 412 394 412 394 388 367.5 c 128,-1,6
 364 341 364 341 327 311 c 0,7,8
 295 286 295 286 278 266.5 c 128,-1,9
 261 247 261 247 254.5 230 c 128,-1,10
 248 213 248 213 248 194 c 2,11,-1
 248 186 l 1,12,-1
 180 186 l 1,13,-1
 180 202 l 2,14,15
 180 231 180 231 187 256 c 128,-1,16
 194 281 194 281 212 304.5 c 128,-1,17
 230 328 230 328 263 354 c 0,18,19
 294 379 294 379 314 400 c 128,-1,20
 334 421 334 421 343.5 443.5 c 128,-1,21
 353 466 353 466 353 494 c 0,22,23
 353 520 353 520 340.5 540 c 128,-1,24
 328 560 328 560 303 572 c 128,-1,25
 278 584 278 584 240 584 c 0,26,27
 199 584 199 584 163.5 572.5 c 128,-1,28
 128 561 128 561 91 542 c 1,29,-1
 61 612 l 1,30,31
 100 632 100 632 146 646.5 c 128,-1,32
 192 661 192 661 239 661 c 0,0,1
218 -12 m 0,33,34
 193 -12 193 -12 174.5 4 c 128,-1,35
 156 20 156 20 156 56 c 0,36,37
 156 94 156 94 174.5 109 c 128,-1,38
 193 124 193 124 218 124 c 0,39,40
 244 124 244 124 262 109 c 128,-1,41
 280 94 280 94 280 56 c 0,42,43
 280 20 280 20 262 4 c 128,-1,44
 244 -12 244 -12 218 -12 c 0,33,34
EndSplineSet
EndChar

StartChar: bracketleft.telu
Encoding: 91 91 32
Width: 344
Flags: W
LayerCount: 2
Fore
SplineSet
304 -361 m 1,0,-1
 80 -361 l 1,1,-1
 80 773 l 1,2,-1
 304 773 l 1,3,-1
 304 701 l 1,4,-1
 166 701 l 1,5,-1
 166 -289 l 1,6,-1
 304 -289 l 1,7,-1
 304 -361 l 1,0,-1
EndSplineSet
EndChar

StartChar: backslash.telu
Encoding: 92 92 33
Width: 436
Flags: W
LayerCount: 2
Fore
SplineSet
116 773 m 1,0,-1
 406 -361 l 1,1,-1
 319 -361 l 1,2,-1
 29 773 l 1,3,-1
 116 773 l 1,0,-1
EndSplineSet
EndChar

StartChar: bracketright.telu
Encoding: 93 93 34
Width: 344
Flags: W
LayerCount: 2
Fore
SplineSet
40 -289 m 1,0,-1
 178 -289 l 1,1,-1
 178 701 l 1,2,-1
 40 701 l 1,3,-1
 40 773 l 1,4,-1
 264 773 l 1,5,-1
 264 -361 l 1,6,-1
 40 -361 l 1,7,-1
 40 -289 l 1,0,-1
EndSplineSet
EndChar

StartChar: asciicircum.telu
Encoding: 94 94 35
Width: 572
Flags: W
LayerCount: 2
Fore
SplineSet
38 267 m 1,0,-1
 250 719 l 1,1,-1
 300 719 l 1,2,-1
 534 267 l 1,3,-1
 456 267 l 1,4,-1
 276 626 l 1,5,-1
 116 267 l 1,6,-1
 38 267 l 1,0,-1
EndSplineSet
EndChar

StartChar: underscore.telu
Encoding: 95 95 36
Width: 444
Flags: W
LayerCount: 2
Fore
SplineSet
-2 -154 m 1,0,-1
 -2 -90 l 1,1,-1
 446 -90 l 1,2,-1
 446 -154 l 1,3,-1
 -2 -154 l 1,0,-1
EndSplineSet
EndChar

StartChar: braceleft.telu
Encoding: 123 123 37
Width: 388
Flags: W
LayerCount: 2
Fore
SplineSet
348 -361 m 1,0,1
 287 -360 287 -360 242.5 -343 c 128,-1,2
 198 -326 198 -326 174 -290.5 c 128,-1,3
 150 -255 150 -255 150 -202 c 2,4,-1
 150 75 l 2,5,6
 150 126 150 126 118.5 147.5 c 128,-1,7
 87 169 87 169 28 169 c 1,8,-1
 28 242 l 1,9,10
 87 244 87 244 118.5 264.5 c 128,-1,11
 150 285 150 285 150 335 c 2,12,-1
 150 615 l 2,13,14
 150 668 150 668 175 703 c 128,-1,15
 200 738 200 738 245 755.5 c 128,-1,16
 290 773 290 773 348 773 c 1,17,-1
 348 701 l 1,18,19
 296 700 296 700 266.5 678 c 128,-1,20
 237 656 237 656 237 607 c 2,21,-1
 237 331 l 2,22,23
 237 280 237 280 210 249.5 c 128,-1,24
 183 219 183 219 128 209 c 1,25,-1
 128 203 l 1,26,27
 184 193 184 193 210.5 162.5 c 128,-1,28
 237 132 237 132 237 81 c 2,29,-1
 237 -196 l 2,30,31
 237 -228 237 -228 250 -248.5 c 128,-1,32
 263 -269 263 -269 288 -278.5 c 128,-1,33
 313 -288 313 -288 348 -289 c 1,34,-1
 348 -361 l 1,0,1
EndSplineSet
EndChar

StartChar: bar.telu
Encoding: 124 124 38
Width: 551
Flags: W
LayerCount: 2
Fore
SplineSet
235 773 m 1,0,-1
 316 773 l 1,1,-1
 316 -361 l 1,2,-1
 235 -361 l 1,3,-1
 235 773 l 1,0,-1
EndSplineSet
EndChar

StartChar: braceright.telu
Encoding: 125 125 39
Width: 388
Flags: W
LayerCount: 2
Fore
SplineSet
40 773 m 1,0,1
 102 773 102 773 146 755.5 c 128,-1,2
 190 738 190 738 214 703 c 128,-1,3
 238 668 238 668 238 614 c 2,4,-1
 238 337 l 2,5,6
 238 287 238 287 269.5 265 c 128,-1,7
 301 243 301 243 360 243 c 1,8,-1
 360 170 l 1,9,10
 301 169 301 169 269.5 148.5 c 128,-1,11
 238 128 238 128 238 77 c 2,12,-1
 238 -203 l 2,13,14
 238 -256 238 -256 213 -291 c 128,-1,15
 188 -326 188 -326 143.5 -343.5 c 128,-1,16
 99 -361 99 -361 40 -361 c 1,17,-1
 40 -289 l 1,18,19
 92 -287 92 -287 121.5 -265.5 c 128,-1,20
 151 -244 151 -244 151 -195 c 2,21,-1
 151 82 l 2,22,23
 151 132 151 132 178 162.5 c 128,-1,24
 205 193 205 193 260 203 c 1,25,-1
 260 209 l 1,26,27
 205 219 205 219 178 249.5 c 128,-1,28
 151 280 151 280 151 332 c 2,29,-1
 151 608 l 2,30,31
 151 641 151 641 138 661 c 128,-1,32
 125 681 125 681 100.5 691 c 128,-1,33
 76 701 76 701 40 701 c 1,34,-1
 40 773 l 1,0,1
EndSplineSet
EndChar

StartChar: asciitilde.telu
Encoding: 126 126 40
Width: 572
Flags: W
LayerCount: 2
Fore
SplineSet
269 292 m 0,0,1
 233 308 233 308 209.5 314 c 128,-1,2
 186 320 186 320 164 320 c 0,3,4
 136 320 136 320 105 302.5 c 128,-1,5
 74 285 74 285 50 261 c 1,6,-1
 50 339 l 1,7,8
 74 365 74 365 104 378.5 c 128,-1,9
 134 392 134 392 170 392 c 0,10,11
 199 392 199 392 227.5 386 c 128,-1,12
 256 380 256 380 302 360 c 0,13,14
 338 344 338 344 361.5 338.5 c 128,-1,15
 385 333 385 333 406 333 c 0,16,17
 435 333 435 333 466 350 c 128,-1,18
 497 367 497 367 521 392 c 1,19,-1
 521 314 l 1,20,21
 497 289 497 289 467 275 c 128,-1,22
 437 261 437 261 401 261 c 0,23,24
 373 261 373 261 343.5 267 c 128,-1,25
 314 273 314 273 269 292 c 0,0,1
EndSplineSet
EndChar

StartChar: divide.telu
Encoding: 247 247 42
Width: 566
Flags: W
LayerCount: 2
Fore
SplineSet
283 363 m 1,0,-1
 469 714 l 1,1,-1
 566 714 l 1,2,-1
 328 277 l 1,3,-1
 328 0 l 1,4,-1
 238 0 l 1,5,-1
 238 273 l 1,6,-1
 0 714 l 1,7,-1
 98 714 l 1,8,-1
 283 363 l 1,0,-1
EndSplineSet
EndChar

StartChar: A
Encoding: 65 65 43
Width: 800
Flags: W
AnchorPoint: "Anchor-0" 400 -24 basechar 0
LayerCount: 2
Fore
SplineSet
390 -12 m 0,0,1
 300 -12 300 -12 233.5 9.5 c 128,-1,2
 167 31 167 31 123 70 c 128,-1,3
 79 109 79 109 57.5 161 c 128,-1,4
 36 213 36 213 36 273 c 0,5,6
 36 345 36 345 61 396 c 128,-1,7
 86 447 86 447 128.5 473.5 c 128,-1,8
 171 500 171 500 225 500 c 0,9,10
 265 500 265 500 294.5 484.5 c 128,-1,11
 324 469 324 469 340.5 440.5 c 128,-1,12
 357 412 357 412 357 373 c 0,13,14
 357 333 357 333 340 301.5 c 128,-1,15
 323 270 323 270 289 252.5 c 128,-1,16
 255 235 255 235 202 235 c 0,17,18
 152 235 152 235 115 258 c 128,-1,19
 78 281 78 281 58 304 c 1,20,-1
 82 366 l 1,21,22
 90 355 90 355 104.5 340.5 c 128,-1,23
 119 326 119 326 142 315.5 c 128,-1,24
 165 305 165 305 197 305 c 0,25,26
 237 305 237 305 257.5 322 c 128,-1,27
 278 339 278 339 278 369 c 0,28,29
 278 398 278 398 262 413.5 c 128,-1,30
 246 429 246 429 220 429 c 0,31,32
 173 429 173 429 144 390 c 128,-1,33
 115 351 115 351 115 280 c 2,34,-1
 115 271 l 2,35,36
 115 220 115 220 142.5 173 c 128,-1,37
 170 126 170 126 230.5 96.5 c 128,-1,38
 291 67 291 67 390 67 c 0,39,40
 538 67 538 67 610 119.5 c 128,-1,41
 682 172 682 172 682 285 c 0,42,43
 682 322 682 322 671 353.5 c 128,-1,44
 660 385 660 385 637.5 405 c 128,-1,45
 615 425 615 425 580 425 c 0,46,47
 557 425 557 425 537.5 409.5 c 128,-1,48
 518 394 518 394 518 360 c 0,49,50
 518 321 518 321 544 295.5 c 128,-1,51
 570 270 570 270 612 256 c 1,52,-1
 612 184 l 1,53,-1
 303 184 l 1,54,-1
 303 258 l 1,55,-1
 522 258 l 1,56,-1
 513 251 l 1,57,58
 478 268 478 268 458.5 300 c 128,-1,59
 439 332 439 332 439 374 c 0,60,61
 439 404 439 404 454 433 c 128,-1,62
 469 462 469 462 501.5 481 c 128,-1,63
 534 500 534 500 584 500 c 0,64,65
 636 500 636 500 676.5 472 c 128,-1,66
 717 444 717 444 741 395.5 c 128,-1,67
 765 347 765 347 765 284 c 0,68,69
 765 209 765 209 739.5 153 c 128,-1,70
 714 97 714 97 665.5 60.5 c 128,-1,71
 617 24 617 24 547.5 6 c 128,-1,72
 478 -12 478 -12 390 -12 c 0,0,1
EndSplineSet
EndChar

StartChar: Aacute
Encoding: 193 193 44
Width: 258
Flags: W
LayerCount: 2
Fore
SplineSet
173 0 m 1,0,-1
 85 0 l 1,1,-1
 85 760 l 1,2,-1
 173 760 l 1,3,-1
 173 0 l 1,0,-1
EndSplineSet
EndChar

StartChar: Abreve
Encoding: 258 258 45
Width: 470
Flags: W
LayerCount: 2
Fore
SplineSet
280 606 m 4,0,1
 231 606 231 606 201 634 c 132,-1,2
 171 662 171 662 171 712 c 260,3,4
 171 762 171 762 201 789.5 c 132,-1,5
 231 817 231 817 280 817 c 4,6,7
 327 817 327 817 359 789.5 c 132,-1,8
 391 762 391 762 391 713 c 4,9,10
 391 662 391 662 359.5 634 c 132,-1,11
 328 606 328 606 280 606 c 4,0,1
280 656 m 4,12,13
 305 656 305 656 320.5 671 c 132,-1,14
 336 686 336 686 336 712 c 260,15,16
 336 738 336 738 320 753 c 132,-1,17
 304 768 304 768 280 768 c 260,18,19
 256 768 256 768 240 753 c 132,-1,20
 224 738 224 738 224 712 c 260,21,22
 224 686 224 686 238.5 671 c 132,-1,23
 253 656 253 656 280 656 c 4,12,13
431 0 m 1,24,-1
 39 0 l 1,25,-1
 39 58 l 1,26,-1
 327 468 l 1,27,-1
 56 468 l 1,28,-1
 56 536 l 1,29,-1
 424 536 l 1,30,-1
 424 470 l 1,31,-1
 140 68 l 1,32,-1
 431 68 l 1,33,-1
 431 0 l 1,24,-1
EndSplineSet
EndChar

StartChar: Acircumflex
Encoding: 194 194 46
Width: 508
Flags: W
LayerCount: 2
Fore
SplineSet
203 0 m 1,0,-1
 0 536 l 1,1,-1
 94 536 l 1,2,-1
 208 220 l 2,3,4
 216 198 216 198 225 171 c 128,-1,5
 234 144 234 144 241 119.5 c 128,-1,6
 248 95 248 95 251 78 c 1,7,-1
 255 78 l 1,8,9
 259 95 259 95 266.5 120 c 128,-1,10
 274 145 274 145 283.5 172 c 128,-1,11
 293 199 293 199 300 220 c 2,12,-1
 414 536 l 1,13,-1
 508 536 l 1,14,-1
 304 0 l 1,15,-1
 203 0 l 1,0,-1
EndSplineSet
EndChar

StartChar: Adieresis
Encoding: 196 196 47
Width: 741
Flags: W
LayerCount: 2
Fore
SplineSet
643 0 m 1,0,-1
 553 0 l 1,1,-1
 553 333 l 1,2,-1
 187 333 l 1,3,-1
 187 0 l 1,4,-1
 97 0 l 1,5,-1
 97 714 l 1,6,-1
 187 714 l 1,7,-1
 187 412 l 1,8,-1
 553 412 l 1,9,-1
 553 714 l 1,10,-1
 643 714 l 1,11,-1
 643 0 l 1,0,-1
EndSplineSet
EndChar

StartChar: Agrave
Encoding: 192 192 48
Width: 413
Flags: W
LayerCount: 2
Fore
SplineSet
335 546 m 0,0,1
 350 546 350 546 367.5 544.5 c 128,-1,2
 385 543 385 543 398 540 c 1,3,-1
 387 459 l 1,4,5
 374 462 374 462 358.5 464 c 128,-1,6
 343 466 343 466 329 466 c 0,7,8
 298 466 298 466 270 453 c 128,-1,9
 242 440 242 440 220 416.5 c 128,-1,10
 198 393 198 393 185.5 360 c 128,-1,11
 173 327 173 327 173 286 c 2,12,-1
 173 0 l 1,13,-1
 85 0 l 1,14,-1
 85 536 l 1,15,-1
 157 536 l 1,16,-1
 167 438 l 1,17,-1
 171 438 l 1,18,19
 188 468 188 468 212 492.5 c 128,-1,20
 236 517 236 517 267 531.5 c 128,-1,21
 298 546 298 546 335 546 c 0,0,1
EndSplineSet
EndChar

StartChar: Amacron
Encoding: 256 256 49
Width: 572
Flags: W
LayerCount: 2
Fore
SplineSet
235 -8 m 4,0,1
 180 -8 180 -8 136 4 c 132,-1,2
 92 16 92 16 58 33 c 5,3,-1
 89 103 l 5,4,5
 119 89 119 89 155.5 77 c 132,-1,6
 192 65 192 65 233 65 c 4,7,8
 290 65 290 65 320 94.5 c 132,-1,9
 350 124 350 124 350 190 c 6,10,-1
 350 329 l 5,11,-1
 146 329 l 5,12,-1
 146 395 l 5,13,-1
 350 395 l 5,14,-1
 350 499 l 6,15,16
 350 539 350 539 359.5 565.5 c 132,-1,17
 369 592 369 592 384.5 608 c 132,-1,18
 400 624 400 624 418 635 c 5,19,-1
 34 635 l 5,20,-1
 34 715 l 5,21,-1
 537 715 l 5,22,-1
 537 641 l 5,23,24
 508 634 508 634 486 617.5 c 132,-1,25
 464 601 464 601 451 572.5 c 132,-1,26
 438 544 438 544 438 500 c 6,27,-1
 438 395 l 5,28,-1
 534 395 l 5,29,-1
 534 329 l 5,30,-1
 438 329 l 5,31,-1
 438 181 l 6,32,33
 438 121 438 121 413 79 c 132,-1,34
 388 37 388 37 342 14.5 c 132,-1,35
 296 -8 296 -8 235 -8 c 4,0,1
EndSplineSet
EndChar

StartChar: Aogonek
Encoding: 260 260 50
Width: 508
Flags: W
LayerCount: 2
Fore
SplineSet
272 578 m 4,0,1
 223 578 223 578 193 606 c 132,-1,2
 163 634 163 634 163 684 c 260,3,4
 163 734 163 734 193 761.5 c 132,-1,5
 223 789 223 789 272 789 c 4,6,7
 319 789 319 789 351 761.5 c 132,-1,8
 383 734 383 734 383 685 c 4,9,10
 383 634 383 634 351.5 606 c 132,-1,11
 320 578 320 578 272 578 c 4,0,1
272 628 m 4,12,13
 297 628 297 628 312.5 643 c 132,-1,14
 328 658 328 658 328 684 c 260,15,16
 328 710 328 710 312 725 c 132,-1,17
 296 740 296 740 272 740 c 260,18,19
 248 740 248 740 232 725 c 132,-1,20
 216 710 216 710 216 684 c 260,21,22
 216 658 216 658 230.5 643 c 132,-1,23
 245 628 245 628 272 628 c 4,12,13
203 0 m 1,24,-1
 0 536 l 1,25,-1
 94 536 l 1,26,-1
 208 220 l 2,27,28
 216 198 216 198 225 171 c 128,-1,29
 234 144 234 144 241 119.5 c 128,-1,30
 248 95 248 95 251 78 c 1,31,-1
 255 78 l 1,32,33
 259 95 259 95 266.5 120 c 128,-1,34
 274 145 274 145 283.5 172 c 128,-1,35
 293 199 293 199 300 220 c 2,36,-1
 414 536 l 1,37,-1
 508 536 l 1,38,-1
 304 0 l 1,39,-1
 203 0 l 1,24,-1
EndSplineSet
Ligature2: "'ccmp' Glyph Composition/Decomposition in Telugu2 lookup 98 subtable" A uni0328
EndChar

StartChar: Aring
Encoding: 197 197 51
Width: 561
Flags: W
LayerCount: 2
Fore
SplineSet
288 545 m 0,0,1
 386 545 386 545 433 502 c 128,-1,2
 480 459 480 459 480 365 c 2,3,-1
 480 0 l 1,4,-1
 416 0 l 1,5,-1
 399 76 l 1,6,-1
 395 76 l 1,7,8
 372 47 372 47 347.5 27.5 c 128,-1,9
 323 8 323 8 291.5 -1 c 128,-1,10
 260 -10 260 -10 215 -10 c 0,11,12
 167 -10 167 -10 128.5 7 c 128,-1,13
 90 24 90 24 68 59.5 c 128,-1,14
 46 95 46 95 46 149 c 0,15,16
 46 229 46 229 109 272.5 c 128,-1,17
 172 316 172 316 303 320 c 2,18,-1
 394 323 l 1,19,-1
 394 355 l 2,20,21
 394 422 394 422 365 448 c 128,-1,22
 336 474 336 474 283 474 c 0,23,24
 241 474 241 474 203 461.5 c 128,-1,25
 165 449 165 449 132 433 c 1,26,-1
 105 499 l 1,27,28
 140 518 140 518 188 531.5 c 128,-1,29
 236 545 236 545 288 545 c 0,0,1
314 259 m 2,30,31
 214 255 214 255 175.5 227 c 128,-1,32
 137 199 137 199 137 148 c 0,33,34
 137 103 137 103 164.5 82 c 128,-1,35
 192 61 192 61 235 61 c 0,36,37
 303 61 303 61 348 98.5 c 128,-1,38
 393 136 393 136 393 214 c 2,39,-1
 393 262 l 1,40,-1
 314 259 l 2,30,31
EndSplineSet
EndChar

StartChar: Atilde
Encoding: 195 195 52
Width: 479
Flags: W
LayerCount: 2
Fore
SplineSet
434 148 m 0,0,1
 434 96 434 96 408 61 c 128,-1,2
 382 26 382 26 334 8 c 128,-1,3
 286 -10 286 -10 220 -10 c 0,4,5
 164 -10 164 -10 123.5 -1 c 128,-1,6
 83 8 83 8 52 24 c 1,7,-1
 52 104 l 1,8,9
 84 88 84 88 129.5 74.5 c 128,-1,10
 175 61 175 61 222 61 c 0,11,12
 289 61 289 61 319 82.5 c 128,-1,13
 349 104 349 104 349 140 c 0,14,15
 349 160 349 160 338 176 c 128,-1,16
 327 192 327 192 298.5 208 c 128,-1,17
 270 224 270 224 217 244 c 0,18,19
 165 264 165 264 128 284 c 128,-1,20
 91 304 91 304 71 332 c 128,-1,21
 51 360 51 360 51 404 c 0,22,23
 51 472 51 472 106.5 509 c 128,-1,24
 162 546 162 546 252 546 c 0,25,26
 301 546 301 546 343.5 536.5 c 128,-1,27
 386 527 386 527 423 510 c 1,28,-1
 393 440 l 1,29,30
 359 454 359 454 322 464 c 128,-1,31
 285 474 285 474 246 474 c 0,32,33
 192 474 192 474 163.5 456.5 c 128,-1,34
 135 439 135 439 135 409 c 0,35,36
 135 387 135 387 148 371.5 c 128,-1,37
 161 356 161 356 191.5 341.5 c 128,-1,38
 222 327 222 327 273 307 c 0,39,40
 324 288 324 288 360 268 c 128,-1,41
 396 248 396 248 415 219.5 c 128,-1,42
 434 191 434 191 434 148 c 0,0,1
EndSplineSet
EndChar

StartChar: AE
Encoding: 198 198 53
Width: 615
Flags: W
LayerCount: 2
Fore
SplineSet
173 575 m 2,0,1
 173 541 173 541 171.5 511.5 c 128,-1,2
 170 482 170 482 168 465 c 1,3,-1
 173 465 l 1,4,5
 196 499 196 499 236 522 c 128,-1,6
 276 545 276 545 339 545 c 0,7,8
 439 545 439 545 499.5 475.5 c 128,-1,9
 560 406 560 406 560 268 c 0,10,11
 560 176 560 176 532.5 114 c 128,-1,12
 505 52 505 52 455 21 c 128,-1,13
 405 -10 405 -10 339 -10 c 0,14,15
 276 -10 276 -10 236 13 c 128,-1,16
 196 36 196 36 173 68 c 1,17,-1
 166 68 l 1,18,-1
 148 0 l 1,19,-1
 85 0 l 1,20,-1
 85 760 l 1,21,-1
 173 760 l 1,22,-1
 173 575 l 2,0,1
324 472 m 0,23,24
 267 472 267 472 234 450.5 c 128,-1,25
 201 429 201 429 187 384.5 c 128,-1,26
 173 340 173 340 173 271 c 2,27,-1
 173 267 l 2,28,29
 173 168 173 168 205.5 115.5 c 128,-1,30
 238 63 238 63 326 63 c 0,31,32
 398 63 398 63 433.5 116 c 128,-1,33
 469 169 469 169 469 269 c 0,34,35
 469 370 469 370 433.5 421 c 128,-1,36
 398 472 398 472 324 472 c 0,23,24
EndSplineSet
EndChar

StartChar: B
Encoding: 66 66 54
Width: 650
Flags: W
LayerCount: 2
Fore
SplineSet
301 714 m 2,0,1
 435 714 435 714 503.5 674.5 c 128,-1,2
 572 635 572 635 572 537 c 0,3,4
 572 495 572 495 556.5 462.5 c 128,-1,5
 541 430 541 430 510.5 408.5 c 128,-1,6
 480 387 480 387 436 379 c 1,7,-1
 436 374 l 1,8,9
 481 367 481 367 517.5 348 c 128,-1,10
 554 329 554 329 575 294 c 128,-1,11
 596 259 596 259 596 203 c 0,12,13
 596 138 596 138 566 92.5 c 128,-1,14
 536 47 536 47 480.5 23.5 c 128,-1,15
 425 0 425 0 348 0 c 2,16,-1
 97 0 l 1,17,-1
 97 714 l 1,18,-1
 301 714 l 2,0,1
319 410 m 2,19,20
 411 410 411 410 445 439.5 c 128,-1,21
 479 469 479 469 479 527 c 0,22,23
 479 586 479 586 437.5 611.5 c 128,-1,24
 396 637 396 637 305 637 c 2,25,-1
 187 637 l 1,26,-1
 187 410 l 1,27,-1
 319 410 l 2,19,20
187 335 m 1,28,-1
 187 76 l 1,29,-1
 331 76 l 2,30,31
 426 76 426 76 463 113 c 128,-1,32
 500 150 500 150 500 210 c 0,33,34
 500 248 500 248 483.5 276 c 128,-1,35
 467 304 467 304 428.5 319.5 c 128,-1,36
 390 335 390 335 324 335 c 2,37,-1
 187 335 l 1,28,-1
EndSplineSet
EndChar

StartChar: C
Encoding: 67 67 55
Width: 632
Flags: W
LayerCount: 2
Fore
SplineSet
403 645 m 0,0,1
 346 645 346 645 300 625.5 c 128,-1,2
 254 606 254 606 222 568.5 c 128,-1,3
 190 531 190 531 173 477.5 c 128,-1,4
 156 424 156 424 156 357 c 0,5,6
 156 269 156 269 183.5 204 c 128,-1,7
 211 139 211 139 265.5 104 c 128,-1,8
 320 69 320 69 402 69 c 0,9,10
 449 69 449 69 491 77 c 128,-1,11
 533 85 533 85 573 97 c 1,12,-1
 573 19 l 1,13,14
 533 4 533 4 490.5 -3 c 128,-1,15
 448 -10 448 -10 389 -10 c 0,16,17
 280 -10 280 -10 207 35 c 128,-1,18
 134 80 134 80 97.5 163 c 128,-1,19
 61 246 61 246 61 358 c 0,20,21
 61 439 61 439 83.5 506 c 128,-1,22
 106 573 106 573 149.5 622 c 128,-1,23
 193 671 193 671 257 697.5 c 128,-1,24
 321 724 321 724 404 724 c 0,25,26
 459 724 459 724 510 713 c 128,-1,27
 561 702 561 702 601 682 c 1,28,-1
 565 606 l 1,29,30
 532 621 532 621 491.5 633 c 128,-1,31
 451 645 451 645 403 645 c 0,0,1
EndSplineSet
EndChar

StartChar: Cacute
Encoding: 262 262 56
Width: 561
Flags: W
LayerCount: 2
Fore
SplineSet
340 711 m 4,0,1
 439 711 439 711 499.5 642 c 132,-1,2
 560 573 560 573 560 434 c 4,3,4
 560 343 560 343 532.5 280.5 c 132,-1,5
 505 218 505 218 455.5 186.5 c 132,-1,6
 406 155 406 155 339 155 c 4,7,8
 298 155 298 155 266 166 c 132,-1,9
 234 177 234 177 211.5 194.5 c 132,-1,10
 189 212 189 212 173 233 c 5,11,-1
 167 233 l 5,12,13
 169 216 169 216 171 190 c 132,-1,14
 173 164 173 164 173 145 c 6,15,-1
 173 -25 l 5,16,-1
 85 -25 l 5,17,-1
 85 701 l 5,18,-1
 157 701 l 5,19,-1
 169 628 l 5,20,-1
 173 628 l 5,21,22
 189 651 189 651 211.5 670 c 132,-1,23
 234 689 234 689 265.5 700 c 132,-1,24
 297 711 297 711 340 711 c 4,0,1
324 637 m 4,25,26
 270 637 270 637 237 616.5 c 132,-1,27
 204 596 204 596 189 555 c 132,-1,28
 174 514 174 514 173 451 c 6,29,-1
 173 434 l 6,30,31
 173 368 173 368 187 322 c 132,-1,32
 201 276 201 276 234.5 252 c 132,-1,33
 268 228 268 228 326 228 c 4,34,35
 375 228 375 228 406.5 255 c 132,-1,36
 438 282 438 282 453.5 328.5 c 132,-1,37
 469 375 469 375 469 435 c 4,38,39
 469 527 469 527 433.5 582 c 132,-1,40
 398 637 398 637 324 637 c 4,25,26
EndSplineSet
EndChar

StartChar: Ccaron
Encoding: 268 268 57
Width: 572
Flags: W
LayerCount: 2
Fore
SplineSet
523 326 m 0,0,1
 523 247 523 247 509.5 184.5 c 128,-1,2
 496 122 496 122 467 78.5 c 128,-1,3
 438 35 438 35 393 12.5 c 128,-1,4
 348 -10 348 -10 285 -10 c 0,5,6
 205 -10 205 -10 152.5 30 c 128,-1,7
 100 70 100 70 74.5 145.5 c 128,-1,8
 49 221 49 221 49 326 c 0,9,10
 49 432 49 432 73 506.5 c 128,-1,11
 97 581 97 581 149.5 621 c 128,-1,12
 202 661 202 661 285 661 c 0,13,14
 365 661 365 661 418 621.5 c 128,-1,15
 471 582 471 582 497 507 c 128,-1,16
 523 432 523 432 523 326 c 0,0,1
135 326 m 256,17,18
 135 239 135 239 149.5 181 c 128,-1,19
 164 123 164 123 197 94 c 128,-1,20
 230 65 230 65 285 65 c 256,21,22
 340 65 340 65 373 93.5 c 128,-1,23
 406 122 406 122 421 180 c 128,-1,24
 436 238 436 238 436 326 c 0,25,26
 436 413 436 413 421 471 c 128,-1,27
 406 529 406 529 373 557.5 c 128,-1,28
 340 586 340 586 285 586 c 256,29,30
 230 586 230 586 197 557.5 c 128,-1,31
 164 529 164 529 149.5 471 c 128,-1,32
 135 413 135 413 135 326 c 256,17,18
EndSplineSet
EndChar

StartChar: Ccedilla
Encoding: 199 199 58
Width: 480
Flags: W
LayerCount: 2
Fore
SplineSet
300 -10 m 0,0,1
 229 -10 229 -10 173.5 19 c 128,-1,2
 118 48 118 48 86.5 109 c 128,-1,3
 55 170 55 170 55 265 c 0,4,5
 55 364 55 364 88 426 c 128,-1,6
 121 488 121 488 177.5 517 c 128,-1,7
 234 546 234 546 306 546 c 0,8,9
 347 546 347 546 385 537.5 c 128,-1,10
 423 529 423 529 447 517 c 1,11,-1
 420 444 l 1,12,13
 396 453 396 453 364 461 c 128,-1,14
 332 469 332 469 304 469 c 0,15,16
 250 469 250 469 215 446 c 128,-1,17
 180 423 180 423 163 378 c 128,-1,18
 146 333 146 333 146 266 c 0,19,20
 146 202 146 202 163 157 c 128,-1,21
 180 112 180 112 214 89 c 128,-1,22
 248 66 248 66 299 66 c 0,23,24
 343 66 343 66 376.5 75 c 128,-1,25
 410 84 410 84 438 97 c 1,26,-1
 438 19 l 1,27,28
 411 5 411 5 378.5 -2.5 c 128,-1,29
 346 -10 346 -10 300 -10 c 0,0,1
EndSplineSet
EndChar

StartChar: Cdotaccent
Encoding: 266 266 59
Width: 510
Flags: W
LayerCount: 2
Fore
SplineSet
1 651 m 5,0,-1
 95 651 l 5,1,-1
 211 387 l 6,2,3
 215 377 215 377 229.5 335 c 4,4,5
 238 310 238 310 245 286.5 c 132,-1,6
 252 263 252 263 256 241 c 5,7,-1
 260 241 l 5,8,9
 266 266 266 266 279 306.5 c 4,10,11
 306 387 306 387 306 388 c 6,12,-1
 415 651 l 5,13,-1
 510 651 l 5,14,-1
 279 82 l 6,15,16
 256 25 256 25 234.5 -5.5 c 4,17,18
 209 -43 209 -43 172.5 -63.5 c 132,-1,19
 136 -84 136 -84 84 -84 c 4,20,21
 60 -84 60 -84 42 -81.5 c 132,-1,22
 24 -79 24 -79 11 -76 c 5,23,-1
 11 -6 l 5,24,25
 22 -8 22 -8 37.5 -10 c 132,-1,26
 53 -12 53 -12 70 -12 c 4,27,28
 101 -12 101 -12 123.5 -0.5 c 132,-1,29
 146 11 146 11 162 32.5 c 4,30,31
 178.836914062 57.2294921875 178.836914062 57.2294921875 189 83 c 6,32,-1
 217 154 l 5,33,-1
 1 651 l 5,0,-1
EndSplineSet
EndChar

StartChar: D
Encoding: 68 68 60
Width: 706
Flags: W
AnchorPoint: "Anchor-1" 706 -24 basechar 0
AnchorPoint: "Anchor-0" 353 -24 basechar 0
LayerCount: 2
Fore
SplineSet
323 425 m 0,0,1
 294 425 294 425 267.5 436 c 128,-1,2
 241 447 241 447 219 477.5 c 128,-1,3
 197 508 197 508 181 564 c 1,4,-1
 264 591 l 1,5,6
 279 536 279 536 293 518 c 128,-1,7
 307 500 307 500 329 500 c 0,8,9
 349 500 349 500 366.5 512.5 c 128,-1,10
 384 525 384 525 416 565 c 2,11,-1
 447 605 l 2,12,13
 481 649 481 649 509.5 675 c 128,-1,14
 538 701 538 701 570 713 c 128,-1,15
 602 725 602 725 646 725 c 1,16,-1
 652 648 l 1,17,18
 617 646 617 646 593.5 637 c 128,-1,19
 570 628 570 628 550.5 608.5 c 128,-1,20
 531 589 531 589 505 556 c 2,21,-1
 482 526 l 2,22,23
 454 490 454 490 429 468 c 128,-1,24
 404 446 404 446 378.5 435.5 c 128,-1,25
 353 425 353 425 323 425 c 0,0,1
504 -12 m 0,26,27
 467 -12 467 -12 438 -2 c 128,-1,28
 409 8 409 8 386.5 30.5 c 128,-1,29
 364 53 364 53 343 90 c 1,30,-1
 362 92 l 1,31,32
 341 49 341 49 315 26.5 c 128,-1,33
 289 4 289 4 260 -4 c 128,-1,34
 231 -12 231 -12 198 -12 c 0,35,36
 125 -12 125 -12 80 44 c 128,-1,37
 35 100 35 100 35 200 c 0,38,39
 35 289 35 289 74 356.5 c 128,-1,40
 113 424 113 424 185 462 c 128,-1,41
 257 500 257 500 357 500 c 256,42,43
 457 500 457 500 527 461.5 c 128,-1,44
 597 423 597 423 634 355.5 c 128,-1,45
 671 288 671 288 671 200 c 0,46,47
 671 132 671 132 650.5 84.5 c 128,-1,48
 630 37 630 37 592.5 12.5 c 128,-1,49
 555 -12 555 -12 504 -12 c 0,26,27
496 67 m 0,50,51
 538 67 538 67 563 98 c 128,-1,52
 588 129 588 129 588 202 c 0,53,54
 588 267 588 267 563.5 317 c 128,-1,55
 539 367 539 367 489.5 396 c 128,-1,56
 440 425 440 425 364 425 c 2,57,-1
 349 425 l 2,58,59
 274 425 274 425 222.5 397.5 c 128,-1,60
 171 370 171 370 144.5 320.5 c 128,-1,61
 118 271 118 271 118 205 c 0,62,63
 118 130 118 130 142.5 98.5 c 128,-1,64
 167 67 167 67 210 67 c 0,65,66
 255 67 255 67 282.5 99.5 c 128,-1,67
 310 132 310 132 314 185 c 1,68,-1
 392 185 l 1,69,70
 396 124 396 124 427.5 95.5 c 128,-1,71
 459 67 459 67 496 67 c 0,50,51
EndSplineSet
EndChar

StartChar: Dcaron
Encoding: 270 270 61
Width: 572
Flags: W
LayerCount: 2
Fore
SplineSet
520 0 m 1,0,-1
 48 0 l 1,1,-1
 48 73 l 1,2,-1
 235 242 l 2,3,4
 291 293 291 293 328.5 330.5 c 128,-1,5
 366 368 366 368 384.5 403 c 128,-1,6
 403 438 403 438 403 479 c 0,7,8
 403 514 403 514 387.5 537.5 c 128,-1,9
 372 561 372 561 343 573.5 c 128,-1,10
 314 586 314 586 275 586 c 0,11,12
 223 586 223 586 183.5 568 c 128,-1,13
 144 550 144 550 103 518 c 1,14,-1
 56 577 l 1,15,16
 84 601 84 601 117.5 620 c 128,-1,17
 151 639 151 639 190.5 650 c 128,-1,18
 230 661 230 661 275 661 c 0,19,20
 342 661 342 661 390 640.5 c 128,-1,21
 438 620 438 620 464.5 581.5 c 128,-1,22
 491 543 491 543 491 490 c 0,23,24
 491 438 491 438 470.5 394 c 128,-1,25
 450 350 450 350 411.5 307.5 c 128,-1,26
 373 265 373 265 318 216 c 2,27,-1
 169 84 l 1,28,-1
 169 80 l 1,29,-1
 520 80 l 1,30,-1
 520 0 l 1,0,-1
EndSplineSet
EndChar

StartChar: Dcroat
Encoding: 272 272 62
Width: 572
Flags: W
LayerCount: 2
Fore
SplineSet
552 146 m 1,0,-1
 446 146 l 1,1,-1
 446 0 l 1,2,-1
 363 0 l 1,3,-1
 363 146 l 1,4,-1
 21 146 l 1,5,-1
 21 220 l 1,6,-1
 357 655 l 1,7,-1
 446 655 l 1,8,-1
 446 220 l 1,9,-1
 552 220 l 1,10,-1
 552 146 l 1,0,-1
363 225 m 1,11,-1
 363 422 l 2,12,13
 363 453 363 453 363.5 477 c 128,-1,14
 364 501 364 501 365.5 521.5 c 128,-1,15
 367 542 367 542 368 561 c 1,16,-1
 364 561 l 1,17,18
 355 545 355 545 341 523.5 c 128,-1,19
 327 502 327 502 310 479 c 2,20,-1
 110 225 l 1,21,-1
 363 225 l 1,11,-1
EndSplineSet
EndChar

StartChar: E
Encoding: 69 69 63
Width: 556
Flags: W
LayerCount: 2
Fore
SplineSet
496 0 m 1,0,-1
 97 0 l 1,1,-1
 97 714 l 1,2,-1
 496 714 l 1,3,-1
 496 635 l 1,4,-1
 187 635 l 1,5,-1
 187 412 l 1,6,-1
 478 412 l 1,7,-1
 478 334 l 1,8,-1
 187 334 l 1,9,-1
 187 79 l 1,10,-1
 496 79 l 1,11,-1
 496 0 l 1,0,-1
EndSplineSet
EndChar

StartChar: Eacute
Encoding: 201 201 64
Width: 564
Flags: W
LayerCount: 2
Fore
SplineSet
292 546 m 0,0,1
 361 546 361 546 410.5 516 c 128,-1,2
 460 486 460 486 486.5 431.5 c 128,-1,3
 513 377 513 377 513 304 c 2,4,-1
 513 251 l 1,5,-1
 146 251 l 1,6,7
 148 160 148 160 192.5 112.5 c 128,-1,8
 237 65 237 65 317 65 c 0,9,10
 368 65 368 65 407.5 74.5 c 128,-1,11
 447 84 447 84 489 102 c 1,12,-1
 489 25 l 1,13,14
 448 7 448 7 408 -1.5 c 128,-1,15
 368 -10 368 -10 313 -10 c 0,16,17
 237 -10 237 -10 178.5 21 c 128,-1,18
 120 52 120 52 87.5 113.5 c 128,-1,19
 55 175 55 175 55 264 c 0,20,21
 55 352 55 352 84.5 415 c 128,-1,22
 114 478 114 478 167.5 512 c 128,-1,23
 221 546 221 546 292 546 c 0,0,1
291 474 m 0,24,25
 228 474 228 474 191.5 433.5 c 128,-1,26
 155 393 155 393 148 321 c 1,27,-1
 421 321 l 1,28,29
 421 367 421 367 407 401 c 128,-1,30
 393 435 393 435 364.5 454.5 c 128,-1,31
 336 474 336 474 291 474 c 0,24,25
EndSplineSet
EndChar

StartChar: Ecircumflex
Encoding: 202 202 65
Width: 344
Flags: W
LayerCount: 2
Fore
SplineSet
332 468 m 1,0,-1
 197 468 l 1,1,-1
 197 0 l 1,2,-1
 109 0 l 1,3,-1
 109 468 l 1,4,-1
 15 468 l 1,5,-1
 15 509 l 1,6,-1
 109 539 l 1,7,-1
 109 570 l 2,8,9
 109 639 109 639 129.5 682 c 128,-1,10
 150 725 150 725 189 745 c 128,-1,11
 228 765 228 765 283 765 c 0,12,13
 315 765 315 765 341.5 759.5 c 128,-1,14
 368 754 368 754 387 747 c 1,15,-1
 364 678 l 1,16,17
 348 683 348 683 327 688 c 128,-1,18
 306 693 306 693 284 693 c 0,19,20
 240 693 240 693 218.5 663.5 c 128,-1,21
 197 634 197 634 197 571 c 2,22,-1
 197 536 l 1,23,-1
 332 536 l 1,24,-1
 332 468 l 1,0,-1
EndSplineSet
EndChar

StartChar: Edieresis
Encoding: 203 203 66
Width: 615
Flags: W
LayerCount: 2
Fore
SplineSet
275 546 m 0,0,1
 328 546 328 546 370.5 526 c 128,-1,2
 413 506 413 506 443 465 c 1,3,-1
 448 465 l 1,4,-1
 460 536 l 1,5,-1
 530 536 l 1,6,-1
 530 -9 l 2,7,8
 530 -85 530 -85 504 -136.5 c 128,-1,9
 478 -188 478 -188 425 -214 c 128,-1,10
 372 -240 372 -240 290 -240 c 0,11,12
 232 -240 232 -240 183.5 -231.5 c 128,-1,13
 135 -223 135 -223 97 -206 c 1,14,-1
 97 -125 l 1,15,16
 135 -145 135 -145 186 -156 c 128,-1,17
 237 -167 237 -167 295 -167 c 0,18,19
 364 -167 364 -167 403.5 -126.5 c 128,-1,20
 443 -86 443 -86 443 -16 c 2,21,-1
 443 5 l 2,22,23
 443 17 443 17 444 39.5 c 128,-1,24
 445 62 445 62 446 71 c 1,25,-1
 442 71 l 1,26,27
 414 30 414 30 372.5 10 c 128,-1,28
 331 -10 331 -10 276 -10 c 0,29,30
 172 -10 172 -10 113.5 63 c 128,-1,31
 55 136 55 136 55 267 c 0,32,33
 55 395 55 395 113.5 470.5 c 128,-1,34
 172 546 172 546 275 546 c 0,0,1
287 472 m 0,35,36
 242 472 242 472 210.5 448 c 128,-1,37
 179 424 179 424 162.5 378 c 128,-1,38
 146 332 146 332 146 266 c 0,39,40
 146 167 146 167 182.5 114.5 c 128,-1,41
 219 62 219 62 289 62 c 0,42,43
 330 62 330 62 359 72.5 c 128,-1,44
 388 83 388 83 407 105.5 c 128,-1,45
 426 128 426 128 435 163 c 128,-1,46
 444 198 444 198 444 246 c 2,47,-1
 444 267 l 2,48,49
 444 340 444 340 427.5 385 c 128,-1,50
 411 430 411 430 376 451 c 128,-1,51
 341 472 341 472 287 472 c 0,35,36
EndSplineSet
EndChar

StartChar: Edotaccent
Encoding: 278 278 67
Width: 572
Flags: W
LayerCount: 2
Fore
SplineSet
284 0 m 1,0,-1
 72 277 l 1,1,-1
 82 350 l 1,2,-1
 118 350 l 2,3,4
 169 350 169 350 196.5 360 c 128,-1,5
 224 370 224 370 240 390 c 0,6,7
 253 406 253 406 261 431.5 c 128,-1,8
 269 457 269 457 269 498 c 0,9,10
 269 545 269 545 259.5 573 c 128,-1,11
 250 601 250 601 233 618 c 0,12,13
 217 635 217 635 195.5 641.5 c 128,-1,14
 174 648 174 648 136 648 c 2,15,-1
 72 648 l 1,16,-1
 72 714 l 1,17,-1
 513 714 l 1,18,-1
 513 648 l 1,19,-1
 305 648 l 1,20,21
 331 623 331 623 345 586.5 c 128,-1,22
 359 550 359 550 359 497 c 0,23,24
 359 434 359 434 337.5 389 c 128,-1,25
 316 344 316 344 274.5 317 c 128,-1,26
 233 290 233 290 171 280 c 1,27,-1
 167 290 l 1,28,-1
 393 0 l 1,29,-1
 284 0 l 1,0,-1
72 471 m 1,30,-1
 72 537 l 1,31,-1
 513 537 l 1,32,-1
 513 471 l 1,33,-1
 72 471 l 1,30,-1
EndSplineSet
EndChar

StartChar: Egrave
Encoding: 200 200 68
Width: 615
Flags: W
LayerCount: 2
Fore
SplineSet
275 -10 m 0,0,1
 175 -10 175 -10 115 59.5 c 128,-1,2
 55 129 55 129 55 267 c 256,3,4
 55 405 55 405 115.5 475.5 c 128,-1,5
 176 546 176 546 276 546 c 0,6,7
 318 546 318 546 349 535.5 c 128,-1,8
 380 525 380 525 403 507 c 128,-1,9
 426 489 426 489 442 467 c 1,10,-1
 448 467 l 1,11,12
 447 480 447 480 444.5 505.5 c 128,-1,13
 442 531 442 531 442 546 c 2,14,-1
 442 760 l 1,15,-1
 530 760 l 1,16,-1
 530 0 l 1,17,-1
 459 0 l 1,18,-1
 446 72 l 1,19,-1
 442 72 l 1,20,21
 426 49 426 49 403 30.5 c 128,-1,22
 380 12 380 12 348.5 1 c 128,-1,23
 317 -10 317 -10 275 -10 c 0,0,1
289 63 m 0,24,25
 374 63 374 63 408.5 109.5 c 128,-1,26
 443 156 443 156 443 250 c 2,27,-1
 443 266 l 2,28,29
 443 366 443 366 410 419.5 c 128,-1,30
 377 473 377 473 288 473 c 0,31,32
 217 473 217 473 181.5 416.5 c 128,-1,33
 146 360 146 360 146 265 c 0,34,35
 146 169 146 169 181.5 116 c 128,-1,36
 217 63 217 63 289 63 c 0,24,25
EndSplineSet
EndChar

StartChar: Emacron
Encoding: 274 274 69
Width: 572
Flags: W
LayerCount: 2
Fore
SplineSet
55 278 m 0,0,1
 55 348 55 348 68.5 416 c 128,-1,2
 82 484 82 484 117.5 539.5 c 128,-1,3
 153 595 153 595 217 628 c 128,-1,4
 281 661 281 661 382 661 c 0,5,6
 403 661 403 661 428.5 659 c 128,-1,7
 454 657 454 657 470 652 c 1,8,-1
 470 577 l 1,9,10
 452 583 452 583 429.5 586 c 128,-1,11
 407 589 407 589 384 589 c 0,12,13
 314 589 314 589 268 568.5 c 128,-1,14
 222 548 222 548 195.5 512 c 128,-1,15
 169 476 169 476 156.5 428.5 c 128,-1,16
 144 381 144 381 142 328 c 1,17,-1
 146 328 l 1,18,19
 160 350 160 350 182.5 369.5 c 128,-1,20
 205 389 205 389 238 401 c 128,-1,21
 271 413 271 413 317 413 c 0,22,23
 379 413 379 413 426 389.5 c 128,-1,24
 473 366 473 366 499 321 c 128,-1,25
 525 276 525 276 525 212 c 0,26,27
 525 143 525 143 497 93 c 128,-1,28
 469 43 469 43 418.5 16.5 c 128,-1,29
 368 -10 368 -10 298 -10 c 0,30,31
 247 -10 247 -10 203 7.5 c 128,-1,32
 159 25 159 25 125.5 60.5 c 128,-1,33
 92 96 92 96 73.5 150.5 c 128,-1,34
 55 205 55 205 55 278 c 0,0,1
297 64 m 0,35,36
 361 64 361 64 400.5 100 c 128,-1,37
 440 136 440 136 440 212 c 0,38,39
 440 273 440 273 405.5 308.5 c 128,-1,40
 371 344 371 344 300 344 c 0,41,42
 252 344 252 344 216.5 326.5 c 128,-1,43
 181 309 181 309 161.5 282 c 128,-1,44
 142 255 142 255 142 227 c 0,45,46
 142 198 142 198 151.5 169 c 128,-1,47
 161 140 161 140 180.5 116.5 c 128,-1,48
 200 93 200 93 229 78.5 c 128,-1,49
 258 64 258 64 297 64 c 0,35,36
EndSplineSet
EndChar

StartChar: F
Encoding: 70 70 70
Width: 519
Flags: W
LayerCount: 2
Fore
SplineSet
187 0 m 1,0,-1
 97 0 l 1,1,-1
 97 714 l 1,2,-1
 496 714 l 1,3,-1
 496 635 l 1,4,-1
 187 635 l 1,5,-1
 187 382 l 1,6,-1
 477 382 l 1,7,-1
 477 303 l 1,8,-1
 187 303 l 1,9,-1
 187 0 l 1,0,-1
EndSplineSet
EndChar

StartChar: G
Encoding: 71 71 71
Width: 728
Flags: W
LayerCount: 2
Fore
SplineSet
407 377 m 1,0,-1
 654 377 l 1,1,-1
 654 27 l 1,2,3
 596 8 596 8 537 -1 c 128,-1,4
 478 -10 478 -10 403 -10 c 0,5,6
 292 -10 292 -10 216 34.5 c 128,-1,7
 140 79 140 79 100.5 161.5 c 128,-1,8
 61 244 61 244 61 357 c 0,9,10
 61 469 61 469 105 551 c 128,-1,11
 149 633 149 633 231.5 678.5 c 128,-1,12
 314 724 314 724 431 724 c 0,13,14
 491 724 491 724 544.5 713 c 128,-1,15
 598 702 598 702 644 682 c 1,16,-1
 610 604 l 1,17,18
 572 621 572 621 524.5 633 c 128,-1,19
 477 645 477 645 426 645 c 0,20,21
 341 645 341 645 280 610 c 128,-1,22
 219 575 219 575 187 510.5 c 128,-1,23
 155 446 155 446 155 357 c 0,24,25
 155 272 155 272 182.5 206.5 c 128,-1,26
 210 141 210 141 269 104.5 c 128,-1,27
 328 68 328 68 424 68 c 0,28,29
 471 68 471 68 504 73 c 128,-1,30
 537 78 537 78 564 85 c 1,31,-1
 564 297 l 1,32,-1
 407 297 l 1,33,-1
 407 377 l 1,0,-1
EndSplineSet
EndChar

StartChar: H
Encoding: 72 72 72
Width: 1033
Flags: W
AnchorPoint: "Anchor-1" 1033 -24 basechar 0
AnchorPoint: "Anchor-0" 497 -24 basechar 0
LayerCount: 2
Fore
SplineSet
197 425 m 0,0,1
 168 425 168 425 141.5 436 c 128,-1,2
 115 447 115 447 93 477.5 c 128,-1,3
 71 508 71 508 55 564 c 1,4,-1
 138 591 l 1,5,6
 153 536 153 536 167 518 c 128,-1,7
 181 500 181 500 203 500 c 0,8,9
 223 500 223 500 240.5 512.5 c 128,-1,10
 258 525 258 525 290 565 c 2,11,-1
 321 605 l 2,12,13
 355 649 355 649 383.5 675 c 128,-1,14
 412 701 412 701 444 713 c 128,-1,15
 476 725 476 725 520 725 c 1,16,-1
 526 648 l 1,17,18
 491 646 491 646 467.5 637 c 128,-1,19
 444 628 444 628 424.5 608.5 c 128,-1,20
 405 589 405 589 379 556 c 2,21,-1
 356 526 l 2,22,23
 328 490 328 490 303 468 c 128,-1,24
 278 446 278 446 252.5 435.5 c 128,-1,25
 227 425 227 425 197 425 c 0,0,1
485 -12 m 0,26,27
 437 -12 437 -12 401.5 6 c 128,-1,28
 366 24 366 24 336 56 c 128,-1,29
 306 88 306 88 273 131 c 0,30,31
 244 171 244 171 223 189 c 128,-1,32
 202 207 202 207 172 207 c 0,33,34
 144 207 144 207 125.5 189 c 128,-1,35
 107 171 107 171 107 136 c 0,36,37
 107 105 107 105 126.5 84 c 128,-1,38
 146 63 146 63 180 63 c 256,39,40
 214 63 214 63 236.5 83 c 128,-1,41
 259 103 259 103 275 141 c 1,42,-1
 328 81 l 1,43,44
 309 54 309 54 288 33 c 128,-1,45
 267 12 267 12 240.5 0 c 128,-1,46
 214 -12 214 -12 175 -12 c 0,47,48
 122 -12 122 -12 90 10 c 128,-1,49
 58 32 58 32 43.5 66.5 c 128,-1,50
 29 101 29 101 29 138 c 0,51,52
 29 182 29 182 48 214 c 128,-1,53
 67 246 67 246 99 264 c 128,-1,54
 131 282 131 282 170 282 c 0,55,56
 206 282 206 282 234 269.5 c 128,-1,57
 262 257 262 257 289 230.5 c 128,-1,58
 316 204 316 204 348 161 c 0,59,60
 375 126 375 126 396 105 c 128,-1,61
 417 84 417 84 439 75.5 c 128,-1,62
 461 67 461 67 490 67 c 0,63,64
 540 67 540 67 566.5 99 c 128,-1,65
 593 131 593 131 593 189 c 0,66,67
 593 244 593 244 569.5 288 c 128,-1,68
 546 332 546 332 506 366.5 c 128,-1,69
 466 401 466 401 418 425 c 1,70,-1
 454 500 l 1,71,72
 464 496 464 496 479 487.5 c 128,-1,73
 494 479 494 479 503 471 c 2,74,-1
 523 446 l 1,75,76
 566 421 566 421 600.5 383 c 128,-1,77
 635 345 635 345 655.5 297 c 128,-1,78
 676 249 676 249 676 193 c 0,79,80
 676 130 676 130 654 84 c 128,-1,81
 632 38 632 38 589.5 13 c 128,-1,82
 547 -12 547 -12 485 -12 c 0,26,27
877 220 m 0,83,84
 840 220 840 220 813.5 231 c 128,-1,85
 787 242 787 242 771 260.5 c 128,-1,86
 755 279 755 279 747.5 301 c 128,-1,87
 740 323 740 323 740 344 c 0,88,89
 740 376 740 376 749.5 399 c 128,-1,90
 759 422 759 422 773 443 c 1,91,-1
 861 450 l 1,92,93
 836 425 836 425 824.5 401.5 c 128,-1,94
 813 378 813 378 813 353 c 0,95,96
 813 323 813 323 830.5 304.5 c 128,-1,97
 848 286 848 286 881 286 c 0,98,99
 916 286 916 286 930.5 304.5 c 128,-1,100
 945 323 945 323 945 350 c 0,101,102
 945 392 945 392 919.5 408.5 c 128,-1,103
 894 425 894 425 848 425 c 2,104,-1
 444 425 l 1,105,-1
 454 500 l 1,106,-1
 806 500 l 2,107,108
 849 500 849 500 879 496.5 c 128,-1,109
 909 493 909 493 931 485 c 128,-1,110
 953 477 953 477 971 462 c 0,111,112
 992 446 992 446 1005 418.5 c 128,-1,113
 1018 391 1018 391 1018 353 c 0,114,115
 1018 290 1018 290 980 255 c 128,-1,116
 942 220 942 220 877 220 c 0,83,84
EndSplineSet
EndChar

StartChar: I
Encoding: 73 73 73
Width: 339
Flags: W
LayerCount: 2
Fore
SplineSet
298 0 m 1,0,-1
 40 0 l 1,1,-1
 40 52 l 1,2,-1
 124 71 l 1,3,-1
 124 642 l 1,4,-1
 40 662 l 1,5,-1
 40 714 l 1,6,-1
 298 714 l 1,7,-1
 298 662 l 1,8,-1
 214 642 l 1,9,-1
 214 71 l 1,10,-1
 298 52 l 1,11,-1
 298 0 l 1,0,-1
EndSplineSet
EndChar

StartChar: Iacute
Encoding: 205 205 74
Width: 258
Flags: W
LayerCount: 2
Fore
SplineSet
173 536 m 1,0,-1
 173 0 l 1,1,-1
 85 0 l 1,2,-1
 85 536 l 1,3,-1
 173 536 l 1,0,-1
130 737 m 0,4,5
 150 737 150 737 165.5 723.5 c 128,-1,6
 181 710 181 710 181 681 c 0,7,8
 181 653 181 653 165.5 639 c 128,-1,9
 150 625 150 625 130 625 c 0,10,11
 108 625 108 625 93 639 c 128,-1,12
 78 653 78 653 78 681 c 0,13,14
 78 710 78 710 93 723.5 c 128,-1,15
 108 737 108 737 130 737 c 0,4,5
EndSplineSet
EndChar

StartChar: Icircumflex
Encoding: 206 206 75
Width: 258
Flags: W
LayerCount: 2
Fore
SplineSet
22 -240 m 0,0,1
 -3 -240 -3 -240 -22 -236.5 c 128,-1,2
 -41 -233 -41 -233 -55 -228 c 1,3,-1
 -55 -157 l 1,4,5
 -40 -161 -40 -161 -24 -164 c 128,-1,6
 -8 -167 -8 -167 11 -167 c 0,7,8
 43 -167 43 -167 64 -149.5 c 128,-1,9
 85 -132 85 -132 85 -83 c 2,10,-1
 85 536 l 1,11,-1
 173 536 l 1,12,-1
 173 -80 l 2,13,14
 173 -130 173 -130 157 -166 c 128,-1,15
 141 -202 141 -202 108 -221 c 128,-1,16
 75 -240 75 -240 22 -240 c 0,0,1
78 681 m 0,17,18
 78 710 78 710 93 723.5 c 128,-1,19
 108 737 108 737 130 737 c 0,20,21
 150 737 150 737 165.5 723.5 c 128,-1,22
 181 710 181 710 181 681 c 0,23,24
 181 653 181 653 165.5 639 c 128,-1,25
 150 625 150 625 130 625 c 0,26,27
 108 625 108 625 93 639 c 128,-1,28
 78 653 78 653 78 681 c 0,17,18
EndSplineSet
EndChar

StartChar: Igrave
Encoding: 204 204 76
Width: 618
Flags: W
LayerCount: 2
Fore
SplineSet
173 537 m 2,0,1
 173 518 173 518 171.5 498 c 128,-1,2
 170 478 170 478 168 462 c 1,3,-1
 174 462 l 1,4,5
 191 490 191 490 217 508 c 128,-1,6
 243 526 243 526 275 535.5 c 128,-1,7
 307 545 307 545 341 545 c 0,8,9
 406 545 406 545 449.5 524.5 c 128,-1,10
 493 504 493 504 515 461 c 128,-1,11
 537 418 537 418 537 349 c 2,12,-1
 537 0 l 1,13,-1
 450 0 l 1,14,-1
 450 343 l 2,15,16
 450 408 450 408 421 440 c 128,-1,17
 392 472 392 472 330 472 c 0,18,19
 270 472 270 472 236 449.5 c 128,-1,20
 202 427 202 427 187.5 383.5 c 128,-1,21
 173 340 173 340 173 277 c 2,22,-1
 173 0 l 1,23,-1
 85 0 l 1,24,-1
 85 760 l 1,25,-1
 173 760 l 1,26,-1
 173 537 l 2,0,1
EndSplineSet
EndChar

StartChar: J
Encoding: 74 74 77
Width: 572
Flags: W
LayerCount: 2
Fore
SplineSet
235 -8 m 4,0,1
 180 -8 180 -8 136 4 c 132,-1,2
 92 16 92 16 58 33 c 5,3,-1
 89 103 l 5,4,5
 119 89 119 89 155.5 77 c 132,-1,6
 192 65 192 65 233 65 c 4,7,8
 290 65 290 65 320 94.5 c 132,-1,9
 350 124 350 124 350 190 c 6,10,-1
 350 329 l 5,11,-1
 146 329 l 5,12,-1
 146 395 l 5,13,-1
 350 395 l 5,14,-1
 350 499 l 6,15,16
 350 539 350 539 359.5 565.5 c 132,-1,17
 369 592 369 592 384.5 608 c 132,-1,18
 400 624 400 624 418 635 c 5,19,-1
 34 635 l 5,20,-1
 34 715 l 5,21,-1
 537 715 l 5,22,-1
 537 641 l 5,23,24
 508 634 508 634 486 617.5 c 132,-1,25
 464 601 464 601 451 572.5 c 132,-1,26
 438 544 438 544 438 500 c 6,27,-1
 438 395 l 5,28,-1
 534 395 l 5,29,-1
 534 329 l 5,30,-1
 438 329 l 5,31,-1
 438 181 l 6,32,33
 438 121 438 121 413 79 c 132,-1,34
 388 37 388 37 342 14.5 c 132,-1,35
 296 -8 296 -8 235 -8 c 4,0,1
EndSplineSet
EndChar

StartChar: K
Encoding: 75 75 78
Width: 619
Flags: W
LayerCount: 2
Fore
SplineSet
619 0 m 1,0,-1
 513 0 l 1,1,-1
 260 341 l 1,2,-1
 187 277 l 1,3,-1
 187 0 l 1,4,-1
 97 0 l 1,5,-1
 97 714 l 1,6,-1
 187 714 l 1,7,-1
 187 362 l 1,8,9
 217 396 217 396 248 430 c 128,-1,10
 279 464 279 464 310 498 c 2,11,-1
 503 714 l 1,12,-1
 608 714 l 1,13,-1
 325 403 l 1,14,-1
 619 0 l 1,0,-1
EndSplineSet
EndChar

StartChar: L
Encoding: 76 76 79
Width: 572
Flags: W
LayerCount: 2
Fore
SplineSet
334 723 m 0,0,1
 389 723 389 723 433 711 c 128,-1,2
 477 699 477 699 511 682 c 1,3,-1
 480 612 l 1,4,5
 450 626 450 626 413.5 638 c 128,-1,6
 377 650 377 650 336 650 c 0,7,8
 279 650 279 650 249 620.5 c 128,-1,9
 219 591 219 591 219 525 c 2,10,-1
 219 386 l 1,11,-1
 423 386 l 1,12,-1
 423 320 l 1,13,-1
 219 320 l 1,14,-1
 219 216 l 2,15,16
 219 176 219 176 209.5 149.5 c 128,-1,17
 200 123 200 123 184.5 107 c 128,-1,18
 169 91 169 91 151 80 c 1,19,-1
 535 80 l 1,20,-1
 535 0 l 1,21,-1
 32 0 l 1,22,-1
 32 74 l 1,23,24
 61 81 61 81 83 97.5 c 128,-1,25
 105 114 105 114 118 142.5 c 128,-1,26
 131 171 131 171 131 215 c 2,27,-1
 131 320 l 1,28,-1
 35 320 l 1,29,-1
 35 386 l 1,30,-1
 131 386 l 1,31,-1
 131 534 l 2,32,33
 131 594 131 594 156 636 c 128,-1,34
 181 678 181 678 227 700.5 c 128,-1,35
 273 723 273 723 334 723 c 0,0,1
EndSplineSet
EndChar

StartChar: M
Encoding: 77 77 80
Width: 907
Flags: W
LayerCount: 2
Fore
SplineSet
412 0 m 1,0,-1
 177 626 l 1,1,-1
 173 626 l 1,2,3
 175 606 175 606 176.5 575 c 128,-1,4
 178 544 178 544 179 507.5 c 128,-1,5
 180 471 180 471 180 433 c 2,6,-1
 180 0 l 1,7,-1
 97 0 l 1,8,-1
 97 714 l 1,9,-1
 230 714 l 1,10,-1
 450 129 l 1,11,-1
 454 129 l 1,12,-1
 678 714 l 1,13,-1
 810 714 l 1,14,-1
 810 0 l 1,15,-1
 721 0 l 1,16,-1
 721 439 l 2,17,18
 721 474 721 474 722 508.5 c 128,-1,19
 723 543 723 543 725 573.5 c 128,-1,20
 727 604 727 604 728 625 c 1,21,-1
 724 625 l 1,22,-1
 486 0 l 1,23,-1
 412 0 l 1,0,-1
EndSplineSet
EndChar

StartChar: N
Encoding: 78 78 81
Width: 760
Flags: W
LayerCount: 2
Fore
SplineSet
663 0 m 1,0,-1
 558 0 l 1,1,-1
 176 593 l 1,2,-1
 172 593 l 1,3,4
 174 570 174 570 175.5 538.5 c 128,-1,5
 177 507 177 507 178.5 471.5 c 128,-1,6
 180 436 180 436 180 399 c 2,7,-1
 180 0 l 1,8,-1
 97 0 l 1,9,-1
 97 714 l 1,10,-1
 201 714 l 1,11,-1
 582 123 l 1,12,-1
 586 123 l 1,13,14
 585 139 585 139 583.5 171 c 128,-1,15
 582 203 582 203 580.5 241 c 128,-1,16
 579 279 579 279 579 311 c 2,17,-1
 579 714 l 1,18,-1
 663 714 l 1,19,-1
 663 0 l 1,0,-1
EndSplineSet
EndChar

StartChar: O
Encoding: 79 79 82
Width: 781
Flags: W
LayerCount: 2
Fore
SplineSet
720 358 m 0,0,1
 720 275 720 275 699 207.5 c 128,-1,2
 678 140 678 140 636.5 91 c 128,-1,3
 595 42 595 42 533.5 16 c 128,-1,4
 472 -10 472 -10 391 -10 c 0,5,6
 307 -10 307 -10 245 16.5 c 128,-1,7
 183 43 183 43 142 91.5 c 128,-1,8
 101 140 101 140 81 208 c 128,-1,9
 61 276 61 276 61 359 c 0,10,11
 61 469 61 469 97 551 c 128,-1,12
 133 633 133 633 206.5 679 c 128,-1,13
 280 725 280 725 392 725 c 0,14,15
 499 725 499 725 572 679.5 c 128,-1,16
 645 634 645 634 682.5 551.5 c 128,-1,17
 720 469 720 469 720 358 c 0,0,1
156 358 m 256,18,19
 156 268 156 268 181 203 c 128,-1,20
 206 138 206 138 258.5 103 c 128,-1,21
 311 68 311 68 391 68 c 0,22,23
 472 68 472 68 523.5 103 c 128,-1,24
 575 138 575 138 600 203 c 128,-1,25
 625 268 625 268 625 358 c 0,26,27
 625 493 625 493 569 569.5 c 128,-1,28
 513 646 513 646 392 646 c 0,29,30
 311 646 311 646 258.5 611.5 c 128,-1,31
 206 577 206 577 181 512.5 c 128,-1,32
 156 448 156 448 156 358 c 256,18,19
EndSplineSet
EndChar

StartChar: Oslash
Encoding: 216 216 83
Width: 361
Flags: W
LayerCount: 2
Fore
SplineSet
264 62 m 0,0,1
 284 62 284 62 305 65.5 c 128,-1,2
 326 69 326 69 339 73 c 1,3,-1
 339 6 l 1,4,5
 325 -1 325 -1 299 -5.5 c 128,-1,6
 273 -10 273 -10 249 -10 c 0,7,8
 207 -10 207 -10 171.5 4.5 c 128,-1,9
 136 19 136 19 114 55 c 128,-1,10
 92 91 92 91 92 156 c 2,11,-1
 92 468 l 1,12,-1
 16 468 l 1,13,-1
 16 510 l 1,14,-1
 93 545 l 1,15,-1
 128 659 l 1,16,-1
 180 659 l 1,17,-1
 180 536 l 1,18,-1
 335 536 l 1,19,-1
 335 468 l 1,20,-1
 180 468 l 1,21,-1
 180 158 l 2,22,23
 180 109 180 109 203.5 85.5 c 128,-1,24
 227 62 227 62 264 62 c 0,0,1
EndSplineSet
EndChar

StartChar: P
Encoding: 80 80 84
Width: 605
Flags: W
LayerCount: 2
Fore
SplineSet
286 714 m 2,0,1
 426 714 426 714 490 659 c 128,-1,2
 554 604 554 604 554 504 c 0,3,4
 554 460 554 460 539.5 419.5 c 128,-1,5
 525 379 525 379 492 347 c 128,-1,6
 459 315 459 315 404 296.5 c 128,-1,7
 349 278 349 278 269 278 c 2,8,-1
 187 278 l 1,9,-1
 187 0 l 1,10,-1
 97 0 l 1,11,-1
 97 714 l 1,12,-1
 286 714 l 2,0,1
278 637 m 2,13,-1
 187 637 l 1,14,-1
 187 355 l 1,15,-1
 259 355 l 2,16,17
 327 355 327 355 372 369.5 c 128,-1,18
 417 384 417 384 439 416 c 128,-1,19
 461 448 461 448 461 500 c 0,20,21
 461 569 461 569 417 603 c 128,-1,22
 373 637 373 637 278 637 c 2,13,-1
EndSplineSet
EndChar

StartChar: Thorn
Encoding: 222 222 85
Width: 470
Flags: W
LayerCount: 2
Fore
SplineSet
431 0 m 1,0,-1
 39 0 l 1,1,-1
 39 58 l 1,2,-1
 327 468 l 1,3,-1
 56 468 l 1,4,-1
 56 536 l 1,5,-1
 424 536 l 1,6,-1
 424 470 l 1,7,-1
 140 68 l 1,8,-1
 431 68 l 1,9,-1
 431 0 l 1,0,-1
EndSplineSet
EndChar

StartChar: Q
Encoding: 81 81 86
Width: 680
Flags: W
LayerCount: 2
Fore
SplineSet
558 -5 m 1,0,1
 538 -5 538 -5 519 2 c 128,-1,2
 500 9 500 9 486 26 c 1,3,-1
 486 291 l 5,4,5
 458 266 458 266 421 250.5 c 132,-1,6
 384 235 384 235 334 235 c 4,7,8
 292 235 292 235 243 258 c 132,-1,9
 194 281 194 281 152 318 c 132,-1,10
 110 355 110 355 82 401 c 132,-1,11
 54 447 54 447 54 493 c 4,12,13
 54 541 54 541 71.5 578 c 132,-1,14
 89 615 89 615 119 640.5 c 132,-1,15
 149 666 149 666 189.5 679 c 132,-1,16
 230 692 230 692 276 692 c 4,17,18
 310 692 310 692 340 684 c 4,19,20
 389 671 389 671 396 662.5 c 4,21,22
 431 622 431 622 444.5 631.5 c 4,23,24
 448 634 448 634 486 718 c 5,25,-1
 484 717 l 5,26,-1
 560 717 l 6,27,-1
 558 -5 l 1,0,1
277 292 m 4,28,29
 315 292 315 292 351 304.5 c 132,-1,30
 387 317 387 317 417 340 c 5,31,-1
 184 580 l 5,32,33
 157 556 157 556 142 521.5 c 132,-1,34
 127 487 127 487 127 442 c 4,35,36
 127 406 127 406 138.5 378 c 132,-1,37
 150 350 150 350 170 331 c 132,-1,38
 190 312 190 312 217.5 302 c 132,-1,39
 245 292 245 292 277 292 c 4,28,29
486 571 m 5,40,41
 451 598 451 598 413.5 613.5 c 132,-1,42
 376 629 376 629 327 629 c 4,43,44
 255 629 255 629 204 596 c 5,45,-1
 435 356 l 5,46,47
 451 371 451 371 464 389 c 132,-1,48
 477 407 477 407 486 427 c 5,49,-1
 486 571 l 5,40,41
EndSplineSet
EndChar

StartChar: R
Encoding: 82 82 87
Width: 622
Flags: W
LayerCount: 2
Fore
SplineSet
294 714 m 2,0,1
 383 714 383 714 440.5 691.5 c 128,-1,2
 498 669 498 669 526 624 c 128,-1,3
 554 579 554 579 554 511 c 0,4,5
 554 454 554 454 533 416 c 128,-1,6
 512 378 512 378 479.5 355.5 c 128,-1,7
 447 333 447 333 411 320 c 1,8,-1
 607 0 l 1,9,-1
 502 0 l 1,10,-1
 329 295 l 1,11,-1
 187 295 l 1,12,-1
 187 0 l 1,13,-1
 97 0 l 1,14,-1
 97 714 l 1,15,-1
 294 714 l 2,0,1
289 636 m 2,16,-1
 187 636 l 1,17,-1
 187 371 l 1,18,-1
 294 371 l 2,19,20
 381 371 381 371 421 405.5 c 128,-1,21
 461 440 461 440 461 507 c 0,22,23
 461 554 461 554 442.5 582 c 128,-1,24
 424 610 424 610 386 623 c 128,-1,25
 348 636 348 636 289 636 c 2,16,-1
EndSplineSet
EndChar

StartChar: S
Encoding: 83 83 88
Width: 549
Flags: W
LayerCount: 2
Fore
SplineSet
502 191 m 0,0,1
 502 127 502 127 471 82.5 c 128,-1,2
 440 38 440 38 382.5 14 c 128,-1,3
 325 -10 325 -10 247 -10 c 0,4,5
 207 -10 207 -10 170.5 -6 c 128,-1,6
 134 -2 134 -2 104 5.5 c 128,-1,7
 74 13 74 13 51 24 c 1,8,-1
 51 110 l 1,9,10
 87 94 87 94 140.5 81 c 128,-1,11
 194 68 194 68 251 68 c 0,12,13
 304 68 304 68 340 82 c 128,-1,14
 376 96 376 96 394 122 c 128,-1,15
 412 148 412 148 412 183 c 256,16,17
 412 218 412 218 397 242 c 128,-1,18
 382 266 382 266 345.5 286.5 c 128,-1,19
 309 307 309 307 244 330 c 0,20,21
 198 347 198 347 163.5 366.5 c 128,-1,22
 129 386 129 386 106 411 c 128,-1,23
 83 436 83 436 71.5 468 c 128,-1,24
 60 500 60 500 60 542 c 0,25,26
 60 599 60 599 89 639.5 c 128,-1,27
 118 680 118 680 169.5 702 c 128,-1,28
 221 724 221 724 288 724 c 0,29,30
 347 724 347 724 396 713 c 128,-1,31
 445 702 445 702 485 684 c 1,32,-1
 457 607 l 1,33,34
 420 623 420 623 376.5 634 c 128,-1,35
 333 645 333 645 286 645 c 0,36,37
 241 645 241 645 211 632 c 128,-1,38
 181 619 181 619 166 595.5 c 128,-1,39
 151 572 151 572 151 541 c 0,40,41
 151 505 151 505 166 481 c 128,-1,42
 181 457 181 457 215 438 c 128,-1,43
 249 419 249 419 307 397 c 0,44,45
 370 374 370 374 413.5 347.5 c 128,-1,46
 457 321 457 321 479.5 284 c 128,-1,47
 502 247 502 247 502 191 c 0,0,1
EndSplineSet
EndChar

StartChar: T
Encoding: 84 84 89
Width: 778
Flags: W
AnchorPoint: "Anchor-1" 778 -24 basechar 0
AnchorPoint: "Anchor-0" 389 -24 basechar 0
LayerCount: 2
Fore
SplineSet
394 -12 m 0,0,1
 273 -12 273 -12 193.5 20.5 c 128,-1,2
 114 53 114 53 75 109.5 c 128,-1,3
 36 166 36 166 36 237 c 0,4,5
 36 293 36 293 59.5 335.5 c 128,-1,6
 83 378 83 378 124 401.5 c 128,-1,7
 165 425 165 425 218 425 c 0,8,9
 260 425 260 425 290 409.5 c 128,-1,10
 320 394 320 394 336 366 c 128,-1,11
 352 338 352 338 352 301 c 0,12,13
 352 240 352 240 310.5 203.5 c 128,-1,14
 269 167 269 167 194 167 c 0,15,16
 172 167 172 167 152 171.5 c 128,-1,17
 132 176 132 176 115 183 c 128,-1,18
 98 190 98 190 83 199 c 1,19,-1
 90 270 l 1,20,21
 110 255 110 255 132.5 246 c 128,-1,22
 155 237 155 237 182 237 c 0,23,24
 231 237 231 237 251.5 255 c 128,-1,25
 272 273 272 273 272 301 c 0,26,27
 272 327 272 327 256.5 340.5 c 128,-1,28
 241 354 241 354 213 354 c 0,29,30
 183 354 183 354 159.5 340 c 128,-1,31
 136 326 136 326 122 302 c 128,-1,32
 108 278 108 278 108 246 c 2,33,-1
 108 241 l 2,34,35
 108 198 108 198 128.5 165.5 c 128,-1,36
 149 133 149 133 186 111 c 128,-1,37
 223 89 223 89 274.5 78 c 128,-1,38
 326 67 326 67 389 67 c 0,39,40
 472 67 472 67 526.5 84 c 128,-1,41
 581 101 581 101 612 128 c 128,-1,42
 643 155 643 155 655.5 186 c 128,-1,43
 668 217 668 217 668 246 c 2,44,-1
 668 290 l 1,45,46
 659 317 659 317 635 335.5 c 128,-1,47
 611 354 611 354 576 354 c 0,48,49
 551 354 551 354 530.5 339.5 c 128,-1,50
 510 325 510 325 510 293 c 0,51,52
 510 271 510 271 526 254 c 128,-1,53
 542 237 542 237 576 237 c 0,54,55
 602 237 602 237 621 246.5 c 128,-1,56
 640 256 640 256 651.5 273.5 c 128,-1,57
 663 291 663 291 668 314 c 1,58,-1
 684 224 l 1,59,60
 669 206 669 206 651.5 193 c 128,-1,61
 634 180 634 180 612.5 173.5 c 128,-1,62
 591 167 591 167 563 167 c 0,63,64
 525 167 525 167 495 182 c 128,-1,65
 465 197 465 197 448 224.5 c 128,-1,66
 431 252 431 252 431 290 c 0,67,68
 431 346 431 346 466.5 377.5 c 128,-1,69
 502 409 502 409 561 409 c 0,70,71
 567 409 567 409 574.5 408 c 128,-1,72
 582 407 582 407 591 405 c 128,-1,73
 600 403 600 403 608 400 c 2,74,-1
 596 399 l 1,75,76
 576 409 576 409 545 415 c 128,-1,77
 514 421 514 421 482.5 424.5 c 128,-1,78
 451 428 451 428 429 428 c 1,79,-1
 449 496 l 1,80,81
 526 489 526 489 582 467.5 c 128,-1,82
 638 446 638 446 673.5 413 c 128,-1,83
 709 380 709 380 726 337.5 c 128,-1,84
 743 295 743 295 743 245 c 0,85,86
 743 190 743 190 722.5 143 c 128,-1,87
 702 96 702 96 659.5 61.5 c 128,-1,88
 617 27 617 27 551 7.5 c 128,-1,89
 485 -12 485 -12 394 -12 c 0,0,1
409 425 m 0,90,91
 380 425 380 425 353.5 436 c 128,-1,92
 327 447 327 447 305 477.5 c 128,-1,93
 283 508 283 508 267 564 c 1,94,-1
 350 591 l 1,95,96
 365 536 365 536 379 518 c 128,-1,97
 393 500 393 500 415 500 c 0,98,99
 435 500 435 500 452.5 512.5 c 128,-1,100
 470 525 470 525 502 565 c 2,101,-1
 533 605 l 2,102,103
 567 649 567 649 595.5 675 c 128,-1,104
 624 701 624 701 656 713 c 128,-1,105
 688 725 688 725 732 725 c 1,106,-1
 738 648 l 1,107,108
 703 646 703 646 679.5 637 c 128,-1,109
 656 628 656 628 636.5 608.5 c 128,-1,110
 617 589 617 589 591 556 c 2,111,-1
 568 526 l 2,112,113
 540 490 540 490 515 468 c 128,-1,114
 490 446 490 446 464.5 435.5 c 128,-1,115
 439 425 439 425 409 425 c 0,90,91
EndSplineSet
EndChar

StartChar: U
Encoding: 85 85 90
Width: 731
Flags: W
LayerCount: 2
Fore
SplineSet
640 252 m 2,0,1
 640 178 640 178 610 118.5 c 128,-1,2
 580 59 580 59 518.5 24.5 c 128,-1,3
 457 -10 457 -10 362 -10 c 0,4,5
 229 -10 229 -10 159.5 62.5 c 128,-1,6
 90 135 90 135 90 254 c 2,7,-1
 90 714 l 1,8,-1
 180 714 l 1,9,-1
 180 251 l 2,10,11
 180 164 180 164 226.5 116 c 128,-1,12
 273 68 273 68 367 68 c 0,13,14
 432 68 432 68 472.5 91.5 c 128,-1,15
 513 115 513 115 532 156.5 c 128,-1,16
 551 198 551 198 551 252 c 2,17,-1
 551 714 l 1,18,-1
 640 714 l 1,19,-1
 640 252 l 2,0,1
EndSplineSet
EndChar

StartChar: Uacute
Encoding: 218 218 91
Width: 508
Flags: W
LayerCount: 2
Fore
SplineSet
203 0 m 1,0,-1
 0 536 l 1,1,-1
 94 536 l 1,2,-1
 208 220 l 2,3,4
 216 198 216 198 225 171 c 128,-1,5
 234 144 234 144 241 119.5 c 128,-1,6
 248 95 248 95 251 78 c 1,7,-1
 255 78 l 1,8,9
 259 95 259 95 266.5 120 c 128,-1,10
 274 145 274 145 283.5 172 c 128,-1,11
 293 199 293 199 300 220 c 2,12,-1
 414 536 l 1,13,-1
 508 536 l 1,14,-1
 304 0 l 1,15,-1
 203 0 l 1,0,-1
EndSplineSet
EndChar

StartChar: Ucircumflex
Encoding: 219 219 92
Width: 786
Flags: W
LayerCount: 2
Fore
SplineSet
431 303 m 2,0,1
 425 324 425 324 419 344.5 c 128,-1,2
 413 365 413 365 408.5 383.5 c 128,-1,3
 404 402 404 402 400 418 c 128,-1,4
 396 434 396 434 394 445 c 1,5,-1
 390 445 l 1,6,7
 388 434 388 434 384.5 418 c 128,-1,8
 381 402 381 402 376.5 383 c 128,-1,9
 372 364 372 364 366.5 343.5 c 128,-1,10
 361 323 361 323 354 302 c 2,11,-1
 258 1 l 1,12,-1
 158 1 l 1,13,-1
 11 537 l 1,14,-1
 102 537 l 1,15,-1
 176 251 l 2,16,17
 184 222 184 222 191 192.5 c 128,-1,18
 198 163 198 163 203.5 136.5 c 128,-1,19
 209 110 209 110 211 91 c 1,20,-1
 215 91 l 1,21,22
 218 103 218 103 222 121 c 128,-1,23
 226 139 226 139 230.5 159 c 128,-1,24
 235 179 235 179 240.5 199 c 128,-1,25
 246 219 246 219 251 235 c 2,26,-1
 346 537 l 1,27,-1
 442 537 l 1,28,-1
 534 235 l 2,29,30
 541 212 541 212 548.5 186 c 128,-1,31
 556 160 556 160 562 135.5 c 128,-1,32
 568 111 568 111 570 92 c 1,33,-1
 574 92 l 1,34,35
 576 109 576 109 581.5 134.5 c 128,-1,36
 587 160 587 160 594.5 190.5 c 128,-1,37
 602 221 602 221 610 251 c 2,38,-1
 685 537 l 1,39,-1
 775 537 l 1,40,-1
 626 1 l 1,41,-1
 523 1 l 1,42,-1
 431 303 l 2,0,1
EndSplineSet
EndChar

StartChar: Udieresis
Encoding: 220 220 93
Width: 529
Flags: W
LayerCount: 2
Fore
SplineSet
212 274 m 1,0,-1
 27 536 l 1,1,-1
 127 536 l 1,2,-1
 265 334 l 1,3,-1
 402 536 l 1,4,-1
 501 536 l 1,5,-1
 316 274 l 1,6,-1
 511 0 l 1,7,-1
 411 0 l 1,8,-1
 265 214 l 1,9,-1
 117 0 l 1,10,-1
 18 0 l 1,11,-1
 212 274 l 1,0,-1
EndSplineSet
EndChar

StartChar: Ugrave
Encoding: 217 217 94
Width: 618
Flags: W
LayerCount: 2
Fore
SplineSet
533 536 m 1,0,-1
 533 0 l 1,1,-1
 461 0 l 1,2,-1
 448 71 l 1,3,-1
 444 71 l 1,4,5
 427 43 427 43 400 25 c 128,-1,6
 373 7 373 7 341 -1.5 c 128,-1,7
 309 -10 309 -10 274 -10 c 0,8,9
 210 -10 210 -10 166.5 10.5 c 128,-1,10
 123 31 123 31 101 74 c 128,-1,11
 79 117 79 117 79 185 c 2,12,-1
 79 536 l 1,13,-1
 168 536 l 1,14,-1
 168 191 l 2,15,16
 168 127 168 127 197 95 c 128,-1,17
 226 63 226 63 287 63 c 0,18,19
 347 63 347 63 381.5 85.5 c 128,-1,20
 416 108 416 108 430.5 151.5 c 128,-1,21
 445 195 445 195 445 257 c 2,22,-1
 445 536 l 1,23,-1
 533 536 l 1,0,-1
EndSplineSet
EndChar

StartChar: V
Encoding: 86 86 95
Width: 600
Flags: W
LayerCount: 2
Fore
SplineSet
600 714 m 1,0,-1
 345 0 l 1,1,-1
 255 0 l 1,2,-1
 0 714 l 1,3,-1
 94 714 l 1,4,-1
 255 256 l 2,5,6
 266 227 266 227 274 200 c 128,-1,7
 282 173 282 173 288.5 148.5 c 128,-1,8
 295 124 295 124 300 100 c 1,9,10
 305 124 305 124 311.5 149 c 128,-1,11
 318 174 318 174 326.5 201 c 128,-1,12
 335 228 335 228 345 258 c 2,13,-1
 505 714 l 1,14,-1
 600 714 l 1,0,-1
EndSplineSet
EndChar

StartChar: W
Encoding: 87 87 96
Width: 930
Flags: W
LayerCount: 2
Fore
SplineSet
917 714 m 1,0,-1
 727 0 l 1,1,-1
 636 0 l 1,2,-1
 497 468 l 2,3,4
 491 489 491 489 485 511 c 128,-1,5
 479 533 479 533 474 553 c 128,-1,6
 469 573 469 573 465.5 587.5 c 128,-1,7
 462 602 462 602 461 609 c 1,8,9
 460 602 460 602 457.5 587.5 c 128,-1,10
 455 573 455 573 450 553 c 128,-1,11
 445 533 445 533 439.5 510.5 c 128,-1,12
 434 488 434 488 427 465 c 2,13,-1
 292 0 l 1,14,-1
 201 0 l 1,15,-1
 12 714 l 1,16,-1
 106 714 l 1,17,-1
 217 278 l 2,18,19
 223 255 223 255 228 232.5 c 128,-1,20
 233 210 233 210 237.5 188.5 c 128,-1,21
 242 167 242 167 245 147 c 128,-1,22
 248 127 248 127 251 108 c 1,23,24
 254 128 254 128 257.5 149 c 128,-1,25
 261 170 261 170 266 192.5 c 128,-1,26
 271 215 271 215 277 238 c 128,-1,27
 283 261 283 261 289 283 c 2,28,-1
 415 714 l 1,29,-1
 508 714 l 1,30,-1
 639 280 l 2,31,32
 646 257 646 257 652 233.5 c 128,-1,33
 658 210 658 210 663 188 c 128,-1,34
 668 166 668 166 671.5 145.5 c 128,-1,35
 675 125 675 125 678 108 c 1,36,37
 681 133 681 133 686 160.5 c 128,-1,38
 691 188 691 188 698 218 c 128,-1,39
 705 248 705 248 713 279 c 2,40,-1
 823 714 l 1,41,-1
 917 714 l 1,0,-1
EndSplineSet
EndChar

StartChar: X
Encoding: 88 88 97
Width: 586
Flags: W
LayerCount: 2
Fore
SplineSet
582 0 m 1,0,-1
 480 0 l 1,1,-1
 291 310 l 1,2,-1
 99 0 l 1,3,-1
 4 0 l 1,4,-1
 241 372 l 1,5,-1
 19 714 l 1,6,-1
 119 714 l 1,7,-1
 294 434 l 1,8,-1
 470 714 l 1,9,-1
 565 714 l 1,10,-1
 344 374 l 1,11,-1
 582 0 l 1,0,-1
EndSplineSet
EndChar

StartChar: Y
Encoding: 89 89 98
Width: 566
Flags: W
LayerCount: 2
Fore
SplineSet
283 363 m 1,0,-1
 469 714 l 1,1,-1
 566 714 l 1,2,-1
 328 277 l 1,3,-1
 328 0 l 1,4,-1
 238 0 l 1,5,-1
 238 273 l 1,6,-1
 0 714 l 1,7,-1
 98 714 l 1,8,-1
 283 363 l 1,0,-1
EndSplineSet
EndChar

StartChar: Yacute
Encoding: 221 221 99
Width: 510
Flags: W
LayerCount: 2
Fore
SplineSet
1 536 m 1,0,-1
 95 536 l 1,1,-1
 211 231 l 2,2,3
 221 204 221 204 229.5 179 c 128,-1,4
 238 154 238 154 245 130.5 c 128,-1,5
 252 107 252 107 256 85 c 1,6,-1
 260 85 l 1,7,8
 266 110 266 110 279 150.5 c 128,-1,9
 292 191 292 191 306 232 c 2,10,-1
 415 536 l 1,11,-1
 510 536 l 1,12,-1
 279 -74 l 2,13,14
 260 -124 260 -124 234.5 -161.5 c 128,-1,15
 209 -199 209 -199 172.5 -219.5 c 128,-1,16
 136 -240 136 -240 84 -240 c 0,17,18
 60 -240 60 -240 42 -237.5 c 128,-1,19
 24 -235 24 -235 11 -232 c 1,20,-1
 11 -162 l 1,21,22
 22 -164 22 -164 37.5 -166 c 128,-1,23
 53 -168 53 -168 70 -168 c 0,24,25
 101 -168 101 -168 123.5 -156.5 c 128,-1,26
 146 -145 146 -145 162 -123.5 c 128,-1,27
 178 -102 178 -102 189 -73 c 2,28,-1
 217 -2 l 1,29,-1
 1 536 l 1,0,-1
EndSplineSet
EndChar

StartChar: Z
Encoding: 90 90 100
Width: 572
Flags: W
LayerCount: 2
Fore
SplineSet
533 0 m 1,0,-1
 38 0 l 1,1,-1
 38 68 l 1,2,-1
 414 634 l 1,3,-1
 50 634 l 1,4,-1
 50 714 l 1,5,-1
 523 714 l 1,6,-1
 523 646 l 1,7,-1
 147 80 l 1,8,-1
 533 80 l 1,9,-1
 533 0 l 1,0,-1
EndSplineSet
EndChar

StartChar: a
Encoding: 97 97 101
Width: 561
Flags: W
LayerCount: 2
Fore
SplineSet
288 545 m 0,0,1
 386 545 386 545 433 502 c 128,-1,2
 480 459 480 459 480 365 c 2,3,-1
 480 0 l 1,4,-1
 416 0 l 1,5,-1
 399 76 l 1,6,-1
 395 76 l 1,7,8
 372 47 372 47 347.5 27.5 c 128,-1,9
 323 8 323 8 291.5 -1 c 128,-1,10
 260 -10 260 -10 215 -10 c 0,11,12
 167 -10 167 -10 128.5 7 c 128,-1,13
 90 24 90 24 68 59.5 c 128,-1,14
 46 95 46 95 46 149 c 0,15,16
 46 229 46 229 109 272.5 c 128,-1,17
 172 316 172 316 303 320 c 2,18,-1
 394 323 l 1,19,-1
 394 355 l 2,20,21
 394 422 394 422 365 448 c 128,-1,22
 336 474 336 474 283 474 c 0,23,24
 241 474 241 474 203 461.5 c 128,-1,25
 165 449 165 449 132 433 c 1,26,-1
 105 499 l 1,27,28
 140 518 140 518 188 531.5 c 128,-1,29
 236 545 236 545 288 545 c 0,0,1
314 259 m 2,30,31
 214 255 214 255 175.5 227 c 128,-1,32
 137 199 137 199 137 148 c 0,33,34
 137 103 137 103 164.5 82 c 128,-1,35
 192 61 192 61 235 61 c 0,36,37
 303 61 303 61 348 98.5 c 128,-1,38
 393 136 393 136 393 214 c 2,39,-1
 393 262 l 1,40,-1
 314 259 l 2,30,31
EndSplineSet
EndChar

StartChar: aacute
Encoding: 225 225 102
Width: 632
Flags: W
LayerCount: 2
Fore
SplineSet
403 645 m 0,0,1
 346 645 346 645 300 625.5 c 128,-1,2
 254 606 254 606 222 568.5 c 128,-1,3
 190 531 190 531 173 477.5 c 128,-1,4
 156 424 156 424 156 357 c 0,5,6
 156 269 156 269 183.5 204 c 128,-1,7
 211 139 211 139 265.5 104 c 128,-1,8
 320 69 320 69 402 69 c 0,9,10
 449 69 449 69 491 77 c 128,-1,11
 533 85 533 85 573 97 c 1,12,-1
 573 19 l 1,13,14
 533 4 533 4 490.5 -3 c 128,-1,15
 448 -10 448 -10 389 -10 c 0,16,17
 280 -10 280 -10 207 35 c 128,-1,18
 134 80 134 80 97.5 163 c 128,-1,19
 61 246 61 246 61 358 c 0,20,21
 61 439 61 439 83.5 506 c 128,-1,22
 106 573 106 573 149.5 622 c 128,-1,23
 193 671 193 671 257 697.5 c 128,-1,24
 321 724 321 724 404 724 c 0,25,26
 459 724 459 724 510 713 c 128,-1,27
 561 702 561 702 601 682 c 1,28,-1
 565 606 l 1,29,30
 532 621 532 621 491.5 633 c 128,-1,31
 451 645 451 645 403 645 c 0,0,1
EndSplineSet
EndChar

StartChar: abreve
Encoding: 259 259 103
Width: 534
Flags: W
LayerCount: 2
Fore
SplineSet
272 578 m 4,0,1
 223 578 223 578 193 606 c 132,-1,2
 163 634 163 634 163 684 c 260,3,4
 163 734 163 734 193 761.5 c 132,-1,5
 223 789 223 789 272 789 c 4,6,7
 319 789 319 789 351 761.5 c 132,-1,8
 383 734 383 734 383 685 c 4,9,10
 383 634 383 634 351.5 606 c 132,-1,11
 320 578 320 578 272 578 c 4,0,1
272 628 m 4,12,13
 297 628 297 628 312.5 643 c 132,-1,14
 328 658 328 658 328 684 c 260,15,16
 328 710 328 710 312 725 c 132,-1,17
 296 740 296 740 272 740 c 260,18,19
 248 740 248 740 232 725 c 132,-1,20
 216 710 216 710 216 684 c 260,21,22
 216 658 216 658 230.5 643 c 132,-1,23
 245 628 245 628 272 628 c 4,12,13
172 363 m 2,24,25
 172 347 172 347 170.5 321 c 128,-1,26
 169 295 169 295 168 276 c 1,27,-1
 172 276 l 1,28,29
 178 284 178 284 190 299 c 128,-1,30
 202 314 202 314 214.5 329.5 c 0,31,32
 235 353 235 353 236 355 c 2,33,-1
 407 536 l 1,34,-1
 510 536 l 1,35,-1
 293 307 l 1,36,-1
 525 0 l 1,37,-1
 419 0 l 1,38,-1
 233 250 l 1,39,-1
 172 197 l 1,40,-1
 172 0 l 1,41,-1
 85 0 l 1,42,-1
 85 535 l 1,43,-1
 172 535 l 1,44,-1
 172 363 l 2,24,25
EndSplineSet
EndChar

StartChar: acircumflex
Encoding: 226 226 104
Width: 730
Flags: W
LayerCount: 2
Fore
SplineSet
669 364 m 0,0,1
 669 244 669 244 624.5 163 c 128,-1,2
 580 82 580 82 497 41 c 128,-1,3
 414 0 414 0 296 0 c 2,4,-1
 97 0 l 1,5,-1
 97 714 l 1,6,-1
 317 714 l 2,7,8
 425 714 425 714 504 674 c 128,-1,9
 583 634 583 634 626 556.5 c 128,-1,10
 669 479 669 479 669 364 c 0,0,1
574 361 m 0,11,12
 574 456 574 456 542.5 517 c 128,-1,13
 511 578 511 578 450.5 607.5 c 128,-1,14
 390 637 390 637 304 637 c 2,15,-1
 187 637 l 1,16,-1
 187 77 l 1,17,-1
 284 77 l 2,18,19
 429 77 429 77 501.5 148.5 c 128,-1,20
 574 220 574 220 574 361 c 0,11,12
EndSplineSet
EndChar

StartChar: adieresis
Encoding: 228 228 105
Width: 519
Flags: W
LayerCount: 2
Fore
SplineSet
187 0 m 1,0,-1
 97 0 l 1,1,-1
 97 714 l 1,2,-1
 496 714 l 1,3,-1
 496 635 l 1,4,-1
 187 635 l 1,5,-1
 187 382 l 1,6,-1
 477 382 l 1,7,-1
 477 303 l 1,8,-1
 187 303 l 1,9,-1
 187 0 l 1,0,-1
EndSplineSet
EndChar

StartChar: agrave
Encoding: 224 224 106
Width: 650
Flags: W
LayerCount: 2
Fore
SplineSet
301 714 m 2,0,1
 435 714 435 714 503.5 674.5 c 128,-1,2
 572 635 572 635 572 537 c 0,3,4
 572 495 572 495 556.5 462.5 c 128,-1,5
 541 430 541 430 510.5 408.5 c 128,-1,6
 480 387 480 387 436 379 c 1,7,-1
 436 374 l 1,8,9
 481 367 481 367 517.5 348 c 128,-1,10
 554 329 554 329 575 294 c 128,-1,11
 596 259 596 259 596 203 c 0,12,13
 596 138 596 138 566 92.5 c 128,-1,14
 536 47 536 47 480.5 23.5 c 128,-1,15
 425 0 425 0 348 0 c 2,16,-1
 97 0 l 1,17,-1
 97 714 l 1,18,-1
 301 714 l 2,0,1
319 410 m 2,19,20
 411 410 411 410 445 439.5 c 128,-1,21
 479 469 479 469 479 527 c 0,22,23
 479 586 479 586 437.5 611.5 c 128,-1,24
 396 637 396 637 305 637 c 2,25,-1
 187 637 l 1,26,-1
 187 410 l 1,27,-1
 319 410 l 2,19,20
187 335 m 1,28,-1
 187 76 l 1,29,-1
 331 76 l 2,30,31
 426 76 426 76 463 113 c 128,-1,32
 500 150 500 150 500 210 c 0,33,34
 500 248 500 248 483.5 276 c 128,-1,35
 467 304 467 304 428.5 319.5 c 128,-1,36
 390 335 390 335 324 335 c 2,37,-1
 187 335 l 1,28,-1
EndSplineSet
EndChar

StartChar: amacron
Encoding: 257 257 107
Width: 561
Flags: W
LayerCount: 2
Fore
SplineSet
280 606 m 4,0,1
 231 606 231 606 201 634 c 132,-1,2
 171 662 171 662 171 712 c 260,3,4
 171 762 171 762 201 789.5 c 132,-1,5
 231 817 231 817 280 817 c 4,6,7
 327 817 327 817 359 789.5 c 132,-1,8
 391 762 391 762 391 713 c 4,9,10
 391 662 391 662 359.5 634 c 132,-1,11
 328 606 328 606 280 606 c 4,0,1
280 656 m 4,12,13
 305 656 305 656 320.5 671 c 132,-1,14
 336 686 336 686 336 712 c 260,15,16
 336 738 336 738 320 753 c 132,-1,17
 304 768 304 768 280 768 c 260,18,19
 256 768 256 768 240 753 c 132,-1,20
 224 738 224 738 224 712 c 260,21,22
 224 686 224 686 238.5 671 c 132,-1,23
 253 656 253 656 280 656 c 4,12,13
288 545 m 0,24,25
 386 545 386 545 433 502 c 128,-1,26
 480 459 480 459 480 365 c 2,27,-1
 480 0 l 1,28,-1
 416 0 l 1,29,-1
 399 76 l 1,30,-1
 395 76 l 1,31,32
 372 47 372 47 347.5 27.5 c 128,-1,33
 323 8 323 8 291.5 -1 c 128,-1,34
 260 -10 260 -10 215 -10 c 0,35,36
 167 -10 167 -10 128.5 7 c 128,-1,37
 90 24 90 24 68 59.5 c 128,-1,38
 46 95 46 95 46 149 c 0,39,40
 46 229 46 229 109 272.5 c 128,-1,41
 172 316 172 316 303 320 c 2,42,-1
 394 323 l 1,43,-1
 394 355 l 2,44,45
 394 422 394 422 365 448 c 128,-1,46
 336 474 336 474 283 474 c 0,47,48
 241 474 241 474 203 461.5 c 128,-1,49
 165 449 165 449 132 433 c 1,50,-1
 105 499 l 1,51,52
 140 518 140 518 188 531.5 c 128,-1,53
 236 545 236 545 288 545 c 0,24,25
314 259 m 2,54,55
 214 255 214 255 175.5 227 c 128,-1,56
 137 199 137 199 137 148 c 0,57,58
 137 103 137 103 164.5 82 c 128,-1,59
 192 61 192 61 235 61 c 0,60,61
 303 61 303 61 348 98.5 c 128,-1,62
 393 136 393 136 393 214 c 2,63,-1
 393 262 l 1,64,-1
 314 259 l 2,54,55
EndSplineSet
EndChar

StartChar: aogonek
Encoding: 261 261 108
Width: 605
Flags: W
LayerCount: 2
Fore
SplineSet
554 382 m 0,0,1
 554 337 554 337 540 296 c 128,-1,2
 526 255 526 255 493 223.5 c 128,-1,3
 460 192 460 192 405 173.5 c 128,-1,4
 350 155 350 155 268 155 c 2,5,-1
 187 155 l 1,6,-1
 187 0 l 1,7,-1
 97 0 l 1,8,-1
 97 714 l 1,9,-1
 187 714 l 1,10,-1
 187 590 l 1,11,-1
 283 590 l 2,12,13
 428 590 428 590 491 535 c 128,-1,14
 554 480 554 480 554 382 c 0,0,1
259 231 m 2,15,16
 329 231 329 231 373.5 245.5 c 128,-1,17
 418 260 418 260 439.5 292.5 c 128,-1,18
 461 325 461 325 461 377 c 0,19,20
 461 446 461 446 417.5 479.5 c 128,-1,21
 374 513 374 513 276 513 c 2,22,-1
 187 513 l 1,23,-1
 187 231 l 1,24,-1
 259 231 l 2,15,16
EndSplineSet
Ligature2: "'ccmp' Glyph Composition/Decomposition in Telugu2 lookup 98 subtable" a uni0328
EndChar

StartChar: aring
Encoding: 229 229 109
Width: 728
Flags: W
LayerCount: 2
Fore
SplineSet
407 377 m 1,0,-1
 654 377 l 1,1,-1
 654 27 l 1,2,3
 596 8 596 8 537 -1 c 128,-1,4
 478 -10 478 -10 403 -10 c 0,5,6
 292 -10 292 -10 216 34.5 c 128,-1,7
 140 79 140 79 100.5 161.5 c 128,-1,8
 61 244 61 244 61 357 c 0,9,10
 61 469 61 469 105 551 c 128,-1,11
 149 633 149 633 231.5 678.5 c 128,-1,12
 314 724 314 724 431 724 c 0,13,14
 491 724 491 724 544.5 713 c 128,-1,15
 598 702 598 702 644 682 c 1,16,-1
 610 604 l 1,17,18
 572 621 572 621 524.5 633 c 128,-1,19
 477 645 477 645 426 645 c 0,20,21
 341 645 341 645 280 610 c 128,-1,22
 219 575 219 575 187 510.5 c 128,-1,23
 155 446 155 446 155 357 c 0,24,25
 155 272 155 272 182.5 206.5 c 128,-1,26
 210 141 210 141 269 104.5 c 128,-1,27
 328 68 328 68 424 68 c 0,28,29
 471 68 471 68 504 73 c 128,-1,30
 537 78 537 78 564 85 c 1,31,-1
 564 297 l 1,32,-1
 407 297 l 1,33,-1
 407 377 l 1,0,-1
EndSplineSet
EndChar

StartChar: atilde
Encoding: 227 227 110
Width: 556
Flags: W
LayerCount: 2
Fore
SplineSet
496 0 m 1,0,-1
 97 0 l 1,1,-1
 97 714 l 1,2,-1
 496 714 l 1,3,-1
 496 635 l 1,4,-1
 187 635 l 1,5,-1
 187 412 l 1,6,-1
 478 412 l 1,7,-1
 478 334 l 1,8,-1
 187 334 l 1,9,-1
 187 79 l 1,10,-1
 496 79 l 1,11,-1
 496 0 l 1,0,-1
EndSplineSet
EndChar

StartChar: ae
Encoding: 230 230 111
Width: 741
Flags: W
LayerCount: 2
Fore
SplineSet
643 0 m 1,0,-1
 553 0 l 1,1,-1
 553 333 l 1,2,-1
 187 333 l 1,3,-1
 187 0 l 1,4,-1
 97 0 l 1,5,-1
 97 714 l 1,6,-1
 187 714 l 1,7,-1
 187 412 l 1,8,-1
 553 412 l 1,9,-1
 553 714 l 1,10,-1
 643 714 l 1,11,-1
 643 0 l 1,0,-1
EndSplineSet
EndChar

StartChar: b
Encoding: 98 98 112
Width: 750
Flags: W
AnchorPoint: "Anchor-1" 750 -24 basechar 0
AnchorPoint: "Anchor-0" 375 -24 basechar 0
LayerCount: 2
Fore
SplineSet
533 -12 m 0,0,1
 496 -12 496 -12 466 -2.5 c 128,-1,2
 436 7 436 7 411.5 29 c 128,-1,3
 387 51 387 51 365 90 c 1,4,-1
 386 90 l 1,5,6
 360 49 360 49 333 27 c 128,-1,7
 306 5 306 5 275 -3.5 c 128,-1,8
 244 -12 244 -12 205 -12 c 0,9,10
 150 -12 150 -12 113.5 7.5 c 128,-1,11
 77 27 77 27 59 59.5 c 128,-1,12
 41 92 41 92 41 130 c 0,13,14
 41 171 41 171 57.5 200 c 128,-1,15
 74 229 74 229 107 250.5 c 128,-1,16
 140 272 140 272 189 289 c 0,17,18
 230 304 230 304 254 321 c 128,-1,19
 278 338 278 338 278 371 c 0,20,21
 278 387 278 387 271 399.5 c 128,-1,22
 264 412 264 412 247.5 419.5 c 128,-1,23
 231 427 231 427 203 427 c 0,24,25
 160 427 160 427 139 410.5 c 128,-1,26
 118 394 118 394 118 365 c 0,27,28
 118 352 118 352 121.5 341 c 128,-1,29
 125 330 125 330 128 323 c 1,30,-1
 53 302 l 1,31,32
 45 317 45 317 40.5 335.5 c 128,-1,33
 36 354 36 354 36 375 c 0,34,35
 36 407 36 407 53 435.5 c 128,-1,36
 70 464 70 464 107 482 c 128,-1,37
 144 500 144 500 203 500 c 0,38,39
 263 500 263 500 297 480 c 128,-1,40
 331 460 331 460 345.5 430 c 128,-1,41
 360 400 360 400 360 370 c 0,42,43
 360 332 360 332 345 305.5 c 128,-1,44
 330 279 330 279 300.5 260 c 128,-1,45
 271 241 271 241 227 225 c 0,46,47
 174 205 174 205 148.5 184.5 c 128,-1,48
 123 164 123 164 123 131 c 0,49,50
 123 102 123 102 143.5 84.5 c 128,-1,51
 164 67 164 67 207 67 c 0,52,53
 249 67 249 67 276.5 81.5 c 128,-1,54
 304 96 304 96 318.5 123 c 128,-1,55
 333 150 333 150 336 185 c 1,56,-1
 414 185 l 1,57,58
 417 144 417 144 433 118 c 128,-1,59
 449 92 449 92 473 79.5 c 128,-1,60
 497 67 497 67 525 67 c 0,61,62
 580 67 580 67 606 99.5 c 128,-1,63
 632 132 632 132 632 193 c 0,64,65
 632 251 632 251 608.5 294.5 c 128,-1,66
 585 338 585 338 545.5 369.5 c 128,-1,67
 506 401 506 401 456 423 c 1,68,-1
 493 500 l 1,69,70
 555 474 555 474 605 430 c 128,-1,71
 655 386 655 386 685 328 c 128,-1,72
 715 270 715 270 715 199 c 0,73,74
 715 132 715 132 692.5 84.5 c 128,-1,75
 670 37 670 37 629.5 12.5 c 128,-1,76
 589 -12 589 -12 533 -12 c 0,0,1
EndSplineSet
EndChar

StartChar: c
Encoding: 99 99 113
Width: 632
Flags: W
LayerCount: 2
Fore
SplineSet
376.888671875 409.82421875 m 6,0,1
 376.888671875 391.015625 376.888671875 391.015625 376.088867188 388.259765625 c 4,2,3
 375.3203125 377 375.3203125 377 374.223632812 368.352539062 c 5,4,-1
 377.421875 368.352539062 l 5,5,6
 386.240234375 383.719726562 386.240234375 383.719726562 400.334960938 393.7890625 c 4,7,8
 413.959960938 403.879882812 413.959960938 403.879882812 431.243164062 408.995117188 c 4,9,10
 448.400390625 414.440429688 448.400390625 414.440429688 466.415039062 414.248046875 c 4,11,12
 501.3203125 414.440429688 501.3203125 414.440429688 524.233398438 402.912109375 c 4,13,14
 547.51953125 391.400390625 547.51953125 391.400390625 559.138671875 367.80078125 c 4,15,16
 570.862304688 344.7109375 570.862304688 344.7109375 570.862304688 305.868164062 c 6,17,-1
 570.862304688 134.004882812 l 5,18,-1
 516.940429688 134.004882812 l 5,19,-1
 516.940429688 263.190429688 l 6,20,21
 517.280273438 299.240234375 517.280273438 299.240234375 501.486328125 316.827148438 c 4,22,23
 486.200195312 334.759765625 486.200195312 334.759765625 452.993164062 334.521484375 c 4,24,25
 420.6796875 334.759765625 420.6796875 334.759765625 402.901367188 322.080078125 c 4,26,27
 384.559570312 309.799804688 384.559570312 309.799804688 377.0546875 285.584960938 c 4,28,29
 369.328125 261.451171875 369.328125 261.451171875 369.328125 226.6953125 c 6,30,-1
 369.328125 134.004882812 l 5,31,-1
 311.513671875 134.004882812 l 5,32,-1
 311.513671875 533.133789062 l 5,33,-1
 376.888671875 533.133789062 l 5,34,-1
 376.888671875 409.82421875 l 6,0,1
403 645 m 0,35,36
 346 645 346 645 300 625.5 c 128,-1,37
 254 606 254 606 222 568.5 c 128,-1,38
 190 531 190 531 173 477.5 c 128,-1,39
 156 424 156 424 156 357 c 0,40,41
 156 269 156 269 183.5 204 c 128,-1,42
 211 139 211 139 265.5 104 c 128,-1,43
 320 69 320 69 402 69 c 0,44,45
 449 69 449 69 491 77 c 128,-1,46
 533 85 533 85 573 97 c 1,47,-1
 573 19 l 1,48,49
 533 4 533 4 490.5 -3 c 128,-1,50
 448 -10 448 -10 389 -10 c 0,51,52
 280 -10 280 -10 207 35 c 128,-1,53
 134 80 134 80 97.5 163 c 128,-1,54
 61 246 61 246 61 358 c 0,55,56
 61 439 61 439 83.5 506 c 128,-1,57
 106 573 106 573 149.5 622 c 128,-1,58
 193 671 193 671 257 697.5 c 128,-1,59
 321 724 321 724 404 724 c 0,60,61
 459 724 459 724 510 713 c 128,-1,62
 561 702 561 702 601 682 c 1,63,-1
 565 606 l 1,64,65
 532 621 532 621 491.5 633 c 128,-1,66
 451 645 451 645 403 645 c 0,35,36
EndSplineSet
EndChar

StartChar: cacute
Encoding: 263 263 114
Width: 615
Flags: W
LayerCount: 2
Fore
SplineSet
340 711 m 4,0,1
 439 711 439 711 499.5 642 c 132,-1,2
 560 573 560 573 560 434 c 4,3,4
 560 343 560 343 532.5 280.5 c 132,-1,5
 505 218 505 218 455.5 186.5 c 132,-1,6
 406 155 406 155 339 155 c 4,7,8
 298 155 298 155 266 166 c 132,-1,9
 234 177 234 177 211.5 194.5 c 132,-1,10
 189 212 189 212 173 233 c 5,11,-1
 167 233 l 5,12,13
 169 216 169 216 171 190 c 132,-1,14
 173 164 173 164 173 145 c 6,15,-1
 173 -25 l 5,16,-1
 85 -25 l 5,17,-1
 85 701 l 5,18,-1
 157 701 l 5,19,-1
 169 628 l 5,20,-1
 173 628 l 5,21,22
 189 651 189 651 211.5 670 c 132,-1,23
 234 689 234 689 265.5 700 c 132,-1,24
 297 711 297 711 340 711 c 4,0,1
324 637 m 4,25,26
 270 637 270 637 237 616.5 c 132,-1,27
 204 596 204 596 189 555 c 132,-1,28
 174 514 174 514 173 451 c 6,29,-1
 173 434 l 6,30,31
 173 368 173 368 187 322 c 132,-1,32
 201 276 201 276 234.5 252 c 132,-1,33
 268 228 268 228 326 228 c 4,34,35
 375 228 375 228 406.5 255 c 132,-1,36
 438 282 438 282 453.5 328.5 c 132,-1,37
 469 375 469 375 469 435 c 4,38,39
 469 527 469 527 433.5 582 c 132,-1,40
 398 637 398 637 324 637 c 4,25,26
EndSplineSet
EndChar

StartChar: ccedilla
Encoding: 231 231 115
Width: 339
Flags: W
LayerCount: 2
Fore
SplineSet
298 0 m 1,0,-1
 40 0 l 1,1,-1
 40 52 l 1,2,-1
 124 71 l 1,3,-1
 124 642 l 1,4,-1
 40 662 l 1,5,-1
 40 714 l 1,6,-1
 298 714 l 1,7,-1
 298 662 l 1,8,-1
 214 642 l 1,9,-1
 214 71 l 1,10,-1
 298 52 l 1,11,-1
 298 0 l 1,0,-1
EndSplineSet
EndChar

StartChar: cdotaccent
Encoding: 267 267 116
Width: 510
Flags: W
LayerCount: 2
Fore
SplineSet
1 651 m 1,0,-1
 95 651 l 1,1,-1
 256 316 l 1,2,-1
 260 316 l 5,3,4
 415 651 l 5,5,-1
 510 651 l 1,6,-1
 279 157 l 2,7,8
 245 83 245 83 234.5 69.5 c 0,9,10
 209 32 209 32 172.5 11.5 c 128,-1,11
 136 -9 136 -9 84 -9 c 0,12,13
 60 -9 60 -9 42 -6.5 c 128,-1,14
 24 -4 24 -4 11 -1 c 1,15,-1
 11 69 l 1,16,17
 22 67 22 67 37.5 65 c 128,-1,18
 53 63 53 63 70 63 c 0,19,20
 101 63 101 63 123.5 74.5 c 128,-1,21
 146 86 146 86 162 107.5 c 0,22,23
 178.412667946 131.153550864 178.412667946 131.153550864 189 158 c 2,24,-1
 217 229 l 1,25,-1
 1 651 l 1,0,-1
EndSplineSet
EndChar

StartChar: d
Encoding: 100 100 117
Width: 740
Flags: W
AnchorPoint: "Anchor-1" 740 -24 basechar 0
AnchorPoint: "Anchor-0" 370 -24 basechar 0
LayerCount: 2
Fore
SplineSet
344 425 m 0,0,1
 315 425 315 425 288.5 436 c 128,-1,2
 262 447 262 447 240 477.5 c 128,-1,3
 218 508 218 508 202 564 c 1,4,-1
 285 591 l 1,5,6
 300 536 300 536 314 518 c 128,-1,7
 328 500 328 500 350 500 c 0,8,9
 370 500 370 500 387.5 512.5 c 128,-1,10
 405 525 405 525 437 565 c 2,11,-1
 468 605 l 2,12,13
 502 649 502 649 530.5 675 c 128,-1,14
 559 701 559 701 591 713 c 128,-1,15
 623 725 623 725 667 725 c 1,16,-1
 673 648 l 1,17,18
 638 646 638 646 614.5 637 c 128,-1,19
 591 628 591 628 571.5 608.5 c 128,-1,20
 552 589 552 589 526 556 c 2,21,-1
 503 526 l 2,22,23
 475 490 475 490 450 468 c 128,-1,24
 425 446 425 446 399.5 435.5 c 128,-1,25
 374 425 374 425 344 425 c 0,0,1
546 -12 m 0,26,27
 491 -12 491 -12 452 -0.5 c 128,-1,28
 413 11 413 11 388 32.5 c 128,-1,29
 363 54 363 54 346 84 c 1,30,-1
 362 91 l 1,31,32
 341 48 341 48 315 25.5 c 128,-1,33
 289 3 289 3 260 -4.5 c 128,-1,34
 231 -12 231 -12 198 -12 c 0,35,36
 125 -12 125 -12 80 43 c 128,-1,37
 35 98 35 98 35 194 c 0,38,39
 35 291 35 291 77.5 359 c 128,-1,40
 120 427 120 427 198.5 463.5 c 128,-1,41
 277 500 277 500 383 500 c 0,42,43
 436 500 436 500 481 490.5 c 128,-1,44
 526 481 526 481 565.5 464 c 128,-1,45
 605 447 605 447 642 424 c 1,46,-1
 593 358 l 1,47,48
 559 380 559 380 526 395 c 128,-1,49
 493 410 493 410 457 417.5 c 128,-1,50
 421 425 421 425 377 425 c 0,51,52
 295 425 295 425 237 398.5 c 128,-1,53
 179 372 179 372 148.5 321 c 128,-1,54
 118 270 118 270 118 197 c 0,55,56
 118 127 118 127 142.5 97 c 128,-1,57
 167 67 167 67 210 67 c 0,58,59
 257 67 257 67 283.5 99.5 c 128,-1,60
 310 132 310 132 314 185 c 1,61,-1
 392 185 l 1,62,63
 394 146 394 146 410.5 116 c 128,-1,64
 427 86 427 86 463 76 c 0,65,66
 480 69 480 69 501.5 66 c 128,-1,67
 523 63 523 63 550 63 c 0,68,69
 591 63 591 63 611 80.5 c 128,-1,70
 631 98 631 98 631 129 c 256,71,72
 631 160 631 160 612.5 174 c 128,-1,73
 594 188 594 188 565 188 c 0,74,75
 538 188 538 188 518.5 173.5 c 128,-1,76
 499 159 499 159 499 124 c 0,77,78
 499 99 499 99 509 79 c 128,-1,79
 519 59 519 59 533 46 c 1,80,-1
 467 35 l 1,81,82
 453 57 453 57 441 83 c 128,-1,83
 429 109 429 109 429 141 c 0,84,85
 429 197 429 197 467.5 231 c 128,-1,86
 506 265 506 265 569 265 c 0,87,88
 611 265 611 265 643 248 c 128,-1,89
 675 231 675 231 693 201.5 c 128,-1,90
 711 172 711 172 711 135 c 0,91,92
 711 97 711 97 698.5 69.5 c 128,-1,93
 686 42 686 42 663.5 24 c 128,-1,94
 641 6 641 6 611 -3 c 128,-1,95
 581 -12 581 -12 546 -12 c 0,26,27
EndSplineSet
EndChar

StartChar: dcaron
Encoding: 271 271 118
Width: 572
Flags: W
LayerCount: 2
Fore
SplineSet
493 500 m 0,0,1
 493 457 493 457 476 426 c 128,-1,2
 459 395 459 395 428.5 375 c 128,-1,3
 398 355 398 355 356 344 c 1,4,-1
 356 340 l 1,5,6
 436 328 436 328 475.5 288 c 128,-1,7
 515 248 515 248 515 186 c 0,8,9
 515 129 515 129 486 84.5 c 128,-1,10
 457 40 457 40 396.5 15 c 128,-1,11
 336 -10 336 -10 241 -10 c 0,12,13
 185 -10 185 -10 137 -1.5 c 128,-1,14
 89 7 89 7 45 29 c 1,15,-1
 45 111 l 1,16,17
 90 89 90 89 142 76.5 c 128,-1,18
 194 64 194 64 242 64 c 0,19,20
 340 64 340 64 382.5 97 c 128,-1,21
 425 130 425 130 425 188 c 0,22,23
 425 228 425 228 401 252 c 128,-1,24
 377 276 377 276 332 287.5 c 128,-1,25
 287 299 287 299 223 299 c 2,26,-1
 154 299 l 1,27,-1
 154 374 l 1,28,-1
 224 374 l 2,29,30
 283 374 283 374 323.5 388.5 c 128,-1,31
 364 403 364 403 384.5 430 c 128,-1,32
 405 457 405 457 405 492 c 0,33,34
 405 537 405 537 369.5 562 c 128,-1,35
 334 587 334 587 273 587 c 0,36,37
 215 587 215 587 174 570 c 128,-1,38
 133 553 133 553 93 527 c 1,39,-1
 49 587 l 1,40,41
 87 617 87 617 143.5 639 c 128,-1,42
 200 661 200 661 272 661 c 0,43,44
 384 661 384 661 438.5 615.5 c 128,-1,45
 493 570 493 570 493 500 c 0,0,1
EndSplineSet
EndChar

StartChar: dcroat
Encoding: 273 273 119
Width: 572
Flags: W
LayerCount: 2
Fore
SplineSet
272 402 m 0,0,1
 346 402 346 402 400.5 379.5 c 128,-1,2
 455 357 455 357 485 314 c 128,-1,3
 515 271 515 271 515 209 c 0,4,5
 515 141 515 141 483 92 c 128,-1,6
 451 43 451 43 391.5 16.5 c 128,-1,7
 332 -10 332 -10 248 -10 c 0,8,9
 193 -10 193 -10 144.5 0 c 128,-1,10
 96 10 96 10 63 29 c 1,11,-1
 63 112 l 1,12,13
 99 90 99 90 151.5 77.5 c 128,-1,14
 204 65 204 65 251 65 c 0,15,16
 304 65 304 65 343.5 79.5 c 128,-1,17
 383 94 383 94 405 124.5 c 128,-1,18
 427 155 427 155 427 201 c 0,19,20
 427 263 427 263 384.5 295.5 c 128,-1,21
 342 328 342 328 248 328 c 0,22,23
 219 328 219 328 182.5 323 c 128,-1,24
 146 318 146 318 124 313 c 1,25,-1
 80 341 l 1,26,-1
 107 651 l 1,27,-1
 465 651 l 1,28,-1
 465 571 l 1,29,-1
 179 571 l 1,30,-1
 164 392 l 1,31,32
 181 395 181 395 209 398.5 c 128,-1,33
 237 402 237 402 272 402 c 0,0,1
EndSplineSet
EndChar

StartChar: e
Encoding: 101 101 120
Width: 564
Flags: W
LayerCount: 2
Fore
SplineSet
292 546 m 0,0,1
 361 546 361 546 410.5 516 c 128,-1,2
 460 486 460 486 486.5 431.5 c 128,-1,3
 513 377 513 377 513 304 c 2,4,-1
 513 251 l 1,5,-1
 146 251 l 1,6,7
 148 160 148 160 192.5 112.5 c 128,-1,8
 237 65 237 65 317 65 c 0,9,10
 368 65 368 65 407.5 74.5 c 128,-1,11
 447 84 447 84 489 102 c 1,12,-1
 489 25 l 1,13,14
 448 7 448 7 408 -1.5 c 128,-1,15
 368 -10 368 -10 313 -10 c 0,16,17
 237 -10 237 -10 178.5 21 c 128,-1,18
 120 52 120 52 87.5 113.5 c 128,-1,19
 55 175 55 175 55 264 c 0,20,21
 55 352 55 352 84.5 415 c 128,-1,22
 114 478 114 478 167.5 512 c 128,-1,23
 221 546 221 546 292 546 c 0,0,1
291 474 m 0,24,25
 228 474 228 474 191.5 433.5 c 128,-1,26
 155 393 155 393 148 321 c 1,27,-1
 421 321 l 1,28,29
 421 367 421 367 407 401 c 128,-1,30
 393 435 393 435 364.5 454.5 c 128,-1,31
 336 474 336 474 291 474 c 0,24,25
EndSplineSet
EndChar

StartChar: eacute
Encoding: 233 233 121
Width: 619
Flags: W
LayerCount: 2
Fore
SplineSet
619 0 m 1,0,-1
 513 0 l 1,1,-1
 260 341 l 1,2,-1
 187 277 l 1,3,-1
 187 0 l 1,4,-1
 97 0 l 1,5,-1
 97 714 l 1,6,-1
 187 714 l 1,7,-1
 187 362 l 1,8,9
 217 396 217 396 248 430 c 128,-1,10
 279 464 279 464 310 498 c 2,11,-1
 503 714 l 1,12,-1
 608 714 l 1,13,-1
 325 403 l 1,14,-1
 619 0 l 1,0,-1
EndSplineSet
EndChar

StartChar: edotaccent
Encoding: 279 279 122
Width: 773
Flags: W
LayerCount: 2
Fore
SplineSet
325 362 m 1,0,-1
 325 714 l 1,1,-1
 419 714 l 1,2,-1
 513 443 l 1,3,-1
 610 714 l 1,4,-1
 701 714 l 1,5,-1
 701 362 l 1,6,-1
 637 362 l 1,7,-1
 637 566 l 2,8,9
 637 574 637 574 638 597.5 c 128,-1,10
 639 621 639 621 640 633 c 1,11,-1
 636 633 l 1,12,-1
 535 362 l 1,13,-1
 482 362 l 1,14,-1
 386 633 l 1,15,-1
 382 633 l 1,16,17
 383 617 383 617 384 597 c 128,-1,18
 385 577 385 577 385 571 c 2,19,-1
 385 362 l 1,20,-1
 325 362 l 1,0,-1
118 362 m 1,21,-1
 118 660 l 1,22,-1
 17 660 l 1,23,-1
 17 714 l 1,24,-1
 283 714 l 1,25,-1
 283 660 l 1,26,-1
 181 660 l 1,27,-1
 181 362 l 1,28,-1
 118 362 l 1,21,-1
EndSplineSet
EndChar

StartChar: egrave
Encoding: 232 232 123
Width: 273
Flags: W
LayerCount: 2
Fore
SplineSet
-4 -190 m 0,0,1
 -28 -190 -28 -190 -46 -186.5 c 128,-1,2
 -64 -183 -64 -183 -78 -177 c 1,3,-1
 -78 -101 l 1,4,5
 -62 -105 -62 -105 -44 -108 c 128,-1,6
 -26 -111 -26 -111 -6 -111 c 0,7,8
 19 -111 19 -111 41.5 -101 c 128,-1,9
 64 -91 64 -91 78 -66 c 128,-1,10
 92 -41 92 -41 92 4 c 2,11,-1
 92 714 l 1,12,-1
 182 714 l 1,13,-1
 182 11 l 2,14,15
 182 -58 182 -58 159 -102.5 c 128,-1,16
 136 -147 136 -147 94 -168.5 c 128,-1,17
 52 -190 52 -190 -4 -190 c 0,0,1
EndSplineSet
EndChar

StartChar: emacron
Encoding: 275 275 124
Width: 572
Flags: W
LayerCount: 2
Fore
SplineSet
136 0 m 1,0,-1
 429 571 l 1,1,-1
 44 571 l 1,2,-1
 44 651 l 1,3,-1
 523 651 l 1,4,-1
 523 583 l 1,5,-1
 233 0 l 1,6,-1
 136 0 l 1,0,-1
EndSplineSet
EndChar

StartChar: f
Encoding: 102 102 125
Width: 711
Flags: W
AnchorPoint: "Anchor-0" 355 -24 basechar 0
LayerCount: 2
Fore
SplineSet
197 425 m 0,0,1
 168 425 168 425 141.5 436 c 128,-1,2
 115 447 115 447 93 477.5 c 128,-1,3
 71 508 71 508 55 564 c 1,4,-1
 138 591 l 1,5,6
 153 536 153 536 167 518 c 128,-1,7
 181 500 181 500 203 500 c 0,8,9
 223 500 223 500 240.5 512.5 c 128,-1,10
 258 525 258 525 290 565 c 2,11,-1
 321 605 l 2,12,13
 355 649 355 649 383.5 675 c 128,-1,14
 412 701 412 701 444 713 c 128,-1,15
 476 725 476 725 520 725 c 1,16,-1
 526 648 l 1,17,18
 491 646 491 646 467.5 637 c 128,-1,19
 444 628 444 628 424.5 608.5 c 128,-1,20
 405 589 405 589 379 556 c 2,21,-1
 356 526 l 2,22,23
 328 490 328 490 303 468 c 128,-1,24
 278 446 278 446 252.5 435.5 c 128,-1,25
 227 425 227 425 197 425 c 0,0,1
485 -12 m 0,26,27
 437 -12 437 -12 401.5 6 c 128,-1,28
 366 24 366 24 336 56 c 128,-1,29
 306 88 306 88 273 131 c 0,30,31
 244 171 244 171 223 189 c 128,-1,32
 202 207 202 207 172 207 c 0,33,34
 144 207 144 207 125.5 189 c 128,-1,35
 107 171 107 171 107 136 c 0,36,37
 107 105 107 105 126.5 84 c 128,-1,38
 146 63 146 63 180 63 c 256,39,40
 214 63 214 63 236.5 83 c 128,-1,41
 259 103 259 103 275 141 c 1,42,-1
 328 81 l 1,43,44
 309 54 309 54 288 33 c 128,-1,45
 267 12 267 12 240.5 0 c 128,-1,46
 214 -12 214 -12 175 -12 c 0,47,48
 122 -12 122 -12 90 10 c 128,-1,49
 58 32 58 32 43.5 66.5 c 128,-1,50
 29 101 29 101 29 138 c 0,51,52
 29 182 29 182 48 214 c 128,-1,53
 67 246 67 246 99 264 c 128,-1,54
 131 282 131 282 170 282 c 0,55,56
 206 282 206 282 234 269.5 c 128,-1,57
 262 257 262 257 289 230.5 c 128,-1,58
 316 204 316 204 348 161 c 0,59,60
 375 126 375 126 396 105 c 128,-1,61
 417 84 417 84 439 75.5 c 128,-1,62
 461 67 461 67 490 67 c 0,63,64
 540 67 540 67 566.5 99.5 c 128,-1,65
 593 132 593 132 593 193 c 0,66,67
 593 251 593 251 570 294.5 c 128,-1,68
 547 338 547 338 507 369.5 c 128,-1,69
 467 401 467 401 417 423 c 1,70,-1
 455 500 l 1,71,72
 517 474 517 474 567 430 c 128,-1,73
 617 386 617 386 646.5 327.5 c 128,-1,74
 676 269 676 269 676 198 c 0,75,76
 676 132 676 132 653.5 85 c 128,-1,77
 631 38 631 38 588.5 13 c 128,-1,78
 546 -12 546 -12 485 -12 c 0,26,27
280 -125 m 1,79,-1
 287 16 l 1,80,-1
 362 16 l 1,81,-1
 370 -125 l 1,82,-1
 280 -125 l 1,79,-1
EndSplineSet
EndChar

StartChar: g
Encoding: 103 103 126
Width: 615
Flags: W
LayerCount: 2
Fore
SplineSet
275 546 m 0,0,1
 328 546 328 546 370.5 526 c 128,-1,2
 413 506 413 506 443 465 c 1,3,-1
 448 465 l 1,4,-1
 460 536 l 1,5,-1
 530 536 l 1,6,-1
 530 -9 l 2,7,8
 530 -85 530 -85 504 -136.5 c 128,-1,9
 478 -188 478 -188 425 -214 c 128,-1,10
 372 -240 372 -240 290 -240 c 0,11,12
 232 -240 232 -240 183.5 -231.5 c 128,-1,13
 135 -223 135 -223 97 -206 c 1,14,-1
 97 -125 l 1,15,16
 135 -145 135 -145 186 -156 c 128,-1,17
 237 -167 237 -167 295 -167 c 0,18,19
 364 -167 364 -167 403.5 -126.5 c 128,-1,20
 443 -86 443 -86 443 -16 c 2,21,-1
 443 5 l 2,22,23
 443 17 443 17 444 39.5 c 128,-1,24
 445 62 445 62 446 71 c 1,25,-1
 442 71 l 1,26,27
 414 30 414 30 372.5 10 c 128,-1,28
 331 -10 331 -10 276 -10 c 0,29,30
 172 -10 172 -10 113.5 63 c 128,-1,31
 55 136 55 136 55 267 c 0,32,33
 55 395 55 395 113.5 470.5 c 128,-1,34
 172 546 172 546 275 546 c 0,0,1
287 472 m 0,35,36
 242 472 242 472 210.5 448 c 128,-1,37
 179 424 179 424 162.5 378 c 128,-1,38
 146 332 146 332 146 266 c 0,39,40
 146 167 146 167 182.5 114.5 c 128,-1,41
 219 62 219 62 289 62 c 0,42,43
 330 62 330 62 359 72.5 c 128,-1,44
 388 83 388 83 407 105.5 c 128,-1,45
 426 128 426 128 435 163 c 128,-1,46
 444 198 444 198 444 246 c 2,47,-1
 444 267 l 2,48,49
 444 340 444 340 427.5 385 c 128,-1,50
 411 430 411 430 376 451 c 128,-1,51
 341 472 341 472 287 472 c 0,35,36
EndSplineSet
EndChar

StartChar: h
Encoding: 104 104 127
Width: 618
Flags: W
LayerCount: 2
Fore
SplineSet
173 537 m 2,0,1
 173 518 173 518 171.5 498 c 128,-1,2
 170 478 170 478 168 462 c 1,3,-1
 174 462 l 1,4,5
 191 490 191 490 217 508 c 128,-1,6
 243 526 243 526 275 535.5 c 128,-1,7
 307 545 307 545 341 545 c 0,8,9
 406 545 406 545 449.5 524.5 c 128,-1,10
 493 504 493 504 515 461 c 128,-1,11
 537 418 537 418 537 349 c 2,12,-1
 537 0 l 1,13,-1
 450 0 l 1,14,-1
 450 343 l 2,15,16
 450 408 450 408 421 440 c 128,-1,17
 392 472 392 472 330 472 c 0,18,19
 270 472 270 472 236 449.5 c 128,-1,20
 202 427 202 427 187.5 383.5 c 128,-1,21
 173 340 173 340 173 277 c 2,22,-1
 173 0 l 1,23,-1
 85 0 l 1,24,-1
 85 760 l 1,25,-1
 173 760 l 1,26,-1
 173 537 l 2,0,1
EndSplineSet
EndChar

StartChar: i
Encoding: 105 105 128
Width: 258
Flags: W
LayerCount: 2
Fore
SplineSet
173 536 m 1,0,-1
 173 0 l 1,1,-1
 85 0 l 1,2,-1
 85 536 l 1,3,-1
 173 536 l 1,0,-1
130 737 m 0,4,5
 150 737 150 737 165.5 723.5 c 128,-1,6
 181 710 181 710 181 681 c 0,7,8
 181 653 181 653 165.5 639 c 128,-1,9
 150 625 150 625 130 625 c 0,10,11
 108 625 108 625 93 639 c 128,-1,12
 78 653 78 653 78 681 c 0,13,14
 78 710 78 710 93 723.5 c 128,-1,15
 108 737 108 737 130 737 c 0,4,5
EndSplineSet
Substitution2: "Single Substitution lookup 97 subtable" dotlessi
Substitution2: "Single Substitution lookup 96 subtable" dotlessi
EndChar

StartChar: j
Encoding: 106 106 129
Width: 470
Flags: W
LayerCount: 2
Fore
SplineSet
280 606 m 4,0,1
 231 606 231 606 201 634 c 132,-1,2
 171 662 171 662 171 712 c 260,3,4
 171 762 171 762 201 789.5 c 132,-1,5
 231 817 231 817 280 817 c 4,6,7
 327 817 327 817 359 789.5 c 132,-1,8
 391 762 391 762 391 713 c 4,9,10
 391 662 391 662 359.5 634 c 132,-1,11
 328 606 328 606 280 606 c 4,0,1
280 656 m 4,12,13
 305 656 305 656 320.5 671 c 132,-1,14
 336 686 336 686 336 712 c 260,15,16
 336 738 336 738 320 753 c 132,-1,17
 304 768 304 768 280 768 c 260,18,19
 256 768 256 768 240 753 c 132,-1,20
 224 738 224 738 224 712 c 260,21,22
 224 686 224 686 238.5 671 c 132,-1,23
 253 656 253 656 280 656 c 4,12,13
431 0 m 1,24,-1
 39 0 l 1,25,-1
 39 58 l 1,26,-1
 327 468 l 1,27,-1
 56 468 l 1,28,-1
 56 536 l 1,29,-1
 424 536 l 1,30,-1
 424 470 l 1,31,-1
 140 68 l 1,32,-1
 431 68 l 1,33,-1
 431 0 l 1,24,-1
EndSplineSet
Substitution2: "Single Substitution lookup 97 subtable" uni0237
Substitution2: "Single Substitution lookup 96 subtable" uni0237
EndChar

StartChar: k
Encoding: 107 107 130
Width: 522
Flags: W
AnchorPoint: "Anchor-1" 522 -24 basechar 0
AnchorPoint: "Anchor-0" 261 -24 basechar 0
LayerCount: 2
Fore
SplineSet
234 425 m 0,0,1
 205 425 205 425 178.5 436 c 128,-1,2
 152 447 152 447 130 477.5 c 128,-1,3
 108 508 108 508 92 564 c 1,4,-1
 175 591 l 1,5,6
 190 536 190 536 204 518 c 128,-1,7
 218 500 218 500 240 500 c 0,8,9
 260 500 260 500 277.5 512.5 c 128,-1,10
 295 525 295 525 327 565 c 2,11,-1
 358 605 l 2,12,13
 392 649 392 649 420.5 675 c 128,-1,14
 449 701 449 701 481 713 c 128,-1,15
 513 725 513 725 557 725 c 1,16,-1
 563 648 l 1,17,18
 528 646 528 646 504.5 637 c 128,-1,19
 481 628 481 628 461.5 608.5 c 128,-1,20
 442 589 442 589 416 556 c 2,21,-1
 393 526 l 2,22,23
 365 490 365 490 340 468 c 128,-1,24
 315 446 315 446 289.5 435.5 c 128,-1,25
 264 425 264 425 234 425 c 0,0,1
264 -12 m 0,26,27
 200 -12 200 -12 148.5 6 c 128,-1,28
 97 24 97 24 63.5 59 c 128,-1,29
 30 94 30 94 18 146 c 1,30,-1
 104 169 l 1,31,32
 113 138 113 138 131.5 115 c 128,-1,33
 150 92 150 92 182.5 79.5 c 128,-1,34
 215 67 215 67 267 67 c 0,35,36
 320 67 320 67 350.5 76.5 c 128,-1,37
 381 86 381 86 394.5 102.5 c 128,-1,38
 408 119 408 119 408 141 c 0,39,40
 408 161 408 161 398 176 c 128,-1,41
 388 191 388 191 364 200.5 c 128,-1,42
 340 210 340 210 297 213 c 2,43,-1
 232 218 l 2,44,45
 180 222 180 222 142.5 230.5 c 128,-1,46
 105 239 105 239 81 258 c 0,47,48
 60 274 60 274 48.5 298.5 c 128,-1,49
 37 323 37 323 37 357 c 0,50,51
 37 398 37 398 61 430.5 c 128,-1,52
 85 463 85 463 132.5 481.5 c 128,-1,53
 180 500 180 500 252 500 c 0,54,55
 318 500 318 500 362.5 487.5 c 128,-1,56
 407 475 407 475 436.5 444.5 c 128,-1,57
 466 414 466 414 484 360 c 1,58,-1
 398 338 l 1,59,60
 389 367 389 367 372.5 386.5 c 128,-1,61
 356 406 356 406 327 415.5 c 128,-1,62
 298 425 298 425 252 425 c 0,63,64
 202 425 202 425 173 416 c 128,-1,65
 144 407 144 407 132 392 c 128,-1,66
 120 377 120 377 120 358 c 0,67,68
 120 331 120 331 142.5 315.5 c 128,-1,69
 165 300 165 300 231 295 c 2,70,-1
 308 290 l 2,71,72
 360 286 360 286 392.5 275 c 128,-1,73
 425 264 425 264 446 247 c 0,74,75
 469 228 469 228 480 201 c 128,-1,76
 491 174 491 174 491 142 c 0,77,78
 491 92 491 92 465.5 57.5 c 128,-1,79
 440 23 440 23 389.5 5.5 c 128,-1,80
 339 -12 339 -12 264 -12 c 0,26,27
EndSplineSet
EndChar

StartChar: l
Encoding: 108 108 131
Width: 709
Flags: W
AnchorPoint: "Anchor-1" 709 -24 basechar 0
AnchorPoint: "Anchor-0" 354 -24 basechar 0
LayerCount: 2
Fore
SplineSet
356 -12 m 0,0,1
 251 -12 251 -12 179.5 24 c 128,-1,2
 108 60 108 60 71.5 123.5 c 128,-1,3
 35 187 35 187 35 269 c 0,4,5
 35 343 35 343 60.5 394.5 c 128,-1,6
 86 446 86 446 129 473 c 128,-1,7
 172 500 172 500 225 500 c 0,8,9
 265 500 265 500 294.5 484.5 c 128,-1,10
 324 469 324 469 340.5 440.5 c 128,-1,11
 357 412 357 412 357 373 c 0,12,13
 357 333 357 333 340 301.5 c 128,-1,14
 323 270 323 270 288.5 252.5 c 128,-1,15
 254 235 254 235 201 235 c 0,16,17
 168 235 168 235 140 246 c 128,-1,18
 112 257 112 257 91.5 273 c 128,-1,19
 71 289 71 289 58 304 c 1,20,-1
 81 366 l 1,21,22
 89 355 89 355 103.5 340.5 c 128,-1,23
 118 326 118 326 141 315.5 c 128,-1,24
 164 305 164 305 196 305 c 0,25,26
 237 305 237 305 257.5 322 c 128,-1,27
 278 339 278 339 278 369 c 0,28,29
 278 398 278 398 262 413.5 c 128,-1,30
 246 429 246 429 220 429 c 0,31,32
 172 429 172 429 143 390 c 128,-1,33
 114 351 114 351 114 284 c 2,34,-1
 114 266 l 2,35,36
 114 226 114 226 128.5 190.5 c 128,-1,37
 143 155 143 155 172 127 c 128,-1,38
 201 99 201 99 246.5 83 c 128,-1,39
 292 67 292 67 353 67 c 0,40,41
 463 67 463 67 527 113 c 128,-1,42
 591 159 591 159 591 245 c 0,43,44
 591 303 591 303 558.5 349 c 128,-1,45
 526 395 526 395 457 423 c 1,46,-1
 497 500 l 1,47,48
 580 464 580 464 627 400 c 128,-1,49
 674 336 674 336 674 250 c 0,50,51
 674 176 674 176 641 116.5 c 128,-1,52
 608 57 608 57 537.5 22.5 c 128,-1,53
 467 -12 467 -12 356 -12 c 0,0,1
EndSplineSet
EndChar

StartChar: m
Encoding: 109 109 132
Width: 1058
Flags: W
AnchorPoint: "Anchor-1" 1058 -24 basechar 0
AnchorPoint: "Anchor-0" 529 -24 basechar 0
LayerCount: 2
Fore
SplineSet
239 425 m 0,0,1
 210 425 210 425 183.5 436 c 128,-1,2
 157 447 157 447 135 477.5 c 128,-1,3
 113 508 113 508 97 564 c 1,4,-1
 180 591 l 1,5,6
 195 536 195 536 209 518 c 128,-1,7
 223 500 223 500 245 500 c 0,8,9
 265 500 265 500 282.5 512.5 c 128,-1,10
 300 525 300 525 332 565 c 2,11,-1
 363 605 l 2,12,13
 397 649 397 649 425.5 675 c 128,-1,14
 454 701 454 701 486 713 c 128,-1,15
 518 725 518 725 562 725 c 1,16,-1
 568 648 l 1,17,18
 533 646 533 646 509.5 637 c 128,-1,19
 486 628 486 628 466.5 608.5 c 128,-1,20
 447 589 447 589 421 556 c 2,21,-1
 398 526 l 2,22,23
 370 490 370 490 345 468 c 128,-1,24
 320 446 320 446 294.5 435.5 c 128,-1,25
 269 425 269 425 239 425 c 0,0,1
481 -12 m 0,26,27
 435 -12 435 -12 400 6 c 128,-1,28
 365 24 365 24 335.5 56 c 128,-1,29
 306 88 306 88 273 131 c 0,30,31
 244 171 244 171 223 189 c 128,-1,32
 202 207 202 207 172 207 c 0,33,34
 144 207 144 207 125.5 189 c 128,-1,35
 107 171 107 171 107 136 c 0,36,37
 107 105 107 105 126.5 84 c 128,-1,38
 146 63 146 63 180 63 c 256,39,40
 214 63 214 63 236.5 83 c 128,-1,41
 259 103 259 103 275 141 c 1,42,-1
 328 81 l 1,43,44
 309 54 309 54 288 33 c 128,-1,45
 267 12 267 12 240.5 0 c 128,-1,46
 214 -12 214 -12 175 -12 c 0,47,48
 122 -12 122 -12 90 10 c 128,-1,49
 58 32 58 32 43.5 66.5 c 128,-1,50
 29 101 29 101 29 138 c 0,51,52
 29 182 29 182 48 214 c 128,-1,53
 67 246 67 246 99 264 c 128,-1,54
 131 282 131 282 170 282 c 0,55,56
 206 282 206 282 234 269.5 c 128,-1,57
 262 257 262 257 289 230.5 c 128,-1,58
 316 204 316 204 348 161 c 0,59,60
 375 126 375 126 396 105 c 128,-1,61
 417 84 417 84 438 75.5 c 128,-1,62
 459 67 459 67 486 67 c 0,63,64
 539 67 539 67 566 99 c 128,-1,65
 593 131 593 131 593 192 c 0,66,67
 593 249 593 249 570 292.5 c 128,-1,68
 547 336 547 336 506 365.5 c 128,-1,69
 465 395 465 395 410 410 c 128,-1,70
 355 425 355 425 292 425 c 2,71,-1
 243 425 l 1,72,-1
 326 500 l 1,73,74
 437 493 437 493 515.5 452.5 c 128,-1,75
 594 412 594 412 635 345.5 c 128,-1,76
 676 279 676 279 676 194 c 0,77,78
 676 135 676 135 655 88 c 128,-1,79
 634 41 634 41 590.5 14.5 c 128,-1,80
 547 -12 547 -12 481 -12 c 0,26,27
828 -12 m 0,81,82
 761 -12 761 -12 710.5 22 c 128,-1,83
 660 56 660 56 621 111 c 1,84,-1
 661 176 l 1,85,86
 689 139 689 139 716.5 115 c 128,-1,87
 744 91 744 91 773.5 79 c 128,-1,88
 803 67 803 67 835 67 c 0,89,90
 886 67 886 67 913 99.5 c 128,-1,91
 940 132 940 132 940 193 c 0,92,93
 940 251 940 251 916.5 294.5 c 128,-1,94
 893 338 893 338 853.5 369.5 c 128,-1,95
 814 401 814 401 764 423 c 1,96,-1
 801 500 l 1,97,98
 863 474 863 474 913 430 c 128,-1,99
 963 386 963 386 993 328 c 128,-1,100
 1023 270 1023 270 1023 199 c 0,101,102
 1023 100 1023 100 973 44 c 128,-1,103
 923 -12 923 -12 828 -12 c 0,81,82
EndSplineSet
EndChar

StartChar: n
Encoding: 110 110 133
Width: 702
Flags: W
AnchorPoint: "Anchor-1" 702 -24 basechar 0
AnchorPoint: "Anchor-0" 351 -24 basechar 0
LayerCount: 2
Fore
SplineSet
472 -12 m 0,0,1
 425 -12 425 -12 390 3.5 c 128,-1,2
 355 19 355 19 324 51.5 c 128,-1,3
 293 84 293 84 256 133 c 0,4,5
 235 162 235 162 220.5 178.5 c 128,-1,6
 206 195 206 195 193.5 202 c 128,-1,7
 181 209 181 209 164 209 c 0,8,9
 141 209 141 209 126 190.5 c 128,-1,10
 111 172 111 172 111 143 c 0,11,12
 111 108 111 108 123 77 c 128,-1,13
 135 46 135 46 159 14 c 1,14,-1
 78 -13 l 1,15,16
 56 22 56 22 42.5 59.5 c 128,-1,17
 29 97 29 97 29 143 c 0,18,19
 29 184 29 184 46.5 216 c 128,-1,20
 64 248 64 248 94.5 267 c 128,-1,21
 125 286 125 286 165 286 c 0,22,23
 204 286 204 286 230.5 272.5 c 128,-1,24
 257 259 257 259 279.5 234.5 c 128,-1,25
 302 210 302 210 328 175 c 0,26,27
 358 136 358 136 380.5 112 c 128,-1,28
 403 88 403 88 425.5 77.5 c 128,-1,29
 448 67 448 67 478 67 c 0,30,31
 530 67 530 67 557 100 c 128,-1,32
 584 133 584 133 584 194 c 0,33,34
 584 250 584 250 561 293 c 128,-1,35
 538 336 538 336 497 365.5 c 128,-1,36
 456 395 456 395 401 410 c 128,-1,37
 346 425 346 425 282 425 c 2,38,-1
 238 425 l 1,39,-1
 316 500 l 1,40,41
 428 493 428 493 506 452.5 c 128,-1,42
 584 412 584 412 625.5 345.5 c 128,-1,43
 667 279 667 279 667 194 c 0,44,45
 667 132 667 132 645 85.5 c 128,-1,46
 623 39 623 39 580 13.5 c 128,-1,47
 537 -12 537 -12 472 -12 c 0,0,1
236 425 m 0,48,49
 207 425 207 425 180.5 436 c 128,-1,50
 154 447 154 447 132 477.5 c 128,-1,51
 110 508 110 508 94 564 c 1,52,-1
 177 591 l 1,53,54
 192 536 192 536 206 518 c 128,-1,55
 220 500 220 500 242 500 c 0,56,57
 262 500 262 500 279.5 512.5 c 128,-1,58
 297 525 297 525 329 565 c 2,59,-1
 360 605 l 2,60,61
 394 649 394 649 422.5 675 c 128,-1,62
 451 701 451 701 483 713 c 128,-1,63
 515 725 515 725 559 725 c 1,64,-1
 565 648 l 1,65,66
 530 646 530 646 506.5 637 c 128,-1,67
 483 628 483 628 463.5 608.5 c 128,-1,68
 444 589 444 589 418 556 c 2,69,-1
 395 526 l 2,70,71
 367 490 367 490 342 468 c 128,-1,72
 317 446 317 446 291.5 435.5 c 128,-1,73
 266 425 266 425 236 425 c 0,48,49
EndSplineSet
EndChar

StartChar: o
Encoding: 111 111 134
Width: 605
Flags: W
LayerCount: 2
Fore
SplineSet
551 269 m 0,0,1
 551 202 551 202 533.5 150.5 c 128,-1,2
 516 99 516 99 483.5 63 c 128,-1,3
 451 27 451 27 404.5 8.5 c 128,-1,4
 358 -10 358 -10 301 -10 c 0,5,6
 248 -10 248 -10 203 8.5 c 128,-1,7
 158 27 158 27 125 63 c 128,-1,8
 92 99 92 99 73.5 150.5 c 128,-1,9
 55 202 55 202 55 269 c 0,10,11
 55 358 55 358 85 419.5 c 128,-1,12
 115 481 115 481 171 513.5 c 128,-1,13
 227 546 227 546 304 546 c 0,14,15
 377 546 377 546 432.5 513.5 c 128,-1,16
 488 481 488 481 519.5 419.5 c 128,-1,17
 551 358 551 358 551 269 c 0,0,1
146 269 m 0,18,19
 146 206 146 206 162.5 159.5 c 128,-1,20
 179 113 179 113 214 88 c 128,-1,21
 249 63 249 63 303 63 c 256,22,23
 357 63 357 63 392 88 c 128,-1,24
 427 113 427 113 443.5 159.5 c 128,-1,25
 460 206 460 206 460 269 c 0,26,27
 460 333 460 333 443 378 c 128,-1,28
 426 423 426 423 391.5 447.5 c 128,-1,29
 357 472 357 472 302 472 c 0,30,31
 220 472 220 472 183 418 c 128,-1,32
 146 364 146 364 146 269 c 0,18,19
EndSplineSet
EndChar

StartChar: oacute
Encoding: 243 243 135
Width: 731
Flags: W
LayerCount: 2
Fore
SplineSet
640 252 m 2,0,1
 640 178 640 178 610 118.5 c 128,-1,2
 580 59 580 59 518.5 24.5 c 128,-1,3
 457 -10 457 -10 362 -10 c 0,4,5
 229 -10 229 -10 159.5 62.5 c 128,-1,6
 90 135 90 135 90 254 c 2,7,-1
 90 714 l 1,8,-1
 180 714 l 1,9,-1
 180 251 l 2,10,11
 180 164 180 164 226.5 116 c 128,-1,12
 273 68 273 68 367 68 c 0,13,14
 432 68 432 68 472.5 91.5 c 128,-1,15
 513 115 513 115 532 156.5 c 128,-1,16
 551 198 551 198 551 252 c 2,17,-1
 551 714 l 1,18,-1
 640 714 l 1,19,-1
 640 252 l 2,0,1
EndSplineSet
EndChar

StartChar: ocircumflex
Encoding: 244 244 136
Width: 600
Flags: W
LayerCount: 2
Fore
SplineSet
600 714 m 1,0,-1
 345 0 l 1,1,-1
 255 0 l 1,2,-1
 0 714 l 1,3,-1
 94 714 l 1,4,-1
 255 256 l 2,5,6
 266 227 266 227 274 200 c 128,-1,7
 282 173 282 173 288.5 148.5 c 128,-1,8
 295 124 295 124 300 100 c 1,9,10
 305 124 305 124 311.5 149 c 128,-1,11
 318 174 318 174 326.5 201 c 128,-1,12
 335 228 335 228 345 258 c 2,13,-1
 505 714 l 1,14,-1
 600 714 l 1,0,-1
EndSplineSet
EndChar

StartChar: odieresis
Encoding: 246 246 137
Width: 632
Flags: W
LayerCount: 2
Fore
SplineSet
582 0 m 1,0,-1
 480 0 l 1,1,-1
 291 310 l 1,2,-1
 99 0 l 1,3,-1
 4 0 l 1,4,-1
 241 372 l 1,5,-1
 19 714 l 1,6,-1
 119 714 l 1,7,-1
 294 434 l 1,8,-1
 470 714 l 1,9,-1
 565 714 l 1,10,-1
 344 374 l 1,11,-1
 582 0 l 1,0,-1
EndSplineSet
EndChar

StartChar: oslash
Encoding: 248 248 138
Width: 572
Flags: W
LayerCount: 2
Fore
SplineSet
533 0 m 1,0,-1
 38 0 l 1,1,-1
 38 68 l 1,2,-1
 414 634 l 1,3,-1
 50 634 l 1,4,-1
 50 714 l 1,5,-1
 523 714 l 1,6,-1
 523 646 l 1,7,-1
 147 80 l 1,8,-1
 533 80 l 1,9,-1
 533 0 l 1,0,-1
EndSplineSet
EndChar

StartChar: otilde
Encoding: 245 245 139
Width: 561
Flags: W
LayerCount: 2
Fore
SplineSet
917 714 m 1,0,-1
 727 0 l 1,1,-1
 636 0 l 1,2,-1
 497 468 l 2,3,4
 491 489 491 489 485 511 c 128,-1,5
 479 533 479 533 474 553 c 128,-1,6
 469 573 469 573 465.5 587.5 c 128,-1,7
 462 602 462 602 461 609 c 1,8,9
 460 602 460 602 457.5 587.5 c 128,-1,10
 455 573 455 573 450 553 c 128,-1,11
 445 533 445 533 439.5 510.5 c 128,-1,12
 434 488 434 488 427 465 c 2,13,-1
 292 0 l 1,14,-1
 201 0 l 1,15,-1
 12 714 l 1,16,-1
 106 714 l 1,17,-1
 217 278 l 2,18,19
 223 255 223 255 228 232.5 c 128,-1,20
 233 210 233 210 237.5 188.5 c 128,-1,21
 242 167 242 167 245 147 c 128,-1,22
 248 127 248 127 251 108 c 1,23,24
 254 128 254 128 257.5 149 c 128,-1,25
 261 170 261 170 266 192.5 c 128,-1,26
 271 215 271 215 277 238 c 128,-1,27
 283 261 283 261 289 283 c 2,28,-1
 415 714 l 1,29,-1
 508 714 l 1,30,-1
 639 280 l 2,31,32
 646 257 646 257 652 233.5 c 128,-1,33
 658 210 658 210 663 188 c 128,-1,34
 668 166 668 166 671.5 145.5 c 128,-1,35
 675 125 675 125 678 108 c 1,36,37
 681 133 681 133 686 160.5 c 128,-1,38
 691 188 691 188 698 218 c 128,-1,39
 705 248 705 248 713 279 c 2,40,-1
 823 714 l 1,41,-1
 917 714 l 1,0,-1
EndSplineSet
EndChar

StartChar: p
Encoding: 112 112 140
Width: 711
Flags: W
AnchorPoint: "Anchor-0" 355 -24 basechar 0
LayerCount: 2
Fore
SplineSet
197 425 m 0,0,1
 168 425 168 425 141.5 436 c 128,-1,2
 115 447 115 447 93 477.5 c 128,-1,3
 71 508 71 508 55 564 c 1,4,-1
 138 591 l 1,5,6
 153 536 153 536 167 518 c 128,-1,7
 181 500 181 500 203 500 c 0,8,9
 223 500 223 500 240.5 512.5 c 128,-1,10
 258 525 258 525 290 565 c 2,11,-1
 321 605 l 2,12,13
 355 649 355 649 383.5 675 c 128,-1,14
 412 701 412 701 444 713 c 128,-1,15
 476 725 476 725 520 725 c 1,16,-1
 526 648 l 1,17,18
 491 646 491 646 467.5 637 c 128,-1,19
 444 628 444 628 424.5 608.5 c 128,-1,20
 405 589 405 589 379 556 c 2,21,-1
 356 526 l 2,22,23
 328 490 328 490 303 468 c 128,-1,24
 278 446 278 446 252.5 435.5 c 128,-1,25
 227 425 227 425 197 425 c 0,0,1
485 -12 m 0,26,27
 437 -12 437 -12 401.5 6 c 128,-1,28
 366 24 366 24 336 56 c 128,-1,29
 306 88 306 88 273 131 c 0,30,31
 244 171 244 171 223 189 c 128,-1,32
 202 207 202 207 172 207 c 0,33,34
 144 207 144 207 125.5 189 c 128,-1,35
 107 171 107 171 107 136 c 0,36,37
 107 105 107 105 126.5 84 c 128,-1,38
 146 63 146 63 180 63 c 256,39,40
 214 63 214 63 236.5 83 c 128,-1,41
 259 103 259 103 275 141 c 1,42,-1
 328 81 l 1,43,44
 309 54 309 54 288 33 c 128,-1,45
 267 12 267 12 240.5 0 c 128,-1,46
 214 -12 214 -12 175 -12 c 0,47,48
 122 -12 122 -12 90 10 c 128,-1,49
 58 32 58 32 43.5 66.5 c 128,-1,50
 29 101 29 101 29 138 c 0,51,52
 29 182 29 182 48 214 c 128,-1,53
 67 246 67 246 99 264 c 128,-1,54
 131 282 131 282 170 282 c 0,55,56
 206 282 206 282 234 269.5 c 128,-1,57
 262 257 262 257 289 230.5 c 128,-1,58
 316 204 316 204 348 161 c 0,59,60
 375 126 375 126 396 105 c 128,-1,61
 417 84 417 84 439 75.5 c 128,-1,62
 461 67 461 67 490 67 c 0,63,64
 540 67 540 67 566.5 99.5 c 128,-1,65
 593 132 593 132 593 193 c 0,66,67
 593 251 593 251 570 294.5 c 128,-1,68
 547 338 547 338 507 369.5 c 128,-1,69
 467 401 467 401 417 423 c 1,70,-1
 455 500 l 1,71,72
 517 474 517 474 567 430 c 128,-1,73
 617 386 617 386 646.5 327.5 c 128,-1,74
 676 269 676 269 676 198 c 0,75,76
 676 132 676 132 653.5 85 c 128,-1,77
 631 38 631 38 588.5 13 c 128,-1,78
 546 -12 546 -12 485 -12 c 0,26,27
EndSplineSet
EndChar

StartChar: thorn
Encoding: 254 254 141
Width: 632
Flags: W
LayerCount: 2
Fore
SplineSet
376.888671875 409.82421875 m 6,0,1
 376.888671875 391.015625 376.888671875 391.015625 376.088867188 388.259765625 c 4,2,3
 375.3203125 377 375.3203125 377 374.223632812 368.352539062 c 5,4,-1
 377.421875 368.352539062 l 5,5,6
 386.240234375 383.719726562 386.240234375 383.719726562 400.334960938 393.7890625 c 4,7,8
 413.959960938 403.879882812 413.959960938 403.879882812 431.243164062 408.995117188 c 4,9,10
 448.400390625 414.440429688 448.400390625 414.440429688 466.415039062 414.248046875 c 4,11,12
 501.3203125 414.440429688 501.3203125 414.440429688 524.233398438 402.912109375 c 4,13,14
 547.51953125 391.400390625 547.51953125 391.400390625 559.138671875 367.80078125 c 4,15,16
 570.862304688 344.7109375 570.862304688 344.7109375 570.862304688 305.868164062 c 6,17,-1
 570.862304688 134.004882812 l 5,18,-1
 516.940429688 134.004882812 l 5,19,-1
 516.940429688 263.190429688 l 6,20,21
 517.280273438 299.240234375 517.280273438 299.240234375 501.486328125 316.827148438 c 4,22,23
 486.200195312 334.759765625 486.200195312 334.759765625 452.993164062 334.521484375 c 4,24,25
 420.6796875 334.759765625 420.6796875 334.759765625 402.901367188 322.080078125 c 4,26,27
 384.559570312 309.799804688 384.559570312 309.799804688 377.0546875 285.584960938 c 4,28,29
 369.328125 261.451171875 369.328125 261.451171875 369.328125 226.6953125 c 6,30,-1
 369.328125 134.004882812 l 5,31,-1
 311.513671875 134.004882812 l 5,32,-1
 311.513671875 533.133789062 l 5,33,-1
 376.888671875 533.133789062 l 5,34,-1
 376.888671875 409.82421875 l 6,0,1
403 645 m 0,35,36
 346 645 346 645 300 625.5 c 128,-1,37
 254 606 254 606 222 568.5 c 128,-1,38
 190 531 190 531 173 477.5 c 128,-1,39
 156 424 156 424 156 357 c 0,40,41
 156 269 156 269 183.5 204 c 128,-1,42
 211 139 211 139 265.5 104 c 128,-1,43
 320 69 320 69 402 69 c 0,44,45
 449 69 449 69 491 77 c 128,-1,46
 533 85 533 85 573 97 c 1,47,-1
 573 19 l 1,48,49
 533 4 533 4 490.5 -3 c 128,-1,50
 448 -10 448 -10 389 -10 c 0,51,52
 280 -10 280 -10 207 35 c 128,-1,53
 134 80 134 80 97.5 163 c 128,-1,54
 61 246 61 246 61 358 c 0,55,56
 61 439 61 439 83.5 506 c 128,-1,57
 106 573 106 573 149.5 622 c 128,-1,58
 193 671 193 671 257 697.5 c 128,-1,59
 321 724 321 724 404 724 c 0,60,61
 459 724 459 724 510 713 c 128,-1,62
 561 702 561 702 601 682 c 1,63,-1
 565 606 l 1,64,65
 532 621 532 621 491.5 633 c 128,-1,66
 451 645 451 645 403 645 c 0,35,36
EndSplineSet
EndChar

StartChar: q
Encoding: 113 113 142
Width: 534
Flags: W
LayerCount: 2
Fore
SplineSet
272 578 m 4,0,1
 223 578 223 578 193 606 c 132,-1,2
 163 634 163 634 163 684 c 260,3,4
 163 734 163 734 193 761.5 c 132,-1,5
 223 789 223 789 272 789 c 4,6,7
 319 789 319 789 351 761.5 c 132,-1,8
 383 734 383 734 383 685 c 4,9,10
 383 634 383 634 351.5 606 c 132,-1,11
 320 578 320 578 272 578 c 4,0,1
272 628 m 4,12,13
 297 628 297 628 312.5 643 c 132,-1,14
 328 658 328 658 328 684 c 260,15,16
 328 710 328 710 312 725 c 132,-1,17
 296 740 296 740 272 740 c 260,18,19
 248 740 248 740 232 725 c 132,-1,20
 216 710 216 710 216 684 c 260,21,22
 216 658 216 658 230.5 643 c 132,-1,23
 245 628 245 628 272 628 c 4,12,13
172 363 m 2,24,25
 172 347 172 347 170.5 321 c 128,-1,26
 169 295 169 295 168 276 c 1,27,-1
 172 276 l 1,28,29
 178 284 178 284 190 299 c 128,-1,30
 202 314 202 314 214.5 329.5 c 0,31,32
 235 353 235 353 236 355 c 2,33,-1
 407 536 l 1,34,-1
 510 536 l 1,35,-1
 293 307 l 1,36,-1
 525 0 l 1,37,-1
 419 0 l 1,38,-1
 233 250 l 1,39,-1
 172 197 l 1,40,-1
 172 0 l 1,41,-1
 85 0 l 1,42,-1
 85 535 l 1,43,-1
 172 535 l 1,44,-1
 172 363 l 2,24,25
EndSplineSet
EndChar

StartChar: r
Encoding: 114 114 143
Width: 593
Flags: W
AnchorPoint: "Anchor-1" 593 -24 basechar 0
AnchorPoint: "Anchor-0" 296 -24 basechar 0
LayerCount: 2
Fore
SplineSet
265 425 m 0,0,1
 236 425 236 425 209.5 436 c 128,-1,2
 183 447 183 447 161 477.5 c 128,-1,3
 139 508 139 508 123 564 c 1,4,-1
 206 591 l 1,5,6
 221 536 221 536 235 518 c 128,-1,7
 249 500 249 500 271 500 c 0,8,9
 291 500 291 500 308.5 512.5 c 128,-1,10
 326 525 326 525 358 565 c 2,11,-1
 389 605 l 2,12,13
 423 649 423 649 451.5 675 c 128,-1,14
 480 701 480 701 512 713 c 128,-1,15
 544 725 544 725 588 725 c 1,16,-1
 594 648 l 1,17,18
 559 646 559 646 535.5 637 c 128,-1,19
 512 628 512 628 492.5 608.5 c 128,-1,20
 473 589 473 589 447 556 c 2,21,-1
 424 526 l 2,22,23
 396 490 396 490 371 468 c 128,-1,24
 346 446 346 446 320.5 435.5 c 128,-1,25
 295 425 295 425 265 425 c 0,0,1
35 236 m 0,26,27
 35 314 35 314 68 373.5 c 128,-1,28
 101 433 101 433 159.5 466.5 c 128,-1,29
 218 500 218 500 296 500 c 0,30,31
 375 500 375 500 433.5 467.5 c 128,-1,32
 492 435 492 435 525 376 c 128,-1,33
 558 317 558 317 558 237 c 0,34,35
 558 163 558 163 526 106.5 c 128,-1,36
 494 50 494 50 435 19 c 128,-1,37
 376 -12 376 -12 296 -12 c 0,38,39
 217 -12 217 -12 158.5 19 c 128,-1,40
 100 50 100 50 67.5 105.5 c 128,-1,41
 35 161 35 161 35 236 c 0,26,27
118 248 m 0,42,43
 118 167 118 167 163 117 c 128,-1,44
 208 67 208 67 296 67 c 0,45,46
 356 67 356 67 395.5 89.5 c 128,-1,47
 435 112 435 112 455 152 c 128,-1,48
 475 192 475 192 475 242 c 0,49,50
 475 293 475 293 455.5 334.5 c 128,-1,51
 436 376 436 376 396.5 400.5 c 128,-1,52
 357 425 357 425 296 425 c 256,53,54
 235 425 235 425 195.5 400.5 c 128,-1,55
 156 376 156 376 137 336 c 128,-1,56
 118 296 118 296 118 248 c 0,42,43
EndSplineSet
EndChar

StartChar: s
Encoding: 115 115 144
Width: 702
Flags: W
AnchorPoint: "Anchor-1" 702 -24 basechar 0
AnchorPoint: "Anchor-0" 351 -24 basechar 0
LayerCount: 2
Fore
SplineSet
197 425 m 0,0,1
 168 425 168 425 141.5 436 c 128,-1,2
 115 447 115 447 93 477.5 c 128,-1,3
 71 508 71 508 55 564 c 1,4,-1
 138 591 l 1,5,6
 153 536 153 536 167 518 c 128,-1,7
 181 500 181 500 203 500 c 0,8,9
 223 500 223 500 240.5 512.5 c 128,-1,10
 258 525 258 525 290 565 c 2,11,-1
 321 605 l 2,12,13
 355 649 355 649 383.5 675 c 128,-1,14
 412 701 412 701 444 713 c 128,-1,15
 476 725 476 725 520 725 c 1,16,-1
 526 648 l 1,17,18
 491 646 491 646 467.5 637 c 128,-1,19
 444 628 444 628 424.5 608.5 c 128,-1,20
 405 589 405 589 379 556 c 2,21,-1
 356 526 l 2,22,23
 328 490 328 490 303 468 c 128,-1,24
 278 446 278 446 252.5 435.5 c 128,-1,25
 227 425 227 425 197 425 c 0,0,1
472 -12 m 0,26,27
 425 -12 425 -12 390 3.5 c 128,-1,28
 355 19 355 19 324 51.5 c 128,-1,29
 293 84 293 84 256 133 c 0,30,31
 235 162 235 162 220.5 178.5 c 128,-1,32
 206 195 206 195 193.5 202 c 128,-1,33
 181 209 181 209 164 209 c 0,34,35
 141 209 141 209 126 190.5 c 128,-1,36
 111 172 111 172 111 143 c 0,37,38
 111 108 111 108 123 77 c 128,-1,39
 135 46 135 46 159 14 c 1,40,-1
 78 -13 l 1,41,42
 56 22 56 22 42.5 59.5 c 128,-1,43
 29 97 29 97 29 143 c 0,44,45
 29 184 29 184 46.5 216 c 128,-1,46
 64 248 64 248 94.5 267 c 128,-1,47
 125 286 125 286 165 286 c 0,48,49
 204 286 204 286 230.5 272.5 c 128,-1,50
 257 259 257 259 279.5 234.5 c 128,-1,51
 302 210 302 210 328 175 c 0,52,53
 358 136 358 136 380 112.5 c 128,-1,54
 402 89 402 89 425 78 c 128,-1,55
 448 67 448 67 480 67 c 0,56,57
 530 67 530 67 557 99.5 c 128,-1,58
 584 132 584 132 584 193 c 0,59,60
 584 251 584 251 561 294.5 c 128,-1,61
 538 338 538 338 498 369.5 c 128,-1,62
 458 401 458 401 408 423 c 1,63,-1
 446 500 l 1,64,65
 508 474 508 474 558 430 c 128,-1,66
 608 386 608 386 637.5 327.5 c 128,-1,67
 667 269 667 269 667 198 c 0,68,69
 667 133 667 133 644.5 85.5 c 128,-1,70
 622 38 622 38 579 13 c 128,-1,71
 536 -12 536 -12 472 -12 c 0,26,27
EndSplineSet
EndChar

StartChar: germandbls
Encoding: 223 223 145
Width: 639
Flags: W
LayerCount: 2
Fore
SplineSet
545 0 m 1,0,-1
 459 221 l 1,1,-1
 176 221 l 1,2,-1
 91 0 l 1,3,-1
 0 0 l 1,4,-1
 279 717 l 1,5,-1
 360 717 l 1,6,-1
 638 0 l 1,7,-1
 545 0 l 1,0,-1
352 517 m 2,8,9
 349 525 349 525 342 546 c 128,-1,10
 335 567 335 567 328.5 589.5 c 128,-1,11
 322 612 322 612 318 624 c 1,12,13
 313 604 313 604 307.5 583.5 c 128,-1,14
 302 563 302 563 296.5 546 c 128,-1,15
 291 529 291 529 287 517 c 2,16,-1
 206 301 l 1,17,-1
 432 301 l 1,18,-1
 352 517 l 2,8,9
EndSplineSet
EndChar

StartChar: t
Encoding: 116 116 146
Width: 772
Flags: W
AnchorPoint: "Anchor-1" 772 -24 basechar 0
AnchorPoint: "Anchor-0" 386 -24 basechar 0
LayerCount: 2
Fore
SplineSet
555 -12 m 0,0,1
 518 -12 518 -12 488 -2.5 c 128,-1,2
 458 7 458 7 433.5 29 c 128,-1,3
 409 51 409 51 387 90 c 1,4,-1
 408 91 l 1,5,6
 385 49 385 49 358 26.5 c 128,-1,7
 331 4 331 4 300.5 -4 c 128,-1,8
 270 -12 270 -12 236 -12 c 0,9,10
 188 -12 188 -12 151.5 5.5 c 128,-1,11
 115 23 115 23 90 55.5 c 128,-1,12
 65 88 65 88 52 133 c 128,-1,13
 39 178 39 178 39 232 c 0,14,15
 39 301 39 301 56.5 352 c 128,-1,16
 74 403 74 403 104 435.5 c 128,-1,17
 134 468 134 468 170.5 484 c 128,-1,18
 207 500 207 500 245 500 c 0,19,20
 288 500 288 500 318.5 484.5 c 128,-1,21
 349 469 349 469 365.5 440.5 c 128,-1,22
 382 412 382 412 382 373 c 0,23,24
 382 333 382 333 365.5 301.5 c 128,-1,25
 349 270 349 270 315 252.5 c 128,-1,26
 281 235 281 235 227 235 c 0,27,28
 194 235 194 235 164 246 c 128,-1,29
 134 257 134 257 111.5 273 c 128,-1,30
 89 289 89 289 76 304 c 1,31,-1
 100 366 l 1,32,33
 108 355 108 355 124.5 340.5 c 128,-1,34
 141 326 141 326 165.5 315.5 c 128,-1,35
 190 305 190 305 222 305 c 0,36,37
 262 305 262 305 282.5 322 c 128,-1,38
 303 339 303 339 303 369 c 0,39,40
 303 398 303 398 287 413.5 c 128,-1,41
 271 429 271 429 244 429 c 0,42,43
 209 429 209 429 180.5 407 c 128,-1,44
 152 385 152 385 135 343.5 c 128,-1,45
 118 302 118 302 118 242 c 2,46,-1
 118 234 l 2,47,48
 118 193 118 193 128.5 154.5 c 128,-1,49
 139 116 139 116 165.5 91.5 c 128,-1,50
 192 67 192 67 238 67 c 0,51,52
 277 67 277 67 302.5 81.5 c 128,-1,53
 328 96 328 96 341.5 123 c 128,-1,54
 355 150 355 150 358 185 c 1,55,-1
 436 185 l 1,56,57
 439 144 439 144 455 118 c 128,-1,58
 471 92 471 92 495 79.5 c 128,-1,59
 519 67 519 67 547 67 c 0,60,61
 602 67 602 67 628 99.5 c 128,-1,62
 654 132 654 132 654 193 c 0,63,64
 654 251 654 251 630.5 294.5 c 128,-1,65
 607 338 607 338 567.5 369.5 c 128,-1,66
 528 401 528 401 478 423 c 1,67,-1
 515 500 l 1,68,69
 577 474 577 474 627 430 c 128,-1,70
 677 386 677 386 707 328 c 128,-1,71
 737 270 737 270 737 199 c 0,72,73
 737 132 737 132 714.5 84.5 c 128,-1,74
 692 37 692 37 651.5 12.5 c 128,-1,75
 611 -12 611 -12 555 -12 c 0,0,1
282 624 m 1,76,-1
 275 478 l 1,77,-1
 199 478 l 1,78,-1
 192 624 l 1,79,-1
 282 624 l 1,76,-1
EndSplineSet
EndChar

StartChar: u
Encoding: 117 117 147
Width: 618
Flags: W
LayerCount: 2
Fore
SplineSet
533 536 m 1,0,-1
 533 0 l 1,1,-1
 461 0 l 1,2,-1
 448 71 l 1,3,-1
 444 71 l 1,4,5
 427 43 427 43 400 25 c 128,-1,6
 373 7 373 7 341 -1.5 c 128,-1,7
 309 -10 309 -10 274 -10 c 0,8,9
 210 -10 210 -10 166.5 10.5 c 128,-1,10
 123 31 123 31 101 74 c 128,-1,11
 79 117 79 117 79 185 c 2,12,-1
 79 536 l 1,13,-1
 168 536 l 1,14,-1
 168 191 l 2,15,16
 168 127 168 127 197 95 c 128,-1,17
 226 63 226 63 287 63 c 0,18,19
 347 63 347 63 381.5 85.5 c 128,-1,20
 416 108 416 108 430.5 151.5 c 128,-1,21
 445 195 445 195 445 257 c 2,22,-1
 445 536 l 1,23,-1
 533 536 l 1,0,-1
EndSplineSet
EndChar

StartChar: uacute
Encoding: 250 250 148
Width: 563
Flags: W
LayerCount: 2
Fore
SplineSet
507 354 m 1,0,-1
 507 291 l 1,1,-1
 57 291 l 1,2,-1
 57 354 l 1,3,-1
 507 354 l 1,0,-1
282 97 m 1,4,5
 261 97 261 97 249 109.5 c 128,-1,6
 237 122 237 122 237 147 c 0,7,8
 237 171 237 171 249 183.5 c 128,-1,9
 261 196 261 196 282 196 c 0,10,11
 305 196 305 196 316 183.5 c 128,-1,12
 327 171 327 171 327 147 c 0,13,14
 327 122 327 122 316 109.5 c 128,-1,15
 305 97 305 97 282 97 c 1,16,-1
 282 97 l 1,4,5
282 447 m 1,17,18
 261 447 261 447 249 460 c 128,-1,19
 237 473 237 473 237 497 c 256,20,21
 237 521 237 521 249 534 c 128,-1,22
 261 547 261 547 282 547 c 0,23,24
 305 547 305 547 316 534 c 128,-1,25
 327 521 327 521 327 497 c 256,26,27
 327 473 327 473 316 460 c 128,-1,28
 305 447 305 447 282 447 c 1,29,-1
 282 447 l 1,17,18
EndSplineSet
EndChar

StartChar: ucircumflex
Encoding: 251 251 149
Width: 561
Flags: W
LayerCount: 2
Fore
SplineSet
353 644 m 1,0,1
 391 643 391 643 425.5 634.5 c 128,-1,2
 460 626 460 626 485 615 c 1,3,-1
 459 542 l 1,4,5
 433 552 433 552 400 560 c 128,-1,6
 367 568 367 568 340 568 c 0,7,8
 286 568 286 568 250.5 545.5 c 128,-1,9
 215 523 215 523 198 477.5 c 128,-1,10
 181 432 181 432 181 363 c 256,11,12
 181 294 181 294 198.5 250 c 128,-1,13
 216 206 216 206 250.5 185 c 128,-1,14
 285 164 285 164 336 164 c 0,15,16
 380 164 380 164 412.5 172.5 c 128,-1,17
 445 181 445 181 476 194 c 1,18,-1
 476 117 l 1,19,20
 449 104 449 104 420 96.5 c 128,-1,21
 391 89 391 89 352 87 c 1,22,-1
 352 -10 l 1,23,-1
 285 -10 l 1,24,-1
 285 90 l 1,25,26
 226 99 226 99 182.5 129 c 128,-1,27
 139 159 139 159 115 216 c 128,-1,28
 91 273 91 273 91 362 c 0,29,30
 91 453 91 453 115 511 c 128,-1,31
 139 569 139 569 183 600 c 128,-1,32
 227 631 227 631 285 640 c 1,33,-1
 285 724 l 1,34,-1
 353 724 l 1,35,-1
 353 644 l 1,0,1
EndSplineSet
EndChar

StartChar: udieresis
Encoding: 252 252 150
Width: 632
Flags: W
LayerCount: 2
Fore
SplineSet
382 -139 m 0
 382 -187 382 -187 345 -213.5 c 0
 308 -240 308 -240 234 -240 c 0
 219 -240 219 -240 205.5 -238.5 c 0
 192 -237 192 -237 184 -235 c 1
 184 -180 l 1
 193 -182 193 -182 208 -183.5 c 0
 223 -185 223 -185 237 -185 c 0
 273 -185 273 -185 292 -175.5 c 0
 311 -166 311 -166 311 -141 c 0
 311 -115 311 -115 284.5 -103 c 0
 258 -91 258 -91 220 -86 c 1
 263 0 l 1
 321 0 l 1
 295 -53 l 1
 319 -58 319 -58 339 -68.5 c 0
 359 -79 359 -79 370.5 -96 c 0
 382 -113 382 -113 382 -139 c 0
EndSplineSet
Refer: 113 99 N 1 0 0 1 0 0 3
EndChar

StartChar: ugrave
Encoding: 249 249 151
Width: 563
Flags: W
LayerCount: 2
Fore
SplineSet
124 121 m 1,0,-1
 79 164 l 1,1,-1
 237 322 l 1,2,-1
 79 480 l 1,3,-1
 124 524 l 1,4,-1
 281 366 l 1,5,-1
 439 524 l 1,6,-1
 484 481 l 1,7,-1
 325 322 l 1,8,-1
 483 164 l 1,9,-1
 439 120 l 1,10,-1
 281 279 l 1,11,-1
 124 121 l 1,0,-1
EndSplineSet
EndChar

StartChar: v
Encoding: 118 118 152
Width: 711
Flags: W
AnchorPoint: "Anchor-0" 355 -24 basechar 0
LayerCount: 2
Fore
SplineSet
239 425 m 0,0,1
 210 425 210 425 183.5 436 c 128,-1,2
 157 447 157 447 135 477.5 c 128,-1,3
 113 508 113 508 97 564 c 1,4,-1
 180 591 l 1,5,6
 195 536 195 536 209 518 c 128,-1,7
 223 500 223 500 245 500 c 0,8,9
 265 500 265 500 282.5 512.5 c 128,-1,10
 300 525 300 525 332 565 c 2,11,-1
 363 605 l 2,12,13
 397 649 397 649 425.5 675 c 128,-1,14
 454 701 454 701 486 713 c 128,-1,15
 518 725 518 725 562 725 c 1,16,-1
 568 648 l 1,17,18
 533 646 533 646 509.5 637 c 128,-1,19
 486 628 486 628 466.5 608.5 c 128,-1,20
 447 589 447 589 421 556 c 2,21,-1
 398 526 l 2,22,23
 370 490 370 490 345 468 c 128,-1,24
 320 446 320 446 294.5 435.5 c 128,-1,25
 269 425 269 425 239 425 c 0,0,1
481 -12 m 0,26,27
 435 -12 435 -12 400 6 c 128,-1,28
 365 24 365 24 335.5 56 c 128,-1,29
 306 88 306 88 273 131 c 0,30,31
 244 171 244 171 223 189 c 128,-1,32
 202 207 202 207 172 207 c 0,33,34
 144 207 144 207 125.5 189 c 128,-1,35
 107 171 107 171 107 136 c 0,36,37
 107 105 107 105 126.5 84 c 128,-1,38
 146 63 146 63 180 63 c 256,39,40
 214 63 214 63 236.5 83 c 128,-1,41
 259 103 259 103 275 141 c 1,42,-1
 328 81 l 1,43,44
 309 54 309 54 288 33 c 128,-1,45
 267 12 267 12 240.5 0 c 128,-1,46
 214 -12 214 -12 175 -12 c 0,47,48
 122 -12 122 -12 90 10 c 128,-1,49
 58 32 58 32 43.5 66.5 c 128,-1,50
 29 101 29 101 29 138 c 0,51,52
 29 182 29 182 48 214 c 128,-1,53
 67 246 67 246 99 264 c 128,-1,54
 131 282 131 282 170 282 c 0,55,56
 206 282 206 282 234 269.5 c 128,-1,57
 262 257 262 257 289 230.5 c 128,-1,58
 316 204 316 204 348 161 c 0,59,60
 375 126 375 126 396 105 c 128,-1,61
 417 84 417 84 438 75.5 c 128,-1,62
 459 67 459 67 486 67 c 0,63,64
 539 67 539 67 566 99 c 128,-1,65
 593 131 593 131 593 192 c 0,66,67
 593 249 593 249 570 292.5 c 128,-1,68
 547 336 547 336 506 365.5 c 128,-1,69
 465 395 465 395 410 410 c 128,-1,70
 355 425 355 425 292 425 c 2,71,-1
 243 425 l 1,72,-1
 326 500 l 1,73,74
 437 493 437 493 515.5 452.5 c 128,-1,75
 594 412 594 412 635 345.5 c 128,-1,76
 676 279 676 279 676 194 c 0,77,78
 676 135 676 135 655 88 c 128,-1,79
 634 41 634 41 590.5 14.5 c 128,-1,80
 547 -12 547 -12 481 -12 c 0,26,27
EndSplineSet
EndChar

StartChar: w
Encoding: 119 119 153
Width: 786
Flags: W
LayerCount: 2
Fore
SplineSet
431 303 m 2,0,1
 425 324 425 324 419 344.5 c 128,-1,2
 413 365 413 365 408.5 383.5 c 128,-1,3
 404 402 404 402 400 418 c 128,-1,4
 396 434 396 434 394 445 c 1,5,-1
 390 445 l 1,6,7
 388 434 388 434 384.5 418 c 128,-1,8
 381 402 381 402 376.5 383 c 128,-1,9
 372 364 372 364 366.5 343.5 c 128,-1,10
 361 323 361 323 354 302 c 2,11,-1
 258 1 l 1,12,-1
 158 1 l 1,13,-1
 11 537 l 1,14,-1
 102 537 l 1,15,-1
 176 251 l 2,16,17
 184 222 184 222 191 192.5 c 128,-1,18
 198 163 198 163 203.5 136.5 c 128,-1,19
 209 110 209 110 211 91 c 1,20,-1
 215 91 l 1,21,22
 218 103 218 103 222 121 c 128,-1,23
 226 139 226 139 230.5 159 c 128,-1,24
 235 179 235 179 240.5 199 c 128,-1,25
 246 219 246 219 251 235 c 2,26,-1
 346 537 l 1,27,-1
 442 537 l 1,28,-1
 534 235 l 2,29,30
 541 212 541 212 548.5 186 c 128,-1,31
 556 160 556 160 562 135.5 c 128,-1,32
 568 111 568 111 570 92 c 1,33,-1
 574 92 l 1,34,35
 576 109 576 109 581.5 134.5 c 128,-1,36
 587 160 587 160 594.5 190.5 c 128,-1,37
 602 221 602 221 610 251 c 2,38,-1
 685 537 l 1,39,-1
 775 537 l 1,40,-1
 626 1 l 1,41,-1
 523 1 l 1,42,-1
 431 303 l 2,0,1
EndSplineSet
EndChar

StartChar: x
Encoding: 120 120 154
Width: 529
Flags: W
LayerCount: 2
Fore
SplineSet
212 274 m 1,0,-1
 27 536 l 1,1,-1
 127 536 l 1,2,-1
 265 334 l 1,3,-1
 402 536 l 1,4,-1
 501 536 l 1,5,-1
 316 274 l 1,6,-1
 511 0 l 1,7,-1
 411 0 l 1,8,-1
 265 214 l 1,9,-1
 117 0 l 1,10,-1
 18 0 l 1,11,-1
 212 274 l 1,0,-1
EndSplineSet
EndChar

StartChar: y
Encoding: 121 121 155
Width: 1286
Flags: W
AnchorPoint: "Anchor-1" 1286 -24 basechar 0
AnchorPoint: "Anchor-0" 643 -24 basechar 0
LayerCount: 2
Fore
SplineSet
35 236 m 0,0,1
 35 314 35 314 68 373.5 c 128,-1,2
 101 433 101 433 159.5 466.5 c 128,-1,3
 218 500 218 500 296 500 c 0,4,5
 375 500 375 500 433.5 467.5 c 128,-1,6
 492 435 492 435 525 376 c 128,-1,7
 558 317 558 317 558 237 c 0,8,9
 558 163 558 163 526 106.5 c 128,-1,10
 494 50 494 50 435 19 c 128,-1,11
 376 -12 376 -12 296 -12 c 0,12,13
 217 -12 217 -12 158.5 19 c 128,-1,14
 100 50 100 50 67.5 105.5 c 128,-1,15
 35 161 35 161 35 236 c 0,0,1
118 245 m 0,16,17
 118 167 118 167 163 117 c 128,-1,18
 208 67 208 67 296 67 c 0,19,20
 356 67 356 67 395.5 89 c 128,-1,21
 435 111 435 111 455 150.5 c 128,-1,22
 475 190 475 190 475 240 c 256,23,24
 475 290 475 290 455.5 331 c 128,-1,25
 436 372 436 372 396.5 396.5 c 128,-1,26
 357 421 357 421 296 421 c 256,27,28
 235 421 235 421 195.5 396.5 c 128,-1,29
 156 372 156 372 137 332 c 128,-1,30
 118 292 118 292 118 245 c 0,16,17
709 -12 m 0,31,32
 642 -12 642 -12 591.5 22 c 128,-1,33
 541 56 541 56 502 111 c 1,34,-1
 542 176 l 1,35,36
 570 139 570 139 597.5 115 c 128,-1,37
 625 91 625 91 654.5 79 c 128,-1,38
 684 67 684 67 716 67 c 0,39,40
 767 67 767 67 794 99.5 c 128,-1,41
 821 132 821 132 821 193 c 0,42,43
 821 251 821 251 797.5 295 c 128,-1,44
 774 339 774 339 733.5 371 c 128,-1,45
 693 403 693 403 642 426 c 1,46,-1
 679 492 l 1,47,48
 741 466 741 466 792 422.5 c 128,-1,49
 843 379 843 379 873.5 322.5 c 128,-1,50
 904 266 904 266 904 199 c 0,51,52
 904 100 904 100 854 44 c 128,-1,53
 804 -12 804 -12 709 -12 c 0,31,32
1056 -12 m 0,54,55
 989 -12 989 -12 938.5 22 c 128,-1,56
 888 56 888 56 849 111 c 1,57,-1
 889 176 l 1,58,59
 917 139 917 139 944.5 115 c 128,-1,60
 972 91 972 91 1001.5 79 c 128,-1,61
 1031 67 1031 67 1063 67 c 0,62,63
 1114 67 1114 67 1141 99.5 c 128,-1,64
 1168 132 1168 132 1168 193 c 0,65,66
 1168 251 1168 251 1144.5 294.5 c 128,-1,67
 1121 338 1121 338 1081.5 369.5 c 128,-1,68
 1042 401 1042 401 992 423 c 1,69,-1
 1029 500 l 1,70,71
 1091 474 1091 474 1141 430 c 128,-1,72
 1191 386 1191 386 1221 328 c 128,-1,73
 1251 270 1251 270 1251 199 c 0,74,75
 1251 100 1251 100 1201 44 c 128,-1,76
 1151 -12 1151 -12 1056 -12 c 0,54,55
635 425 m 0,77,78
 606 425 606 425 579.5 436 c 128,-1,79
 553 447 553 447 531 477.5 c 128,-1,80
 509 508 509 508 493 564 c 1,81,-1
 576 591 l 1,82,83
 591 536 591 536 605 518 c 128,-1,84
 619 500 619 500 641 500 c 0,85,86
 661 500 661 500 678.5 512.5 c 128,-1,87
 696 525 696 525 728 565 c 2,88,-1
 759 605 l 2,89,90
 793 649 793 649 821.5 675 c 128,-1,91
 850 701 850 701 882 713 c 128,-1,92
 914 725 914 725 958 725 c 1,93,-1
 964 648 l 1,94,95
 929 646 929 646 905.5 637 c 128,-1,96
 882 628 882 628 862.5 608.5 c 128,-1,97
 843 589 843 589 817 556 c 2,98,-1
 794 526 l 2,99,100
 766 490 766 490 741 468 c 128,-1,101
 716 446 716 446 690.5 435.5 c 128,-1,102
 665 425 665 425 635 425 c 0,77,78
EndSplineSet
EndChar

StartChar: yacute
Encoding: 253 253 156
Width: 632
Flags: W
LayerCount: 2
Fore
SplineSet
372.513671875 409.002929688 m 6,0,1
 372.24609375 401.565429688 372.24609375 401.565429688 371.59765625 382.505859375 c 4,2,3
 370.651367188 368.765625 370.651367188 368.765625 369.459960938 358.049804688 c 5,4,-1
 373.123046875 358.049804688 l 5,5,6
 383.411132812 376.965820312 383.411132812 376.965820312 399.366210938 389.299804688 c 132,-1,7
 415.311523438 401.565429688 415.311523438 401.565429688 434.764648438 407.982421875 c 4,8,9
 454.388671875 414.685546875 454.388671875 414.685546875 475.045898438 414.436523438 c 4,10,11
 514.999023438 414.685546875 514.999023438 414.685546875 541.266601562 400.510742188 c 4,12,13
 567.633789062 386.805664062 567.633789062 386.805664062 581.241210938 357.37109375 c 132,-1,14
 594.668945312 327.939453125 594.668945312 327.939453125 594.668945312 281.28125 c 6,15,-1
 594.668945312 179.376953125 l 5,16,-1
 541.5703125 179.376953125 l 5,17,-1
 541.5703125 245.955078125 l 6,18,19
 541.31640625 290.045898438 541.31640625 290.045898438 523.87109375 311.852539062 c 4,20,21
 506.225585938 333.505859375 506.225585938 333.505859375 468.333007812 333.591796875 c 132,-1,22
 430.463867188 333.505859375 430.463867188 333.505859375 410.961914062 318.306640625 c 4,23,24
 397.765625 308.0859375 397.765625 308.0859375 381.362304688 273.46875 c 4,25,26
 372.513671875 256.129882812 372.513671875 256.129882812 372.513671875 201.1171875 c 6,27,-1
 372.513671875 179.376953125 l 5,28,-1
 318.8046875 179.376953125 l 5,29,-1
 318.8046875 548.200195312 l 5,30,-1
 372.513671875 548.200195312 l 5,31,-1
 372.513671875 409.002929688 l 6,0,1
403 645 m 0,32,33
 346 645 346 645 300 625.5 c 128,-1,34
 254 606 254 606 222 568.5 c 128,-1,35
 190 531 190 531 173 477.5 c 128,-1,36
 156 424 156 424 156 357 c 0,37,38
 156 269 156 269 183.5 204 c 128,-1,39
 211 139 211 139 265.5 104 c 128,-1,40
 320 69 320 69 402 69 c 0,41,42
 449 69 449 69 491 77 c 128,-1,43
 533 85 533 85 573 97 c 1,44,-1
 573 19 l 1,45,46
 533 4 533 4 490.5 -3 c 128,-1,47
 448 -10 448 -10 389 -10 c 0,48,49
 280 -10 280 -10 207 35 c 128,-1,50
 134 80 134 80 97.5 163 c 128,-1,51
 61 246 61 246 61 358 c 0,52,53
 61 439 61 439 83.5 506 c 128,-1,54
 106 573 106 573 149.5 622 c 128,-1,55
 193 671 193 671 257 697.5 c 128,-1,56
 321 724 321 724 404 724 c 0,57,58
 459 724 459 724 510 713 c 128,-1,59
 561 702 561 702 601 682 c 1,60,-1
 565 606 l 1,61,62
 532 621 532 621 491.5 633 c 128,-1,63
 451 645 451 645 403 645 c 0,32,33
EndSplineSet
EndChar

StartChar: ydieresis
Encoding: 255 255 157
Width: 572
Flags: W
LayerCount: 2
Fore
SplineSet
334 723 m 0,0,1
 389 723 389 723 433 711 c 128,-1,2
 477 699 477 699 511 682 c 1,3,-1
 480 612 l 1,4,5
 450 626 450 626 413.5 638 c 128,-1,6
 377 650 377 650 336 650 c 0,7,8
 279 650 279 650 249 620.5 c 128,-1,9
 219 591 219 591 219 525 c 2,10,-1
 219 386 l 1,11,-1
 423 386 l 1,12,-1
 423 320 l 1,13,-1
 219 320 l 1,14,-1
 219 216 l 2,15,16
 219 176 219 176 209.5 149.5 c 128,-1,17
 200 123 200 123 184.5 107 c 128,-1,18
 169 91 169 91 151 80 c 1,19,-1
 535 80 l 1,20,-1
 535 0 l 1,21,-1
 32 0 l 1,22,-1
 32 74 l 1,23,24
 61 81 61 81 83 97.5 c 128,-1,25
 105 114 105 114 118 142.5 c 128,-1,26
 131 171 131 171 131 215 c 2,27,-1
 131 320 l 1,28,-1
 35 320 l 1,29,-1
 35 386 l 1,30,-1
 131 386 l 1,31,-1
 131 534 l 2,32,33
 131 594 131 594 156 636 c 128,-1,34
 181 678 181 678 227 700.5 c 128,-1,35
 273 723 273 723 334 723 c 0,0,1
EndSplineSet
EndChar

StartChar: z
Encoding: 122 122 158
Width: 731
Flags: W
AnchorPoint: "Anchor-0" 365 -24 basechar 0
LayerCount: 2
Fore
SplineSet
530 -12 m 0,0,1
 492 -12 492 -12 462.5 -1.5 c 128,-1,2
 433 9 433 9 409.5 31 c 128,-1,3
 386 53 386 53 366 89 c 1,4,-1
 386 90 l 1,5,6
 360 49 360 49 333 27 c 128,-1,7
 306 5 306 5 275 -3.5 c 128,-1,8
 244 -12 244 -12 205 -12 c 0,9,10
 150 -12 150 -12 113.5 7.5 c 128,-1,11
 77 27 77 27 59 59.5 c 128,-1,12
 41 92 41 92 41 130 c 0,13,14
 41 171 41 171 57.5 200 c 128,-1,15
 74 229 74 229 107 250.5 c 128,-1,16
 140 272 140 272 189 289 c 0,17,18
 230 304 230 304 254 321 c 128,-1,19
 278 338 278 338 278 371 c 0,20,21
 278 387 278 387 271 399.5 c 128,-1,22
 264 412 264 412 247.5 419.5 c 128,-1,23
 231 427 231 427 203 427 c 0,24,25
 160 427 160 427 139 410.5 c 128,-1,26
 118 394 118 394 118 365 c 0,27,28
 118 352 118 352 121.5 341 c 128,-1,29
 125 330 125 330 128 323 c 1,30,-1
 53 302 l 1,31,32
 45 317 45 317 40.5 335.5 c 128,-1,33
 36 354 36 354 36 375 c 0,34,35
 36 407 36 407 53 435.5 c 128,-1,36
 70 464 70 464 107 482 c 128,-1,37
 144 500 144 500 203 500 c 0,38,39
 263 500 263 500 297 480 c 128,-1,40
 331 460 331 460 345.5 430 c 128,-1,41
 360 400 360 400 360 370 c 0,42,43
 360 332 360 332 345 305.5 c 128,-1,44
 330 279 330 279 300.5 260 c 128,-1,45
 271 241 271 241 227 225 c 0,46,47
 174 205 174 205 148.5 184.5 c 128,-1,48
 123 164 123 164 123 131 c 0,49,50
 123 102 123 102 143.5 84.5 c 128,-1,51
 164 67 164 67 207 67 c 0,52,53
 249 67 249 67 276.5 81.5 c 128,-1,54
 304 96 304 96 318.5 123 c 128,-1,55
 333 150 333 150 336 185 c 1,56,-1
 414 185 l 1,57,58
 418 124 418 124 450 95.5 c 128,-1,59
 482 67 482 67 527 67 c 0,60,61
 574 67 574 67 596 87 c 128,-1,62
 618 107 618 107 618 142 c 0,63,64
 618 165 618 165 611 184 c 128,-1,65
 604 203 604 203 593 221 c 1,66,-1
 667 252 l 1,67,68
 682 230 682 230 691.5 198.5 c 128,-1,69
 701 167 701 167 701 135 c 0,70,71
 701 89 701 89 681 56 c 128,-1,72
 661 23 661 23 623 5.5 c 128,-1,73
 585 -12 585 -12 530 -12 c 0,0,1
673 377 m 0,74,75
 673 324 673 324 631.5 288 c 128,-1,76
 590 252 590 252 512 252 c 0,77,78
 458 252 458 252 416 267 c 128,-1,79
 374 282 374 282 345 306.5 c 128,-1,80
 316 331 316 331 299 357 c 1,81,-1
 335 414 l 1,82,83
 364 370 364 370 415 348.5 c 128,-1,84
 466 327 466 327 514 327 c 0,85,86
 541 327 541 327 558 333 c 128,-1,87
 575 339 575 339 583.5 350 c 128,-1,88
 592 361 592 361 592 376 c 0,89,90
 592 404 592 404 571 414.5 c 128,-1,91
 550 425 550 425 521 425 c 0,92,93
 503 425 503 425 488 423 c 128,-1,94
 473 421 473 421 460 419 c 1,95,-1
 450 491 l 1,96,97
 462 494 462 494 482 497 c 128,-1,98
 502 500 502 500 529 500 c 0,99,100
 565 500 565 500 598 489 c 128,-1,101
 631 478 631 478 652 451 c 128,-1,102
 673 424 673 424 673 377 c 0,74,75
EndSplineSet
EndChar

StartChar: questiondown
Encoding: 191 191 159
Width: 510
Flags: W
LayerCount: 2
Fore
SplineSet
1 536 m 1,0,-1
 95 536 l 1,1,-1
 211 231 l 2,2,3
 221 204 221 204 229.5 179 c 128,-1,4
 238 154 238 154 245 130.5 c 128,-1,5
 252 107 252 107 256 85 c 1,6,-1
 260 85 l 1,7,8
 266 110 266 110 279 150.5 c 128,-1,9
 292 191 292 191 306 232 c 2,10,-1
 415 536 l 1,11,-1
 510 536 l 1,12,-1
 279 -74 l 2,13,14
 260 -124 260 -124 234.5 -161.5 c 128,-1,15
 209 -199 209 -199 172.5 -219.5 c 128,-1,16
 136 -240 136 -240 84 -240 c 0,17,18
 60 -240 60 -240 42 -237.5 c 128,-1,19
 24 -235 24 -235 11 -232 c 1,20,-1
 11 -162 l 1,21,22
 22 -164 22 -164 37.5 -166 c 128,-1,23
 53 -168 53 -168 70 -168 c 0,24,25
 101 -168 101 -168 123.5 -156.5 c 128,-1,26
 146 -145 146 -145 162 -123.5 c 128,-1,27
 178 -102 178 -102 189 -73 c 2,28,-1
 217 -2 l 1,29,-1
 1 536 l 1,0,-1
EndSplineSet
EndChar

StartChar: periodcentered
Encoding: 183 183 160
Width: 615
Flags: W
LayerCount: 2
Fore
SplineSet
275 -10 m 0,0,1
 175 -10 175 -10 115 59.5 c 128,-1,2
 55 129 55 129 55 267 c 256,3,4
 55 405 55 405 115.5 475.5 c 128,-1,5
 176 546 176 546 276 546 c 0,6,7
 318 546 318 546 349 535.5 c 128,-1,8
 380 525 380 525 403 507 c 128,-1,9
 426 489 426 489 442 467 c 1,10,-1
 448 467 l 1,11,12
 447 480 447 480 444.5 505.5 c 128,-1,13
 442 531 442 531 442 546 c 2,14,-1
 442 760 l 1,15,-1
 530 760 l 1,16,-1
 530 0 l 1,17,-1
 459 0 l 1,18,-1
 446 72 l 1,19,-1
 442 72 l 1,20,21
 426 49 426 49 403 30.5 c 128,-1,22
 380 12 380 12 348.5 1 c 128,-1,23
 317 -10 317 -10 275 -10 c 0,0,1
289 63 m 0,24,25
 374 63 374 63 408.5 109.5 c 128,-1,26
 443 156 443 156 443 250 c 2,27,-1
 443 266 l 2,28,29
 443 366 443 366 410 419.5 c 128,-1,30
 377 473 377 473 288 473 c 0,31,32
 217 473 217 473 181.5 416.5 c 128,-1,33
 146 360 146 360 146 265 c 0,34,35
 146 169 146 169 181.5 116 c 128,-1,36
 217 63 217 63 289 63 c 0,24,25
EndSplineSet
EndChar

StartChar: at
Encoding: 64 64 161
Width: 899
Flags: W
LayerCount: 2
Fore
SplineSet
841 357 m 0,0,1
 841 311 841 311 830.5 267 c 128,-1,2
 820 223 820 223 798 187.5 c 128,-1,3
 776 152 776 152 744 130.5 c 128,-1,4
 712 109 712 109 668 109 c 0,5,6
 622 109 622 109 595.5 135.5 c 128,-1,7
 569 162 569 162 563 196 c 1,8,-1
 558 196 l 1,9,10
 540 159 540 159 505 134 c 128,-1,11
 470 109 470 109 417 109 c 0,12,13
 341 109 341 109 299.5 160 c 128,-1,14
 258 211 258 211 258 295 c 0,15,16
 258 361 258 361 284 411.5 c 128,-1,17
 310 462 310 462 357.5 491 c 128,-1,18
 405 520 405 520 470 520 c 0,19,20
 514 520 514 520 556.5 512.5 c 128,-1,21
 599 505 599 505 623 496 c 1,22,-1
 613 293 l 2,23,24
 612 275 612 275 612 267.5 c 128,-1,25
 612 260 612 260 612 257 c 0,26,27
 612 205 612 205 630.5 188 c 128,-1,28
 649 171 649 171 674 171 c 0,29,30
 705 171 705 171 726.5 196.5 c 128,-1,31
 748 222 748 222 759.5 264.5 c 128,-1,32
 771 307 771 307 771 358 c 0,33,34
 771 451 771 451 733.5 515.5 c 128,-1,35
 696 580 696 580 630.5 614 c 128,-1,36
 565 648 565 648 482 648 c 0,37,38
 397 648 397 648 331 621 c 128,-1,39
 265 594 265 594 220.5 545 c 128,-1,40
 176 496 176 496 153 429.5 c 128,-1,41
 130 363 130 363 130 283 c 0,42,43
 130 185 130 185 165 116.5 c 128,-1,44
 200 48 200 48 267.5 12.5 c 128,-1,45
 335 -23 335 -23 433 -23 c 0,46,47
 494 -23 494 -23 549.5 -9.5 c 128,-1,48
 605 4 605 4 648 20 c 1,49,-1
 648 -48 l 1,50,51
 605 -66 605 -66 551.5 -77.5 c 128,-1,52
 498 -89 498 -89 433 -89 c 0,53,54
 315 -89 315 -89 231 -45 c 128,-1,55
 147 -1 147 -1 102.5 81.5 c 128,-1,56
 58 164 58 164 58 280 c 0,57,58
 58 373 58 373 87 452.5 c 128,-1,59
 116 532 116 532 171 590.5 c 128,-1,60
 226 649 226 649 304.5 681.5 c 128,-1,61
 383 714 383 714 482 714 c 0,62,63
 560 714 560 714 625.5 689.5 c 128,-1,64
 691 665 691 665 739.5 618.5 c 128,-1,65
 788 572 788 572 814.5 506 c 128,-1,66
 841 440 841 440 841 357 c 0,0,1
336 293 m 0,67,68
 336 229 336 229 361.5 200 c 128,-1,69
 387 171 387 171 430 171 c 0,70,71
 486 171 486 171 510.5 213 c 128,-1,72
 535 255 535 255 539 322 c 2,73,-1
 545 447 l 1,74,75
 532 451 532 451 512 454 c 128,-1,76
 492 457 492 457 471 457 c 0,77,78
 422 457 422 457 392 433 c 128,-1,79
 362 409 362 409 349 371.5 c 128,-1,80
 336 334 336 334 336 293 c 0,67,68
EndSplineSet
EndChar

StartChar: ampersand
Encoding: 38 38 162
Width: 732
Flags: W
LayerCount: 2
Fore
SplineSet
304 725 m 0,0,1
 358 725 358 725 396.5 706.5 c 128,-1,2
 435 688 435 688 456 654 c 128,-1,3
 477 620 477 620 477 571 c 0,4,5
 477 508 477 508 436.5 464 c 128,-1,6
 396 420 396 420 334 384 c 1,7,-1
 527 198 l 1,8,9
 553 229 553 229 569.5 269.5 c 128,-1,10
 586 310 586 310 597 357 c 1,11,-1
 686 357 l 1,12,13
 670 293 670 293 646 238 c 128,-1,14
 622 183 622 183 584 142 c 1,15,-1
 730 0 l 1,16,-1
 611 0 l 1,17,-1
 524 84 l 1,18,19
 493 56 493 56 457 35 c 128,-1,20
 421 14 421 14 377.5 2 c 128,-1,21
 334 -10 334 -10 278 -10 c 0,22,23
 209 -10 209 -10 158.5 12.5 c 128,-1,24
 108 35 108 35 80.5 79 c 128,-1,25
 53 123 53 123 53 186 c 0,26,27
 53 237 53 237 71.5 274 c 128,-1,28
 90 311 90 311 125 340 c 128,-1,29
 160 369 160 369 207 396 c 1,30,31
 186 420 186 420 166 446 c 128,-1,32
 146 472 146 472 133 502.5 c 128,-1,33
 120 533 120 533 120 569 c 0,34,35
 120 618 120 618 142 653 c 128,-1,36
 164 688 164 688 205.5 706.5 c 128,-1,37
 247 725 247 725 304 725 c 0,0,1
260 341 m 1,38,39
 224 320 224 320 198.5 298.5 c 128,-1,40
 173 277 173 277 159 251 c 128,-1,41
 145 225 145 225 145 189 c 0,42,43
 145 134 145 134 182 101 c 128,-1,44
 219 68 219 68 281 68 c 0,45,46
 345 68 345 68 391 89 c 128,-1,47
 437 110 437 110 468 139 c 1,48,-1
 260 341 l 1,38,39
301 653 m 0,49,50
 259 653 259 653 232.5 631 c 128,-1,51
 206 609 206 609 206 570 c 0,52,53
 206 534 206 534 225 503.5 c 128,-1,54
 244 473 244 473 280 436 c 1,55,56
 339 470 339 470 364.5 500.5 c 128,-1,57
 390 531 390 531 390 571 c 0,58,59
 390 607 390 607 366 630 c 128,-1,60
 342 653 342 653 301 653 c 0,49,50
EndSplineSet
EndChar

StartChar: paragraph
Encoding: 182 182 163
Width: 561
Flags: W
LayerCount: 2
Fore
SplineSet
264 62 m 0,0,1
 284 62 284 62 305 65.5 c 128,-1,2
 326 69 326 69 339 73 c 1,3,-1
 339 6 l 1,4,5
 325 -1 325 -1 299 -5.5 c 128,-1,6
 273 -10 273 -10 249 -10 c 0,7,8
 207 -10 207 -10 171.5 4.5 c 128,-1,9
 136 19 136 19 114 55 c 128,-1,10
 92 91 92 91 92 156 c 2,11,-1
 92 468 l 1,12,-1
 16 468 l 1,13,-1
 16 510 l 1,14,-1
 93 545 l 1,15,-1
 128 659 l 1,16,-1
 180 659 l 1,17,-1
 180 536 l 1,18,-1
 335 536 l 1,19,-1
 335 468 l 1,20,-1
 180 468 l 1,21,-1
 180 158 l 2,22,23
 180 109 180 109 203.5 85.5 c 128,-1,24
 227 62 227 62 264 62 c 0,0,1
EndSplineSet
EndChar

StartChar: cent
Encoding: 162 162 164
Width: 522
Flags: W
AnchorPoint: "Anchor-1" 522 -24 basechar 0
AnchorPoint: "Anchor-0" 261 -24 basechar 0
LayerCount: 2
Fore
SplineSet
234 425 m 0,0,1
 205 425 205 425 178.5 436 c 128,-1,2
 152 447 152 447 130 477.5 c 128,-1,3
 108 508 108 508 92 564 c 1,4,-1
 175 591 l 1,5,6
 190 536 190 536 204 518 c 128,-1,7
 218 500 218 500 240 500 c 0,8,9
 260 500 260 500 277.5 512.5 c 128,-1,10
 295 525 295 525 327 565 c 2,11,-1
 358 605 l 2,12,13
 392 649 392 649 420.5 675 c 128,-1,14
 449 701 449 701 481 713 c 128,-1,15
 513 725 513 725 557 725 c 1,16,-1
 563 648 l 1,17,18
 528 646 528 646 504.5 637 c 128,-1,19
 481 628 481 628 461.5 608.5 c 128,-1,20
 442 589 442 589 416 556 c 2,21,-1
 393 526 l 2,22,23
 365 490 365 490 340 468 c 128,-1,24
 315 446 315 446 289.5 435.5 c 128,-1,25
 264 425 264 425 234 425 c 0,0,1
264 -12 m 0,26,27
 200 -12 200 -12 148.5 6 c 128,-1,28
 97 24 97 24 63.5 59 c 128,-1,29
 30 94 30 94 18 146 c 1,30,-1
 104 169 l 1,31,32
 113 138 113 138 131.5 115 c 128,-1,33
 150 92 150 92 182.5 79.5 c 128,-1,34
 215 67 215 67 267 67 c 0,35,36
 320 67 320 67 350.5 76.5 c 128,-1,37
 381 86 381 86 394.5 102.5 c 128,-1,38
 408 119 408 119 408 141 c 0,39,40
 408 161 408 161 398 176 c 128,-1,41
 388 191 388 191 364 200.5 c 128,-1,42
 340 210 340 210 297 213 c 2,43,-1
 232 218 l 2,44,45
 180 222 180 222 142.5 230.5 c 128,-1,46
 105 239 105 239 81 258 c 0,47,48
 60 274 60 274 48.5 298.5 c 128,-1,49
 37 323 37 323 37 357 c 0,50,51
 37 398 37 398 61 430.5 c 128,-1,52
 85 463 85 463 132.5 481.5 c 128,-1,53
 180 500 180 500 252 500 c 0,54,55
 318 500 318 500 362.5 487.5 c 128,-1,56
 407 475 407 475 436.5 444.5 c 128,-1,57
 466 414 466 414 484 360 c 1,58,-1
 398 338 l 1,59,60
 389 367 389 367 372.5 386.5 c 128,-1,61
 356 406 356 406 327 415.5 c 128,-1,62
 298 425 298 425 252 425 c 0,63,64
 202 425 202 425 173 416 c 128,-1,65
 144 407 144 407 132 392 c 128,-1,66
 120 377 120 377 120 358 c 0,67,68
 120 331 120 331 142.5 315.5 c 128,-1,69
 165 300 165 300 231 295 c 2,70,-1
 308 290 l 2,71,72
 360 286 360 286 392.5 275 c 128,-1,73
 425 264 425 264 446 247 c 0,74,75
 469 228 469 228 480 201 c 128,-1,76
 491 174 491 174 491 142 c 0,77,78
 491 92 491 92 465.5 57.5 c 128,-1,79
 440 23 440 23 389.5 5.5 c 128,-1,80
 339 -12 339 -12 264 -12 c 0,26,27
EndSplineSet
EndChar

StartChar: dollar
Encoding: 36 36 165
Width: 572
Flags: W
LayerCount: 2
Fore
SplineSet
253 49 m 1,0,1
 198 50 198 50 146 58.5 c 128,-1,2
 94 67 94 67 62 82 c 1,3,-1
 62 167 l 1,4,5
 96 151 96 151 149 139 c 128,-1,6
 202 127 202 127 253 126 c 1,7,-1
 253 328 l 1,8,9
 187 346 187 346 145 369.5 c 128,-1,10
 103 393 103 393 82.5 427 c 128,-1,11
 62 461 62 461 62 508 c 0,12,13
 62 557 62 557 85.5 592 c 128,-1,14
 109 627 109 627 152 647.5 c 128,-1,15
 195 668 195 668 253 671 c 1,16,-1
 253 759 l 1,17,-1
 317 759 l 1,18,-1
 317 672 l 1,19,20
 370 671 370 671 413.5 660.5 c 128,-1,21
 457 650 457 650 493 635 c 1,22,-1
 466 561 l 1,23,24
 434 574 434 574 395.5 583.5 c 128,-1,25
 357 593 357 593 317 596 c 1,26,-1
 317 395 l 1,27,28
 383 376 383 376 427 354.5 c 128,-1,29
 471 333 471 333 493.5 301.5 c 128,-1,30
 516 270 516 270 516 220 c 0,31,32
 516 150 516 150 464 106.5 c 128,-1,33
 412 63 412 63 317 53 c 1,34,-1
 317 -58 l 1,35,-1
 253 -58 l 1,36,-1
 253 49 l 1,0,1
317 131 m 1,37,38
 376 137 376 137 403 158.5 c 128,-1,39
 430 180 430 180 430 214 c 0,40,41
 430 239 430 239 420 255.5 c 128,-1,42
 410 272 410 272 385.5 284 c 128,-1,43
 361 296 361 296 317 307 c 1,44,-1
 317 131 l 1,37,38
253 594 m 1,45,46
 217 592 217 592 194 581.5 c 128,-1,47
 171 571 171 571 159.5 554 c 128,-1,48
 148 537 148 537 148 515 c 0,49,50
 148 489 148 489 157.5 470.5 c 128,-1,51
 167 452 167 452 190 439.5 c 128,-1,52
 213 427 213 427 253 417 c 1,53,-1
 253 594 l 1,45,46
EndSplineSet
EndChar

StartChar: sterling
Encoding: 163 163 166
Width: 632
Flags: W
AnchorPoint: "Anchor-0" 365 -24 basechar 0
LayerCount: 2
Fore
SplineSet
530 -12 m 0,0,1
 492 -12 492 -12 462.5 -1.5 c 128,-1,2
 433 9 433 9 409.5 31 c 128,-1,3
 386 53 386 53 366 89 c 1,4,-1
 386 90 l 1,5,6
 360 49 360 49 333 27 c 128,-1,7
 306 5 306 5 275 -3.5 c 128,-1,8
 244 -12 244 -12 205 -12 c 0,9,10
 150 -12 150 -12 113.5 7.5 c 128,-1,11
 77 27 77 27 59 59.5 c 128,-1,12
 41 92 41 92 41 130 c 0,13,14
 41 171 41 171 57.5 200 c 128,-1,15
 74 229 74 229 107 250.5 c 128,-1,16
 140 272 140 272 189 289 c 0,17,18
 230 304 230 304 254 321 c 128,-1,19
 278 338 278 338 278 371 c 0,20,21
 278 387 278 387 271 399.5 c 128,-1,22
 264 412 264 412 247.5 419.5 c 128,-1,23
 231 427 231 427 203 427 c 0,24,25
 160 427 160 427 139 410.5 c 128,-1,26
 118 394 118 394 118 365 c 0,27,28
 118 352 118 352 121.5 341 c 128,-1,29
 125 330 125 330 128 323 c 1,30,-1
 53 302 l 1,31,32
 45 317 45 317 40.5 335.5 c 128,-1,33
 36 354 36 354 36 375 c 0,34,35
 36 407 36 407 53 435.5 c 128,-1,36
 70 464 70 464 107 482 c 128,-1,37
 144 500 144 500 203 500 c 0,38,39
 263 500 263 500 297 480 c 128,-1,40
 331 460 331 460 345.5 430 c 128,-1,41
 360 400 360 400 360 370 c 0,42,43
 360 332 360 332 345 305.5 c 128,-1,44
 330 279 330 279 300.5 260 c 128,-1,45
 271 241 271 241 227 225 c 0,46,47
 174 205 174 205 148.5 184.5 c 128,-1,48
 123 164 123 164 123 131 c 0,49,50
 123 102 123 102 143.5 84.5 c 128,-1,51
 164 67 164 67 207 67 c 0,52,53
 249 67 249 67 276.5 81.5 c 128,-1,54
 304 96 304 96 318.5 123 c 128,-1,55
 333 150 333 150 336 185 c 1,56,-1
 414 185 l 1,57,58
 418 124 418 124 450 95.5 c 128,-1,59
 482 67 482 67 527 67 c 0,60,61
 574 67 574 67 596 87 c 128,-1,62
 618 107 618 107 618 142 c 0,63,64
 618 165 618 165 611 184 c 128,-1,65
 604 203 604 203 593 221 c 1,66,-1
 667 252 l 1,67,68
 682 230 682 230 691.5 198.5 c 128,-1,69
 701 167 701 167 701 135 c 0,70,71
 701 89 701 89 681 56 c 128,-1,72
 661 23 661 23 623 5.5 c 128,-1,73
 585 -12 585 -12 530 -12 c 0,0,1
673 377 m 0,74,75
 673 324 673 324 631.5 288 c 128,-1,76
 590 252 590 252 512 252 c 0,77,78
 458 252 458 252 416 267 c 128,-1,79
 374 282 374 282 345 306.5 c 128,-1,80
 316 331 316 331 299 357 c 1,81,-1
 335 414 l 1,82,83
 364 370 364 370 415 348.5 c 128,-1,84
 466 327 466 327 514 327 c 0,85,86
 541 327 541 327 558 333 c 128,-1,87
 575 339 575 339 583.5 350 c 128,-1,88
 592 361 592 361 592 376 c 0,89,90
 592 404 592 404 571 414.5 c 128,-1,91
 550 425 550 425 521 425 c 0,92,93
 503 425 503 425 488 423 c 128,-1,94
 473 421 473 421 460 419 c 1,95,-1
 450 491 l 1,96,97
 462 494 462 494 482 497 c 128,-1,98
 502 500 502 500 529 500 c 0,99,100
 565 500 565 500 598 489 c 128,-1,101
 631 478 631 478 652 451 c 128,-1,102
 673 424 673 424 673 377 c 0,74,75
EndSplineSet
EndChar

StartChar: grave
Encoding: 96 96 167
Width: 281
Flags: W
LayerCount: 2
Fore
SplineSet
145 766 m 1,0,1
 156 744 156 744 172.5 716.5 c 128,-1,2
 189 689 189 689 207.5 663 c 128,-1,3
 226 637 226 637 241 618 c 1,4,-1
 241 606 l 1,5,-1
 182 606 l 1,6,7
 165 620 165 620 144 639.5 c 128,-1,8
 123 659 123 659 102.5 680.5 c 128,-1,9
 82 702 82 702 65.5 722 c 128,-1,10
 49 742 49 742 40 756 c 1,11,-1
 40 766 l 1,12,-1
 145 766 l 1,0,1
EndSplineSet
EndChar

StartChar: acute
Encoding: 180 180 168
Width: 534
Flags: W
LayerCount: 2
Fore
SplineSet
172 363 m 2,0,1
 172 347 172 347 170.5 321 c 128,-1,2
 169 295 169 295 168 276 c 1,3,-1
 172 276 l 1,4,5
 178 284 178 284 190 299 c 128,-1,6
 202 314 202 314 214.5 329.5 c 128,-1,7
 227 345 227 345 236 355 c 2,8,-1
 407 536 l 1,9,-1
 510 536 l 1,10,-1
 293 307 l 1,11,-1
 525 0 l 1,12,-1
 419 0 l 1,13,-1
 233 250 l 1,14,-1
 172 197 l 1,15,-1
 172 0 l 1,16,-1
 85 0 l 1,17,-1
 85 760 l 1,18,-1
 172 760 l 1,19,-1
 172 363 l 2,0,1
EndSplineSet
EndChar

StartChar: cedilla
Encoding: 184 184 169
Width: 556
Flags: W
LayerCount: 2
Fore
SplineSet
323 0 m 1,0,-1
 233 0 l 1,1,-1
 233 635 l 1,2,-1
 10 635 l 1,3,-1
 10 714 l 1,4,-1
 545 714 l 1,5,-1
 545 635 l 1,6,-1
 323 635 l 1,7,-1
 323 0 l 1,0,-1
EndSplineSet
EndChar

StartChar: currency
Encoding: 164 164 170
Width: 772
Flags: W
AnchorPoint: "Anchor-1" 772 -24 basechar 0
AnchorPoint: "Anchor-0" 386 -24 basechar 0
LayerCount: 2
Fore
SplineSet
555 -12 m 0,0,1
 518 -12 518 -12 488 -2.5 c 128,-1,2
 458 7 458 7 433.5 29 c 128,-1,3
 409 51 409 51 387 90 c 1,4,-1
 408 91 l 1,5,6
 385 49 385 49 358 26.5 c 128,-1,7
 331 4 331 4 300.5 -4 c 128,-1,8
 270 -12 270 -12 236 -12 c 0,9,10
 188 -12 188 -12 151.5 5.5 c 128,-1,11
 115 23 115 23 90 55.5 c 128,-1,12
 65 88 65 88 52 133 c 128,-1,13
 39 178 39 178 39 232 c 0,14,15
 39 301 39 301 56.5 352 c 128,-1,16
 74 403 74 403 104 435.5 c 128,-1,17
 134 468 134 468 170.5 484 c 128,-1,18
 207 500 207 500 245 500 c 0,19,20
 288 500 288 500 318.5 484.5 c 128,-1,21
 349 469 349 469 365.5 440.5 c 128,-1,22
 382 412 382 412 382 373 c 0,23,24
 382 333 382 333 365.5 301.5 c 128,-1,25
 349 270 349 270 315 252.5 c 128,-1,26
 281 235 281 235 227 235 c 0,27,28
 194 235 194 235 164 246 c 128,-1,29
 134 257 134 257 111.5 273 c 128,-1,30
 89 289 89 289 76 304 c 1,31,-1
 100 366 l 1,32,33
 108 355 108 355 124.5 340.5 c 128,-1,34
 141 326 141 326 165.5 315.5 c 128,-1,35
 190 305 190 305 222 305 c 0,36,37
 262 305 262 305 282.5 322 c 128,-1,38
 303 339 303 339 303 369 c 0,39,40
 303 398 303 398 287 413.5 c 128,-1,41
 271 429 271 429 244 429 c 0,42,43
 209 429 209 429 180.5 407 c 128,-1,44
 152 385 152 385 135 343.5 c 128,-1,45
 118 302 118 302 118 242 c 2,46,-1
 118 234 l 2,47,48
 118 193 118 193 128.5 154.5 c 128,-1,49
 139 116 139 116 165.5 91.5 c 128,-1,50
 192 67 192 67 238 67 c 0,51,52
 277 67 277 67 302.5 81.5 c 128,-1,53
 328 96 328 96 341.5 123 c 128,-1,54
 355 150 355 150 358 185 c 1,55,-1
 436 185 l 1,56,57
 439 144 439 144 455 118 c 128,-1,58
 471 92 471 92 495 79.5 c 128,-1,59
 519 67 519 67 547 67 c 0,60,61
 602 67 602 67 628 99.5 c 128,-1,62
 654 132 654 132 654 193 c 0,63,64
 654 251 654 251 630.5 294.5 c 128,-1,65
 607 338 607 338 567.5 369.5 c 128,-1,66
 528 401 528 401 478 423 c 1,67,-1
 515 500 l 1,68,69
 577 474 577 474 627 430 c 128,-1,70
 677 386 677 386 707 328 c 128,-1,71
 737 270 737 270 737 199 c 0,72,73
 737 132 737 132 714.5 84.5 c 128,-1,74
 692 37 692 37 651.5 12.5 c 128,-1,75
 611 -12 611 -12 555 -12 c 0,0,1
282 624 m 1,76,-1
 275 478 l 1,77,-1
 199 478 l 1,78,-1
 192 624 l 1,79,-1
 282 624 l 1,76,-1
EndSplineSet
EndChar

StartChar: onehalf
Encoding: 189 189 171
Width: 615
Flags: W
LayerCount: 2
Fore
SplineSet
173 575 m 2,0,1
 173 541 173 541 171.5 511.5 c 128,-1,2
 170 482 170 482 168 465 c 1,3,-1
 173 465 l 1,4,5
 196 499 196 499 236 522 c 128,-1,6
 276 545 276 545 339 545 c 0,7,8
 439 545 439 545 499.5 475.5 c 128,-1,9
 560 406 560 406 560 268 c 0,10,11
 560 176 560 176 532.5 114 c 128,-1,12
 505 52 505 52 455 21 c 128,-1,13
 405 -10 405 -10 339 -10 c 0,14,15
 276 -10 276 -10 236 13 c 128,-1,16
 196 36 196 36 173 68 c 1,17,-1
 166 68 l 1,18,-1
 148 0 l 1,19,-1
 85 0 l 1,20,-1
 85 760 l 1,21,-1
 173 760 l 1,22,-1
 173 575 l 2,0,1
324 472 m 0,23,24
 267 472 267 472 234 450.5 c 128,-1,25
 201 429 201 429 187 384.5 c 128,-1,26
 173 340 173 340 173 271 c 2,27,-1
 173 267 l 2,28,29
 173 168 173 168 205.5 115.5 c 128,-1,30
 238 63 238 63 326 63 c 0,31,32
 398 63 398 63 433.5 116 c 128,-1,33
 469 169 469 169 469 269 c 0,34,35
 469 370 469 370 433.5 421 c 128,-1,36
 398 472 398 472 324 472 c 0,23,24
EndSplineSet
EndChar

StartChar: threequarters
Encoding: 190 190 172
Width: 935
Flags: W
LayerCount: 2
Fore
SplineSet
673 546 m 0,0,1
 764 546 764 546 809 499.5 c 128,-1,2
 854 453 854 453 854 349 c 2,3,-1
 854 0 l 1,4,-1
 767 0 l 1,5,-1
 767 345 l 2,6,7
 767 408 767 408 740.5 440 c 128,-1,8
 714 472 714 472 658 472 c 0,9,10
 580 472 580 472 546.5 427 c 128,-1,11
 513 382 513 382 513 296 c 2,12,-1
 513 0 l 1,13,-1
 426 0 l 1,14,-1
 426 345 l 2,15,16
 426 387 426 387 414 415.5 c 128,-1,17
 402 444 402 444 378 458 c 128,-1,18
 354 472 354 472 316 472 c 0,19,20
 262 472 262 472 231 449.5 c 128,-1,21
 200 427 200 427 186.5 384 c 128,-1,22
 173 341 173 341 173 278 c 2,23,-1
 173 0 l 1,24,-1
 85 0 l 1,25,-1
 85 536 l 1,26,-1
 156 536 l 1,27,-1
 169 463 l 1,28,-1
 174 463 l 1,29,30
 191 491 191 491 215.5 509.5 c 128,-1,31
 240 528 240 528 270 537 c 128,-1,32
 300 546 300 546 332 546 c 0,33,34
 394 546 394 546 435.5 524 c 128,-1,35
 477 502 477 502 496 456 c 1,36,-1
 501 456 l 1,37,38
 528 502 528 502 574.5 524 c 128,-1,39
 621 546 621 546 673 546 c 0,0,1
EndSplineSet
EndChar

StartChar: Ccircumflex
Encoding: 264 264 173
Width: 632
Flags: W
LayerCount: 2
Fore
SplineSet
442 140 m 6,0,1
 442 158 442 158 443 182 c 132,-1,2
 444 206 444 206 447 223 c 5,3,-1
 441 223 l 5,4,5
 418 189 418 189 377.5 165 c 132,-1,6
 337 141 337 141 273 141 c 4,7,8
 176 141 176 141 115.5 210.5 c 132,-1,9
 55 280 55 280 55 418 c 4,10,11
 55 510 55 510 83 572 c 132,-1,12
 111 634 111 634 161 665.5 c 132,-1,13
 211 697 211 697 276 697 c 4,14,15
 339 697 339 697 379 673 c 132,-1,16
 419 649 419 649 443 614 c 5,17,-1
 447 614 l 5,18,-1
 460 687 l 5,19,-1
 530 687 l 5,20,-1
 530 -30 l 5,21,-1
 442 -30 l 5,22,-1
 442 140 l 6,0,1
290 214 m 4,23,24
 345 214 345 214 378.5 234 c 132,-1,25
 412 254 412 254 427 295.5 c 132,-1,26
 442 337 442 337 443 399 c 6,27,-1
 443 417 l 6,28,29
 443 519 443 519 409 571.5 c 132,-1,30
 375 624 375 624 288 624 c 4,31,32
 216 624 216 624 181 567.5 c 132,-1,33
 146 511 146 511 146 416 c 260,34,35
 146 321 146 321 181.5 267.5 c 132,-1,36
 217 214 217 214 290 214 c 4,23,24
EndSplineSet
EndChar

StartChar: ccircumflex
Encoding: 265 265 174
Width: 258
Flags: W
LayerCount: 2
Fore
SplineSet
22 -55 m 4,0,1
 -3 -55 -3 -55 -22 -51.5 c 132,-1,2
 -41 -48 -41 -48 -55 -43 c 5,3,-1
 -55 28 l 5,4,5
 -40 24 -40 24 -24 21 c 132,-1,6
 -8 18 -8 18 11 18 c 4,7,8
 43 18 43 18 64 35.5 c 132,-1,9
 85 53 85 53 85 102 c 6,10,-1
 85 536 l 1,11,-1
 173 536 l 1,12,-1
 173 105 l 6,13,14
 173 55 173 55 157 19 c 132,-1,15
 141 -17 141 -17 108 -36 c 132,-1,16
 75 -55 75 -55 22 -55 c 4,0,1
78 681 m 0,17,18
 78 710 78 710 93 723.5 c 128,-1,19
 108 737 108 737 130 737 c 0,20,21
 150 737 150 737 165.5 723.5 c 128,-1,22
 181 710 181 710 181 681 c 0,23,24
 181 653 181 653 165.5 639 c 128,-1,25
 150 625 150 625 130 625 c 0,26,27
 108 625 108 625 93 639 c 128,-1,28
 78 653 78 653 78 681 c 0,17,18
EndSplineSet
EndChar

StartChar: Ebreve
Encoding: 276 276 175
Width: 572
Flags: W
LayerCount: 2
Fore
SplineSet
285 661 m 0,0,1
 348 661 348 661 396 643 c 128,-1,2
 444 625 444 625 471.5 590.5 c 128,-1,3
 499 556 499 556 499 506 c 0,4,5
 499 467 499 467 481.5 437 c 128,-1,6
 464 407 464 407 433 385.5 c 128,-1,7
 402 364 402 364 363 347 c 1,8,9
 408 329 408 329 444 304.5 c 128,-1,10
 480 280 480 280 501 247 c 128,-1,11
 522 214 522 214 522 169 c 0,12,13
 522 114 522 114 493 74 c 128,-1,14
 464 34 464 34 411.5 12 c 128,-1,15
 359 -10 359 -10 288 -10 c 0,16,17
 173 -10 173 -10 111 36.5 c 128,-1,18
 49 83 49 83 49 167 c 0,19,20
 49 211 49 211 68.5 244 c 128,-1,21
 88 277 88 277 122 301.5 c 128,-1,22
 156 326 156 326 197 342 c 1,23,24
 160 361 160 361 132 383.5 c 128,-1,25
 104 406 104 406 88 436 c 128,-1,26
 72 466 72 466 72 506 c 0,27,28
 72 556 72 556 100 590.5 c 128,-1,29
 128 625 128 625 176 643 c 128,-1,30
 224 661 224 661 285 661 c 0,0,1
133 167 m 0,31,32
 133 121 133 121 170.5 90.5 c 128,-1,33
 208 60 208 60 286 60 c 0,34,35
 360 60 360 60 399 90.5 c 128,-1,36
 438 121 438 121 438 170 c 0,37,38
 438 201 438 201 419 224.5 c 128,-1,39
 400 248 400 248 366.5 266.5 c 128,-1,40
 333 285 333 285 287 300 c 2,41,-1
 270 306 l 1,42,43
 226 289 226 289 195 269 c 128,-1,44
 164 249 164 249 148.5 224.5 c 128,-1,45
 133 200 133 200 133 167 c 0,31,32
284 590 m 0,46,47
 227 590 227 590 191.5 567 c 128,-1,48
 156 544 156 544 156 500 c 0,49,50
 156 469 156 469 174 447.5 c 128,-1,51
 192 426 192 426 222 410.5 c 128,-1,52
 252 395 252 395 289 381 c 1,53,54
 324 394 324 394 352.5 409.5 c 128,-1,55
 381 425 381 425 397.5 447 c 128,-1,56
 414 469 414 469 414 500 c 0,57,58
 414 544 414 544 378.5 567 c 128,-1,59
 343 590 343 590 284 590 c 0,46,47
EndSplineSet
EndChar

StartChar: ebreve
Encoding: 277 277 176
Width: 572
Flags: W
LayerCount: 2
Fore
SplineSet
520 373 m 0,0,1
 520 317 520 317 511.5 261.5 c 128,-1,2
 503 206 503 206 482 157.5 c 128,-1,3
 461 109 461 109 424 71 c 128,-1,4
 387 33 387 33 330 11.5 c 128,-1,5
 273 -10 273 -10 192 -10 c 0,6,7
 172 -10 172 -10 145.5 -7.5 c 128,-1,8
 119 -5 119 -5 102 0 c 1,9,-1
 102 75 l 1,10,11
 120 69 120 69 144 65.5 c 128,-1,12
 168 62 168 62 190 62 c 0,13,14
 260 62 260 62 306 82.5 c 128,-1,15
 352 103 352 103 379 138.5 c 128,-1,16
 406 174 406 174 418.5 221 c 128,-1,17
 431 268 431 268 433 321 c 1,18,-1
 428 321 l 1,19,20
 410 296 410 296 386.5 277.5 c 128,-1,21
 363 259 363 259 331.5 248.5 c 128,-1,22
 300 238 300 238 256 238 c 0,23,24
 194 238 194 238 147.5 261.5 c 128,-1,25
 101 285 101 285 75.5 330 c 128,-1,26
 50 375 50 375 50 438 c 0,27,28
 50 507 50 507 78.5 557 c 128,-1,29
 107 607 107 607 158 634 c 128,-1,30
 209 661 209 661 278 661 c 0,31,32
 329 661 329 661 373 643.5 c 128,-1,33
 417 626 417 626 450 590 c 128,-1,34
 483 554 483 554 501.5 500 c 128,-1,35
 520 446 520 446 520 373 c 0,0,1
278 587 m 0,36,37
 215 587 215 587 175 550.5 c 128,-1,38
 135 514 135 514 135 439 c 0,39,40
 135 399 135 399 150 369.5 c 128,-1,41
 165 340 165 340 196 324 c 128,-1,42
 227 308 227 308 274 308 c 0,43,44
 323 308 323 308 358.5 325 c 128,-1,45
 394 342 394 342 413.5 369 c 128,-1,46
 433 396 433 396 433 424 c 0,47,48
 433 453 433 453 423.5 482 c 128,-1,49
 414 511 414 511 394.5 534.5 c 128,-1,50
 375 558 375 558 346 572.5 c 128,-1,51
 317 587 317 587 278 587 c 0,36,37
EndSplineSet
EndChar

StartChar: uni0080
Encoding: 128 128 177
Width: 480
Flags: W
LayerCount: 2
Fore
SplineSet
40 85 m 0,0,1
 40 103 40 103 55.5 118 c 128,-1,2
 71 133 71 133 99 144.5 c 128,-1,3
 127 156 127 156 164.5 162.5 c 128,-1,4
 202 169 202 169 245 169 c 0,5,6
 289 169 289 169 326.5 162.5 c 128,-1,7
 364 156 364 156 391.5 144.5 c 128,-1,8
 419 133 419 133 435 118 c 128,-1,9
 451 103 451 103 451 85 c 0,10,11
 451 68 451 68 435 53 c 128,-1,12
 419 38 419 38 391.5 27 c 128,-1,13
 364 16 364 16 326.5 9.5 c 128,-1,14
 289 3 289 3 245 3 c 0,15,16
 202 3 202 3 164.5 9.5 c 128,-1,17
 127 16 127 16 99 27 c 128,-1,18
 71 38 71 38 55.5 53 c 128,-1,19
 40 68 40 68 40 85 c 0,0,1
120 85 m 256,20,21
 120 74 120 74 129.5 64.5 c 128,-1,22
 139 55 139 55 156 48.5 c 128,-1,23
 173 42 173 42 196 38 c 128,-1,24
 219 34 219 34 245 34 c 0,25,26
 272 34 272 34 294.5 38 c 128,-1,27
 317 42 317 42 334 48.5 c 128,-1,28
 351 55 351 55 360.5 64.5 c 128,-1,29
 370 74 370 74 370 85 c 256,30,31
 370 96 370 96 360.5 105.5 c 128,-1,32
 351 115 351 115 334 122 c 128,-1,33
 317 129 317 129 294.5 133 c 128,-1,34
 272 137 272 137 245 137 c 0,35,36
 219 137 219 137 196 133 c 128,-1,37
 173 129 173 129 156 122 c 128,-1,38
 139 115 139 115 129.5 105.5 c 128,-1,39
 120 96 120 96 120 85 c 256,20,21
40 272 m 0,40,41
 40 290 40 290 55.5 305 c 128,-1,42
 71 320 71 320 99 331.5 c 128,-1,43
 127 343 127 343 164.5 349 c 128,-1,44
 202 355 202 355 245 355 c 0,45,46
 289 355 289 355 326.5 349 c 128,-1,47
 364 343 364 343 391.5 331.5 c 128,-1,48
 419 320 419 320 435 305 c 128,-1,49
 451 290 451 290 451 272 c 0,50,51
 451 255 451 255 435 240 c 128,-1,52
 419 225 419 225 391.5 214 c 128,-1,53
 364 203 364 203 326.5 196 c 128,-1,54
 289 189 289 189 245 189 c 0,55,56
 202 189 202 189 164.5 196 c 128,-1,57
 127 203 127 203 99 214 c 128,-1,58
 71 225 71 225 55.5 240 c 128,-1,59
 40 255 40 255 40 272 c 0,40,41
120 272 m 256,60,61
 120 261 120 261 129.5 251.5 c 128,-1,62
 139 242 139 242 156 235 c 128,-1,63
 173 228 173 228 196 224 c 128,-1,64
 219 220 219 220 245 220 c 0,65,66
 272 220 272 220 294.5 224 c 128,-1,67
 317 228 317 228 334 235 c 128,-1,68
 351 242 351 242 360.5 251.5 c 128,-1,69
 370 261 370 261 370 272 c 256,70,71
 370 283 370 283 360.5 292.5 c 128,-1,72
 351 302 351 302 334 309 c 128,-1,73
 317 316 317 316 294.5 320 c 128,-1,74
 272 324 272 324 245 324 c 0,75,76
 219 324 219 324 196 320 c 128,-1,77
 173 316 173 316 156 309 c 128,-1,78
 139 302 139 302 129.5 292.5 c 128,-1,79
 120 283 120 283 120 272 c 256,60,61
40 461 m 256,80,81
 40 478 40 478 55.5 493.5 c 128,-1,82
 71 509 71 509 99 520 c 128,-1,83
 127 531 127 531 164.5 537.5 c 128,-1,84
 202 544 202 544 245 544 c 0,85,86
 289 544 289 544 326.5 537.5 c 128,-1,87
 364 531 364 531 391.5 520 c 128,-1,88
 419 509 419 509 435 493.5 c 128,-1,89
 451 478 451 478 451 461 c 256,90,91
 451 444 451 444 435 429 c 128,-1,92
 419 414 419 414 391.5 402.5 c 128,-1,93
 364 391 364 391 326.5 384.5 c 128,-1,94
 289 378 289 378 245 378 c 0,95,96
 202 378 202 378 164.5 384.5 c 128,-1,97
 127 391 127 391 99 402.5 c 128,-1,98
 71 414 71 414 55.5 429 c 128,-1,99
 40 444 40 444 40 461 c 256,80,81
120 461 m 256,100,101
 120 450 120 450 129.5 440.5 c 128,-1,102
 139 431 139 431 156 424 c 128,-1,103
 173 417 173 417 196 413 c 128,-1,104
 219 409 219 409 245 409 c 0,105,106
 272 409 272 409 294.5 413 c 128,-1,107
 317 417 317 417 334 424 c 128,-1,108
 351 431 351 431 360.5 440.5 c 128,-1,109
 370 450 370 450 370 461 c 256,110,111
 370 472 370 472 360.5 481.5 c 128,-1,112
 351 491 351 491 334 498 c 128,-1,113
 317 505 317 505 294.5 509 c 128,-1,114
 272 513 272 513 245 513 c 0,115,116
 219 513 219 513 196 509 c 128,-1,117
 173 505 173 505 156 498 c 128,-1,118
 139 491 139 491 129.5 481.5 c 128,-1,119
 120 472 120 472 120 461 c 256,100,101
40 648 m 256,120,121
 40 665 40 665 55.5 680.5 c 128,-1,122
 71 696 71 696 99 707 c 128,-1,123
 127 718 127 718 164.5 724.5 c 128,-1,124
 202 731 202 731 245 731 c 0,125,126
 289 731 289 731 326.5 724.5 c 128,-1,127
 364 718 364 718 391.5 707 c 128,-1,128
 419 696 419 696 435 680.5 c 128,-1,129
 451 665 451 665 451 648 c 256,130,131
 451 631 451 631 435 616 c 128,-1,132
 419 601 419 601 391.5 589.5 c 128,-1,133
 364 578 364 578 326.5 571.5 c 128,-1,134
 289 565 289 565 245 565 c 0,135,136
 202 565 202 565 164.5 571.5 c 128,-1,137
 127 578 127 578 99 589.5 c 128,-1,138
 71 601 71 601 55.5 616 c 128,-1,139
 40 631 40 631 40 648 c 256,120,121
120 648 m 0,140,141
 120 637 120 637 129.5 627.5 c 128,-1,142
 139 618 139 618 156 611 c 128,-1,143
 173 604 173 604 196 600 c 128,-1,144
 219 596 219 596 245 596 c 0,145,146
 272 596 272 596 294.5 600 c 128,-1,147
 317 604 317 604 334 611 c 128,-1,148
 351 618 351 618 360.5 627.5 c 128,-1,149
 370 637 370 637 370 648 c 0,150,151
 370 658 370 658 360.5 668 c 128,-1,152
 351 678 351 678 334 685 c 128,-1,153
 317 692 317 692 294.5 696 c 128,-1,154
 272 700 272 700 245 700 c 0,155,156
 219 700 219 700 196 696 c 128,-1,157
 173 692 173 692 156 685 c 128,-1,158
 139 678 139 678 129.5 668 c 128,-1,159
 120 658 120 658 120 648 c 0,140,141
EndSplineSet
EndChar

StartChar: uni0081
Encoding: 129 129 178
Width: 480
Flags: W
LayerCount: 2
Fore
SplineSet
40 85 m 0,0,1
 40 103 40 103 55.5 118 c 128,-1,2
 71 133 71 133 99 144.5 c 128,-1,3
 127 156 127 156 164.5 162.5 c 128,-1,4
 202 169 202 169 245 169 c 0,5,6
 289 169 289 169 326.5 162.5 c 128,-1,7
 364 156 364 156 391.5 144.5 c 128,-1,8
 419 133 419 133 435 118 c 128,-1,9
 451 103 451 103 451 85 c 0,10,11
 451 68 451 68 435 53 c 128,-1,12
 419 38 419 38 391.5 27 c 128,-1,13
 364 16 364 16 326.5 9.5 c 128,-1,14
 289 3 289 3 245 3 c 0,15,16
 202 3 202 3 164.5 9.5 c 128,-1,17
 127 16 127 16 99 27 c 128,-1,18
 71 38 71 38 55.5 53 c 128,-1,19
 40 68 40 68 40 85 c 0,0,1
40 272 m 0,20,21
 40 290 40 290 55.5 305 c 128,-1,22
 71 320 71 320 99 331.5 c 128,-1,23
 127 343 127 343 164.5 349 c 128,-1,24
 202 355 202 355 245 355 c 0,25,26
 289 355 289 355 326.5 349 c 128,-1,27
 364 343 364 343 391.5 331.5 c 128,-1,28
 419 320 419 320 435 305 c 128,-1,29
 451 290 451 290 451 272 c 0,30,31
 451 255 451 255 435 240 c 128,-1,32
 419 225 419 225 391.5 214 c 128,-1,33
 364 203 364 203 326.5 196 c 128,-1,34
 289 189 289 189 245 189 c 0,35,36
 202 189 202 189 164.5 196 c 128,-1,37
 127 203 127 203 99 214 c 128,-1,38
 71 225 71 225 55.5 240 c 128,-1,39
 40 255 40 255 40 272 c 0,20,21
120 272 m 256,40,41
 120 261 120 261 129.5 251.5 c 128,-1,42
 139 242 139 242 156 235 c 128,-1,43
 173 228 173 228 196 224 c 128,-1,44
 219 220 219 220 245 220 c 0,45,46
 272 220 272 220 294.5 224 c 128,-1,47
 317 228 317 228 334 235 c 128,-1,48
 351 242 351 242 360.5 251.5 c 128,-1,49
 370 261 370 261 370 272 c 256,50,51
 370 283 370 283 360.5 292.5 c 128,-1,52
 351 302 351 302 334 309 c 128,-1,53
 317 316 317 316 294.5 320 c 128,-1,54
 272 324 272 324 245 324 c 0,55,56
 219 324 219 324 196 320 c 128,-1,57
 173 316 173 316 156 309 c 128,-1,58
 139 302 139 302 129.5 292.5 c 128,-1,59
 120 283 120 283 120 272 c 256,40,41
40 461 m 256,60,61
 40 478 40 478 55.5 493.5 c 128,-1,62
 71 509 71 509 99 520 c 128,-1,63
 127 531 127 531 164.5 537.5 c 128,-1,64
 202 544 202 544 245 544 c 0,65,66
 289 544 289 544 326.5 537.5 c 128,-1,67
 364 531 364 531 391.5 520 c 128,-1,68
 419 509 419 509 435 493.5 c 128,-1,69
 451 478 451 478 451 461 c 256,70,71
 451 444 451 444 435 429 c 128,-1,72
 419 414 419 414 391.5 402.5 c 128,-1,73
 364 391 364 391 326.5 384.5 c 128,-1,74
 289 378 289 378 245 378 c 0,75,76
 202 378 202 378 164.5 384.5 c 128,-1,77
 127 391 127 391 99 402.5 c 128,-1,78
 71 414 71 414 55.5 429 c 128,-1,79
 40 444 40 444 40 461 c 256,60,61
120 461 m 256,80,81
 120 450 120 450 129.5 440.5 c 128,-1,82
 139 431 139 431 156 424 c 128,-1,83
 173 417 173 417 196 413 c 128,-1,84
 219 409 219 409 245 409 c 0,85,86
 272 409 272 409 294.5 413 c 128,-1,87
 317 417 317 417 334 424 c 128,-1,88
 351 431 351 431 360.5 440.5 c 128,-1,89
 370 450 370 450 370 461 c 256,90,91
 370 472 370 472 360.5 481.5 c 128,-1,92
 351 491 351 491 334 498 c 128,-1,93
 317 505 317 505 294.5 509 c 128,-1,94
 272 513 272 513 245 513 c 0,95,96
 219 513 219 513 196 509 c 128,-1,97
 173 505 173 505 156 498 c 128,-1,98
 139 491 139 491 129.5 481.5 c 128,-1,99
 120 472 120 472 120 461 c 256,80,81
40 648 m 256,100,101
 40 665 40 665 55.5 680.5 c 128,-1,102
 71 696 71 696 99 707 c 128,-1,103
 127 718 127 718 164.5 724.5 c 128,-1,104
 202 731 202 731 245 731 c 0,105,106
 289 731 289 731 326.5 724.5 c 128,-1,107
 364 718 364 718 391.5 707 c 128,-1,108
 419 696 419 696 435 680.5 c 128,-1,109
 451 665 451 665 451 648 c 256,110,111
 451 631 451 631 435 616 c 128,-1,112
 419 601 419 601 391.5 589.5 c 128,-1,113
 364 578 364 578 326.5 571.5 c 128,-1,114
 289 565 289 565 245 565 c 0,115,116
 202 565 202 565 164.5 571.5 c 128,-1,117
 127 578 127 578 99 589.5 c 128,-1,118
 71 601 71 601 55.5 616 c 128,-1,119
 40 631 40 631 40 648 c 256,100,101
120 648 m 0,120,121
 120 637 120 637 129.5 627.5 c 128,-1,122
 139 618 139 618 156 611 c 128,-1,123
 173 604 173 604 196 600 c 128,-1,124
 219 596 219 596 245 596 c 0,125,126
 272 596 272 596 294.5 600 c 128,-1,127
 317 604 317 604 334 611 c 128,-1,128
 351 618 351 618 360.5 627.5 c 128,-1,129
 370 637 370 637 370 648 c 0,130,131
 370 658 370 658 360.5 668 c 128,-1,132
 351 678 351 678 334 685 c 128,-1,133
 317 692 317 692 294.5 696 c 128,-1,134
 272 700 272 700 245 700 c 0,135,136
 219 700 219 700 196 696 c 128,-1,137
 173 692 173 692 156 685 c 128,-1,138
 139 678 139 678 129.5 668 c 128,-1,139
 120 658 120 658 120 648 c 0,120,121
EndSplineSet
EndChar

StartChar: uni0082
Encoding: 130 130 179
Width: 480
Flags: W
LayerCount: 2
Fore
SplineSet
40 85 m 0,0,1
 40 103 40 103 55.5 118 c 128,-1,2
 71 133 71 133 99 144.5 c 128,-1,3
 127 156 127 156 164.5 162.5 c 128,-1,4
 202 169 202 169 245 169 c 0,5,6
 289 169 289 169 326.5 162.5 c 128,-1,7
 364 156 364 156 391.5 144.5 c 128,-1,8
 419 133 419 133 435 118 c 128,-1,9
 451 103 451 103 451 85 c 0,10,11
 451 68 451 68 435 53 c 128,-1,12
 419 38 419 38 391.5 27 c 128,-1,13
 364 16 364 16 326.5 9.5 c 128,-1,14
 289 3 289 3 245 3 c 0,15,16
 202 3 202 3 164.5 9.5 c 128,-1,17
 127 16 127 16 99 27 c 128,-1,18
 71 38 71 38 55.5 53 c 128,-1,19
 40 68 40 68 40 85 c 0,0,1
120 85 m 256,20,21
 120 74 120 74 129.5 64.5 c 128,-1,22
 139 55 139 55 156 48.5 c 128,-1,23
 173 42 173 42 196 38 c 128,-1,24
 219 34 219 34 245 34 c 0,25,26
 272 34 272 34 294.5 38 c 128,-1,27
 317 42 317 42 334 48.5 c 128,-1,28
 351 55 351 55 360.5 64.5 c 128,-1,29
 370 74 370 74 370 85 c 256,30,31
 370 96 370 96 360.5 105.5 c 128,-1,32
 351 115 351 115 334 122 c 128,-1,33
 317 129 317 129 294.5 133 c 128,-1,34
 272 137 272 137 245 137 c 0,35,36
 219 137 219 137 196 133 c 128,-1,37
 173 129 173 129 156 122 c 128,-1,38
 139 115 139 115 129.5 105.5 c 128,-1,39
 120 96 120 96 120 85 c 256,20,21
40 272 m 0,40,41
 40 290 40 290 55.5 305 c 128,-1,42
 71 320 71 320 99 331.5 c 128,-1,43
 127 343 127 343 164.5 349 c 128,-1,44
 202 355 202 355 245 355 c 0,45,46
 289 355 289 355 326.5 349 c 128,-1,47
 364 343 364 343 391.5 331.5 c 128,-1,48
 419 320 419 320 435 305 c 128,-1,49
 451 290 451 290 451 272 c 0,50,51
 451 255 451 255 435 240 c 128,-1,52
 419 225 419 225 391.5 214 c 128,-1,53
 364 203 364 203 326.5 196 c 128,-1,54
 289 189 289 189 245 189 c 0,55,56
 202 189 202 189 164.5 196 c 128,-1,57
 127 203 127 203 99 214 c 128,-1,58
 71 225 71 225 55.5 240 c 128,-1,59
 40 255 40 255 40 272 c 0,40,41
40 461 m 256,60,61
 40 478 40 478 55.5 493.5 c 128,-1,62
 71 509 71 509 99 520 c 128,-1,63
 127 531 127 531 164.5 537.5 c 128,-1,64
 202 544 202 544 245 544 c 0,65,66
 289 544 289 544 326.5 537.5 c 128,-1,67
 364 531 364 531 391.5 520 c 128,-1,68
 419 509 419 509 435 493.5 c 128,-1,69
 451 478 451 478 451 461 c 256,70,71
 451 444 451 444 435 429 c 128,-1,72
 419 414 419 414 391.5 402.5 c 128,-1,73
 364 391 364 391 326.5 384.5 c 128,-1,74
 289 378 289 378 245 378 c 0,75,76
 202 378 202 378 164.5 384.5 c 128,-1,77
 127 391 127 391 99 402.5 c 128,-1,78
 71 414 71 414 55.5 429 c 128,-1,79
 40 444 40 444 40 461 c 256,60,61
120 461 m 256,80,81
 120 450 120 450 129.5 440.5 c 128,-1,82
 139 431 139 431 156 424 c 128,-1,83
 173 417 173 417 196 413 c 128,-1,84
 219 409 219 409 245 409 c 0,85,86
 272 409 272 409 294.5 413 c 128,-1,87
 317 417 317 417 334 424 c 128,-1,88
 351 431 351 431 360.5 440.5 c 128,-1,89
 370 450 370 450 370 461 c 256,90,91
 370 472 370 472 360.5 481.5 c 128,-1,92
 351 491 351 491 334 498 c 128,-1,93
 317 505 317 505 294.5 509 c 128,-1,94
 272 513 272 513 245 513 c 0,95,96
 219 513 219 513 196 509 c 128,-1,97
 173 505 173 505 156 498 c 128,-1,98
 139 491 139 491 129.5 481.5 c 128,-1,99
 120 472 120 472 120 461 c 256,80,81
40 648 m 256,100,101
 40 665 40 665 55.5 680.5 c 128,-1,102
 71 696 71 696 99 707 c 128,-1,103
 127 718 127 718 164.5 724.5 c 128,-1,104
 202 731 202 731 245 731 c 0,105,106
 289 731 289 731 326.5 724.5 c 128,-1,107
 364 718 364 718 391.5 707 c 128,-1,108
 419 696 419 696 435 680.5 c 128,-1,109
 451 665 451 665 451 648 c 256,110,111
 451 631 451 631 435 616 c 128,-1,112
 419 601 419 601 391.5 589.5 c 128,-1,113
 364 578 364 578 326.5 571.5 c 128,-1,114
 289 565 289 565 245 565 c 0,115,116
 202 565 202 565 164.5 571.5 c 128,-1,117
 127 578 127 578 99 589.5 c 128,-1,118
 71 601 71 601 55.5 616 c 128,-1,119
 40 631 40 631 40 648 c 256,100,101
120 648 m 0,120,121
 120 637 120 637 129.5 627.5 c 128,-1,122
 139 618 139 618 156 611 c 128,-1,123
 173 604 173 604 196 600 c 128,-1,124
 219 596 219 596 245 596 c 0,125,126
 272 596 272 596 294.5 600 c 128,-1,127
 317 604 317 604 334 611 c 128,-1,128
 351 618 351 618 360.5 627.5 c 128,-1,129
 370 637 370 637 370 648 c 0,130,131
 370 658 370 658 360.5 668 c 128,-1,132
 351 678 351 678 334 685 c 128,-1,133
 317 692 317 692 294.5 696 c 128,-1,134
 272 700 272 700 245 700 c 0,135,136
 219 700 219 700 196 696 c 128,-1,137
 173 692 173 692 156 685 c 128,-1,138
 139 678 139 678 129.5 668 c 128,-1,139
 120 658 120 658 120 648 c 0,120,121
EndSplineSet
EndChar

StartChar: uni0083
Encoding: 131 131 180
Width: 480
Flags: W
LayerCount: 2
Fore
SplineSet
40 85 m 0,0,1
 40 103 40 103 55.5 118 c 128,-1,2
 71 133 71 133 99 144.5 c 128,-1,3
 127 156 127 156 164.5 162.5 c 128,-1,4
 202 169 202 169 245 169 c 0,5,6
 289 169 289 169 326.5 162.5 c 128,-1,7
 364 156 364 156 391.5 144.5 c 128,-1,8
 419 133 419 133 435 118 c 128,-1,9
 451 103 451 103 451 85 c 0,10,11
 451 68 451 68 435 53 c 128,-1,12
 419 38 419 38 391.5 27 c 128,-1,13
 364 16 364 16 326.5 9.5 c 128,-1,14
 289 3 289 3 245 3 c 0,15,16
 202 3 202 3 164.5 9.5 c 128,-1,17
 127 16 127 16 99 27 c 128,-1,18
 71 38 71 38 55.5 53 c 128,-1,19
 40 68 40 68 40 85 c 0,0,1
40 272 m 0,20,21
 40 290 40 290 55.5 305 c 128,-1,22
 71 320 71 320 99 331.5 c 128,-1,23
 127 343 127 343 164.5 349 c 128,-1,24
 202 355 202 355 245 355 c 0,25,26
 289 355 289 355 326.5 349 c 128,-1,27
 364 343 364 343 391.5 331.5 c 128,-1,28
 419 320 419 320 435 305 c 128,-1,29
 451 290 451 290 451 272 c 0,30,31
 451 255 451 255 435 240 c 128,-1,32
 419 225 419 225 391.5 214 c 128,-1,33
 364 203 364 203 326.5 196 c 128,-1,34
 289 189 289 189 245 189 c 0,35,36
 202 189 202 189 164.5 196 c 128,-1,37
 127 203 127 203 99 214 c 128,-1,38
 71 225 71 225 55.5 240 c 128,-1,39
 40 255 40 255 40 272 c 0,20,21
40 461 m 256,40,41
 40 478 40 478 55.5 493.5 c 128,-1,42
 71 509 71 509 99 520 c 128,-1,43
 127 531 127 531 164.5 537.5 c 128,-1,44
 202 544 202 544 245 544 c 0,45,46
 289 544 289 544 326.5 537.5 c 128,-1,47
 364 531 364 531 391.5 520 c 128,-1,48
 419 509 419 509 435 493.5 c 128,-1,49
 451 478 451 478 451 461 c 256,50,51
 451 444 451 444 435 429 c 128,-1,52
 419 414 419 414 391.5 402.5 c 128,-1,53
 364 391 364 391 326.5 384.5 c 128,-1,54
 289 378 289 378 245 378 c 0,55,56
 202 378 202 378 164.5 384.5 c 128,-1,57
 127 391 127 391 99 402.5 c 128,-1,58
 71 414 71 414 55.5 429 c 128,-1,59
 40 444 40 444 40 461 c 256,40,41
120 461 m 256,60,61
 120 450 120 450 129.5 440.5 c 128,-1,62
 139 431 139 431 156 424 c 128,-1,63
 173 417 173 417 196 413 c 128,-1,64
 219 409 219 409 245 409 c 0,65,66
 272 409 272 409 294.5 413 c 128,-1,67
 317 417 317 417 334 424 c 128,-1,68
 351 431 351 431 360.5 440.5 c 128,-1,69
 370 450 370 450 370 461 c 256,70,71
 370 472 370 472 360.5 481.5 c 128,-1,72
 351 491 351 491 334 498 c 128,-1,73
 317 505 317 505 294.5 509 c 128,-1,74
 272 513 272 513 245 513 c 0,75,76
 219 513 219 513 196 509 c 128,-1,77
 173 505 173 505 156 498 c 128,-1,78
 139 491 139 491 129.5 481.5 c 128,-1,79
 120 472 120 472 120 461 c 256,60,61
40 648 m 256,80,81
 40 665 40 665 55.5 680.5 c 128,-1,82
 71 696 71 696 99 707 c 128,-1,83
 127 718 127 718 164.5 724.5 c 128,-1,84
 202 731 202 731 245 731 c 0,85,86
 289 731 289 731 326.5 724.5 c 128,-1,87
 364 718 364 718 391.5 707 c 128,-1,88
 419 696 419 696 435 680.5 c 128,-1,89
 451 665 451 665 451 648 c 256,90,91
 451 631 451 631 435 616 c 128,-1,92
 419 601 419 601 391.5 589.5 c 128,-1,93
 364 578 364 578 326.5 571.5 c 128,-1,94
 289 565 289 565 245 565 c 0,95,96
 202 565 202 565 164.5 571.5 c 128,-1,97
 127 578 127 578 99 589.5 c 128,-1,98
 71 601 71 601 55.5 616 c 128,-1,99
 40 631 40 631 40 648 c 256,80,81
120 648 m 0,100,101
 120 637 120 637 129.5 627.5 c 128,-1,102
 139 618 139 618 156 611 c 128,-1,103
 173 604 173 604 196 600 c 128,-1,104
 219 596 219 596 245 596 c 0,105,106
 272 596 272 596 294.5 600 c 128,-1,107
 317 604 317 604 334 611 c 128,-1,108
 351 618 351 618 360.5 627.5 c 128,-1,109
 370 637 370 637 370 648 c 0,110,111
 370 658 370 658 360.5 668 c 128,-1,112
 351 678 351 678 334 685 c 128,-1,113
 317 692 317 692 294.5 696 c 128,-1,114
 272 700 272 700 245 700 c 0,115,116
 219 700 219 700 196 696 c 128,-1,117
 173 692 173 692 156 685 c 128,-1,118
 139 678 139 678 129.5 668 c 128,-1,119
 120 658 120 658 120 648 c 0,100,101
EndSplineSet
EndChar

StartChar: uni0084
Encoding: 132 132 181
Width: 480
Flags: W
LayerCount: 2
Fore
SplineSet
40 85 m 0,0,1
 40 103 40 103 55.5 118 c 128,-1,2
 71 133 71 133 99 144.5 c 128,-1,3
 127 156 127 156 164.5 162.5 c 128,-1,4
 202 169 202 169 245 169 c 0,5,6
 289 169 289 169 326.5 162.5 c 128,-1,7
 364 156 364 156 391.5 144.5 c 128,-1,8
 419 133 419 133 435 118 c 128,-1,9
 451 103 451 103 451 85 c 0,10,11
 451 68 451 68 435 53 c 128,-1,12
 419 38 419 38 391.5 27 c 128,-1,13
 364 16 364 16 326.5 9.5 c 128,-1,14
 289 3 289 3 245 3 c 0,15,16
 202 3 202 3 164.5 9.5 c 128,-1,17
 127 16 127 16 99 27 c 128,-1,18
 71 38 71 38 55.5 53 c 128,-1,19
 40 68 40 68 40 85 c 0,0,1
120 85 m 256,20,21
 120 74 120 74 129.5 64.5 c 128,-1,22
 139 55 139 55 156 48.5 c 128,-1,23
 173 42 173 42 196 38 c 128,-1,24
 219 34 219 34 245 34 c 0,25,26
 272 34 272 34 294.5 38 c 128,-1,27
 317 42 317 42 334 48.5 c 128,-1,28
 351 55 351 55 360.5 64.5 c 128,-1,29
 370 74 370 74 370 85 c 256,30,31
 370 96 370 96 360.5 105.5 c 128,-1,32
 351 115 351 115 334 122 c 128,-1,33
 317 129 317 129 294.5 133 c 128,-1,34
 272 137 272 137 245 137 c 0,35,36
 219 137 219 137 196 133 c 128,-1,37
 173 129 173 129 156 122 c 128,-1,38
 139 115 139 115 129.5 105.5 c 128,-1,39
 120 96 120 96 120 85 c 256,20,21
40 272 m 0,40,41
 40 290 40 290 55.5 305 c 128,-1,42
 71 320 71 320 99 331.5 c 128,-1,43
 127 343 127 343 164.5 349 c 128,-1,44
 202 355 202 355 245 355 c 0,45,46
 289 355 289 355 326.5 349 c 128,-1,47
 364 343 364 343 391.5 331.5 c 128,-1,48
 419 320 419 320 435 305 c 128,-1,49
 451 290 451 290 451 272 c 0,50,51
 451 255 451 255 435 240 c 128,-1,52
 419 225 419 225 391.5 214 c 128,-1,53
 364 203 364 203 326.5 196 c 128,-1,54
 289 189 289 189 245 189 c 0,55,56
 202 189 202 189 164.5 196 c 128,-1,57
 127 203 127 203 99 214 c 128,-1,58
 71 225 71 225 55.5 240 c 128,-1,59
 40 255 40 255 40 272 c 0,40,41
120 272 m 256,60,61
 120 261 120 261 129.5 251.5 c 128,-1,62
 139 242 139 242 156 235 c 128,-1,63
 173 228 173 228 196 224 c 128,-1,64
 219 220 219 220 245 220 c 0,65,66
 272 220 272 220 294.5 224 c 128,-1,67
 317 228 317 228 334 235 c 128,-1,68
 351 242 351 242 360.5 251.5 c 128,-1,69
 370 261 370 261 370 272 c 256,70,71
 370 283 370 283 360.5 292.5 c 128,-1,72
 351 302 351 302 334 309 c 128,-1,73
 317 316 317 316 294.5 320 c 128,-1,74
 272 324 272 324 245 324 c 0,75,76
 219 324 219 324 196 320 c 128,-1,77
 173 316 173 316 156 309 c 128,-1,78
 139 302 139 302 129.5 292.5 c 128,-1,79
 120 283 120 283 120 272 c 256,60,61
40 461 m 256,80,81
 40 478 40 478 55.5 493.5 c 128,-1,82
 71 509 71 509 99 520 c 128,-1,83
 127 531 127 531 164.5 537.5 c 128,-1,84
 202 544 202 544 245 544 c 0,85,86
 289 544 289 544 326.5 537.5 c 128,-1,87
 364 531 364 531 391.5 520 c 128,-1,88
 419 509 419 509 435 493.5 c 128,-1,89
 451 478 451 478 451 461 c 256,90,91
 451 444 451 444 435 429 c 128,-1,92
 419 414 419 414 391.5 402.5 c 128,-1,93
 364 391 364 391 326.5 384.5 c 128,-1,94
 289 378 289 378 245 378 c 0,95,96
 202 378 202 378 164.5 384.5 c 128,-1,97
 127 391 127 391 99 402.5 c 128,-1,98
 71 414 71 414 55.5 429 c 128,-1,99
 40 444 40 444 40 461 c 256,80,81
40 648 m 256,100,101
 40 665 40 665 55.5 680.5 c 128,-1,102
 71 696 71 696 99 707 c 128,-1,103
 127 718 127 718 164.5 724.5 c 128,-1,104
 202 731 202 731 245 731 c 0,105,106
 289 731 289 731 326.5 724.5 c 128,-1,107
 364 718 364 718 391.5 707 c 128,-1,108
 419 696 419 696 435 680.5 c 128,-1,109
 451 665 451 665 451 648 c 256,110,111
 451 631 451 631 435 616 c 128,-1,112
 419 601 419 601 391.5 589.5 c 128,-1,113
 364 578 364 578 326.5 571.5 c 128,-1,114
 289 565 289 565 245 565 c 0,115,116
 202 565 202 565 164.5 571.5 c 128,-1,117
 127 578 127 578 99 589.5 c 128,-1,118
 71 601 71 601 55.5 616 c 128,-1,119
 40 631 40 631 40 648 c 256,100,101
120 648 m 0,120,121
 120 637 120 637 129.5 627.5 c 128,-1,122
 139 618 139 618 156 611 c 128,-1,123
 173 604 173 604 196 600 c 128,-1,124
 219 596 219 596 245 596 c 0,125,126
 272 596 272 596 294.5 600 c 128,-1,127
 317 604 317 604 334 611 c 128,-1,128
 351 618 351 618 360.5 627.5 c 128,-1,129
 370 637 370 637 370 648 c 0,130,131
 370 658 370 658 360.5 668 c 128,-1,132
 351 678 351 678 334 685 c 128,-1,133
 317 692 317 692 294.5 696 c 128,-1,134
 272 700 272 700 245 700 c 0,135,136
 219 700 219 700 196 696 c 128,-1,137
 173 692 173 692 156 685 c 128,-1,138
 139 678 139 678 129.5 668 c 128,-1,139
 120 658 120 658 120 648 c 0,120,121
EndSplineSet
EndChar

